<svg xmlns="http://www.w3.org/2000/svg" viewBox="0 0 500 500"><g id="freepik--background-simple--inject-35"><path d="M323.83,44.54S249.33,18.05,176.2,60.23s-110,125.9-141.73,193S21,388.49,76.85,419.6s93.79-14.75,172.11-17,99.38,9,164.37-35.28,76.74-148.73,25.47-226S323.83,44.54,323.83,44.54Z" style="fill:#7E57C2"></path><path d="M323.83,44.54S249.33,18.05,176.2,60.23s-110,125.9-141.73,193S21,388.49,76.85,419.6s93.79-14.75,172.11-17,99.38,9,164.37-35.28,76.74-148.73,25.47-226S323.83,44.54,323.83,44.54Z" style="fill:#fff;opacity:0.7000000000000001"></path></g><g id="freepik--Wall--inject-35"><line x1="277.41" y1="153.5" x2="331.8" y2="153.5" style="fill:none;stroke:gray;stroke-linecap:round;stroke-linejoin:round"></line><line x1="301.39" y1="157.6" x2="301.39" y2="167.54" style="fill:none;stroke:gray;stroke-linecap:round;stroke-linejoin:round"></line><line x1="262.79" y1="157.6" x2="262.79" y2="167.54" style="fill:none;stroke:gray;stroke-linecap:round;stroke-linejoin:round"></line><line x1="305.48" y1="170.46" x2="337.06" y2="170.46" style="fill:none;stroke:gray;stroke-linecap:round;stroke-linejoin:round"></line><line x1="258.11" y1="170.46" x2="289.69" y2="170.46" style="fill:none;stroke:gray;stroke-linecap:round;stroke-linejoin:round"></line><line x1="321.86" y1="173.97" x2="321.86" y2="186.25" style="fill:none;stroke:gray;stroke-linecap:round;stroke-linejoin:round"></line><line x1="286.18" y1="175.14" x2="286.18" y2="187.42" style="fill:none;stroke:gray;stroke-linecap:round;stroke-linejoin:round"></line><line x1="277.41" y1="190.93" x2="331.8" y2="190.93" style="fill:none;stroke:gray;stroke-linecap:round;stroke-linejoin:round"></line><line x1="301.39" y1="195.03" x2="301.39" y2="204.97" style="fill:none;stroke:gray;stroke-linecap:round;stroke-linejoin:round"></line><line x1="262.79" y1="195.03" x2="262.79" y2="204.97" style="fill:none;stroke:gray;stroke-linecap:round;stroke-linejoin:round"></line><line x1="305.48" y1="207.89" x2="337.06" y2="207.89" style="fill:none;stroke:gray;stroke-linecap:round;stroke-linejoin:round"></line><line x1="258.11" y1="207.89" x2="289.69" y2="207.89" style="fill:none;stroke:gray;stroke-linecap:round;stroke-linejoin:round"></line><line x1="321.86" y1="211.4" x2="321.86" y2="223.68" style="fill:none;stroke:gray;stroke-linecap:round;stroke-linejoin:round"></line><line x1="286.18" y1="212.57" x2="286.18" y2="224.85" style="fill:none;stroke:gray;stroke-linecap:round;stroke-linejoin:round"></line><line x1="389.7" y1="153.5" x2="444.09" y2="153.5" style="fill:none;stroke:gray;stroke-linecap:round;stroke-linejoin:round"></line><line x1="413.68" y1="157.6" x2="413.68" y2="167.54" style="fill:none;stroke:gray;stroke-linecap:round;stroke-linejoin:round"></line><line x1="375.08" y1="157.6" x2="375.08" y2="167.54" style="fill:none;stroke:gray;stroke-linecap:round;stroke-linejoin:round"></line><line x1="417.77" y1="170.46" x2="449.35" y2="170.46" style="fill:none;stroke:gray;stroke-linecap:round;stroke-linejoin:round"></line><line x1="370.4" y1="170.46" x2="401.98" y2="170.46" style="fill:none;stroke:gray;stroke-linecap:round;stroke-linejoin:round"></line><line x1="434.15" y1="173.97" x2="434.15" y2="186.25" style="fill:none;stroke:gray;stroke-linecap:round;stroke-linejoin:round"></line><line x1="398.47" y1="175.14" x2="398.47" y2="187.42" style="fill:none;stroke:gray;stroke-linecap:round;stroke-linejoin:round"></line><line x1="389.7" y1="190.93" x2="444.09" y2="190.93" style="fill:none;stroke:gray;stroke-linecap:round;stroke-linejoin:round"></line><line x1="413.68" y1="195.03" x2="413.68" y2="204.97" style="fill:none;stroke:gray;stroke-linecap:round;stroke-linejoin:round"></line><line x1="375.08" y1="195.03" x2="375.08" y2="204.97" style="fill:none;stroke:gray;stroke-linecap:round;stroke-linejoin:round"></line><line x1="417.77" y1="207.89" x2="449.35" y2="207.89" style="fill:none;stroke:gray;stroke-linecap:round;stroke-linejoin:round"></line><line x1="370.4" y1="207.89" x2="401.98" y2="207.89" style="fill:none;stroke:gray;stroke-linecap:round;stroke-linejoin:round"></line><line x1="434.15" y1="211.4" x2="434.15" y2="223.68" style="fill:none;stroke:gray;stroke-linecap:round;stroke-linejoin:round"></line><line x1="398.47" y1="212.57" x2="398.47" y2="224.85" style="fill:none;stroke:gray;stroke-linecap:round;stroke-linejoin:round"></line><line x1="312.78" y1="77" x2="367.17" y2="77" style="fill:none;stroke:gray;stroke-linecap:round;stroke-linejoin:round"></line><line x1="336.76" y1="81.09" x2="336.76" y2="91.04" style="fill:none;stroke:gray;stroke-linecap:round;stroke-linejoin:round"></line><line x1="298.16" y1="81.09" x2="298.16" y2="91.04" style="fill:none;stroke:gray;stroke-linecap:round;stroke-linejoin:round"></line><line x1="340.85" y1="93.96" x2="372.44" y2="93.96" style="fill:none;stroke:gray;stroke-linecap:round;stroke-linejoin:round"></line><line x1="293.48" y1="93.96" x2="325.06" y2="93.96" style="fill:none;stroke:gray;stroke-linecap:round;stroke-linejoin:round"></line><line x1="357.23" y1="97.47" x2="357.23" y2="109.75" style="fill:none;stroke:gray;stroke-linecap:round;stroke-linejoin:round"></line><line x1="321.56" y1="98.64" x2="321.56" y2="110.92" style="fill:none;stroke:gray;stroke-linecap:round;stroke-linejoin:round"></line><line x1="312.78" y1="114.43" x2="367.17" y2="114.43" style="fill:none;stroke:gray;stroke-linecap:round;stroke-linejoin:round"></line><line x1="336.76" y1="118.52" x2="336.76" y2="128.47" style="fill:none;stroke:gray;stroke-linecap:round;stroke-linejoin:round"></line><line x1="298.16" y1="118.52" x2="298.16" y2="128.47" style="fill:none;stroke:gray;stroke-linecap:round;stroke-linejoin:round"></line><line x1="340.85" y1="131.39" x2="372.44" y2="131.39" style="fill:none;stroke:gray;stroke-linecap:round;stroke-linejoin:round"></line><line x1="293.48" y1="131.39" x2="325.06" y2="131.39" style="fill:none;stroke:gray;stroke-linecap:round;stroke-linejoin:round"></line><line x1="357.23" y1="134.9" x2="357.23" y2="147.18" style="fill:none;stroke:gray;stroke-linecap:round;stroke-linejoin:round"></line><line x1="321.56" y1="136.07" x2="321.56" y2="148.35" style="fill:none;stroke:gray;stroke-linecap:round;stroke-linejoin:round"></line><line x1="277.41" y1="323.36" x2="331.8" y2="323.36" style="fill:none;stroke:gray;stroke-linecap:round;stroke-linejoin:round"></line><line x1="301.39" y1="327.46" x2="301.39" y2="337.4" style="fill:none;stroke:gray;stroke-linecap:round;stroke-linejoin:round"></line><line x1="262.79" y1="327.46" x2="262.79" y2="337.4" style="fill:none;stroke:gray;stroke-linecap:round;stroke-linejoin:round"></line><line x1="305.48" y1="340.33" x2="337.06" y2="340.33" style="fill:none;stroke:gray;stroke-linecap:round;stroke-linejoin:round"></line><line x1="258.11" y1="340.33" x2="289.69" y2="340.33" style="fill:none;stroke:gray;stroke-linecap:round;stroke-linejoin:round"></line><line x1="321.86" y1="343.83" x2="321.86" y2="356.12" style="fill:none;stroke:gray;stroke-linecap:round;stroke-linejoin:round"></line><line x1="286.18" y1="345" x2="286.18" y2="357.29" style="fill:none;stroke:gray;stroke-linecap:round;stroke-linejoin:round"></line><line x1="277.41" y1="360.79" x2="331.8" y2="360.79" style="fill:none;stroke:gray;stroke-linecap:round;stroke-linejoin:round"></line><line x1="301.39" y1="364.89" x2="301.39" y2="374.83" style="fill:none;stroke:gray;stroke-linecap:round;stroke-linejoin:round"></line><line x1="262.79" y1="364.89" x2="262.79" y2="374.83" style="fill:none;stroke:gray;stroke-linecap:round;stroke-linejoin:round"></line><line x1="305.48" y1="377.75" x2="337.06" y2="377.75" style="fill:none;stroke:gray;stroke-linecap:round;stroke-linejoin:round"></line><line x1="258.11" y1="377.75" x2="289.69" y2="377.75" style="fill:none;stroke:gray;stroke-linecap:round;stroke-linejoin:round"></line><line x1="321.86" y1="381.26" x2="321.86" y2="393.54" style="fill:none;stroke:gray;stroke-linecap:round;stroke-linejoin:round"></line><line x1="286.18" y1="382.43" x2="286.18" y2="394.71" style="fill:none;stroke:gray;stroke-linecap:round;stroke-linejoin:round"></line><line x1="389.7" y1="323.36" x2="444.09" y2="323.36" style="fill:none;stroke:gray;stroke-linecap:round;stroke-linejoin:round"></line><line x1="413.68" y1="327.46" x2="413.68" y2="337.4" style="fill:none;stroke:gray;stroke-linecap:round;stroke-linejoin:round"></line><line x1="375.08" y1="327.46" x2="375.08" y2="337.4" style="fill:none;stroke:gray;stroke-linecap:round;stroke-linejoin:round"></line><line x1="417.77" y1="340.33" x2="449.35" y2="340.33" style="fill:none;stroke:gray;stroke-linecap:round;stroke-linejoin:round"></line><line x1="370.4" y1="340.33" x2="401.98" y2="340.33" style="fill:none;stroke:gray;stroke-linecap:round;stroke-linejoin:round"></line><line x1="434.15" y1="343.83" x2="434.15" y2="356.12" style="fill:none;stroke:gray;stroke-linecap:round;stroke-linejoin:round"></line><line x1="398.47" y1="345" x2="398.47" y2="357.29" style="fill:none;stroke:gray;stroke-linecap:round;stroke-linejoin:round"></line><line x1="389.7" y1="360.79" x2="444.09" y2="360.79" style="fill:none;stroke:gray;stroke-linecap:round;stroke-linejoin:round"></line><line x1="413.68" y1="364.89" x2="413.68" y2="374.83" style="fill:none;stroke:gray;stroke-linecap:round;stroke-linejoin:round"></line><line x1="375.08" y1="364.89" x2="375.08" y2="374.83" style="fill:none;stroke:gray;stroke-linecap:round;stroke-linejoin:round"></line><line x1="417.77" y1="377.75" x2="449.35" y2="377.75" style="fill:none;stroke:gray;stroke-linecap:round;stroke-linejoin:round"></line><line x1="370.4" y1="377.75" x2="401.98" y2="377.75" style="fill:none;stroke:gray;stroke-linecap:round;stroke-linejoin:round"></line><line x1="434.15" y1="381.26" x2="434.15" y2="393.54" style="fill:none;stroke:gray;stroke-linecap:round;stroke-linejoin:round"></line><line x1="398.47" y1="382.43" x2="398.47" y2="394.71" style="fill:none;stroke:gray;stroke-linecap:round;stroke-linejoin:round"></line><line x1="312.78" y1="246.86" x2="367.17" y2="246.86" style="fill:none;stroke:gray;stroke-linecap:round;stroke-linejoin:round"></line><line x1="336.76" y1="250.96" x2="336.76" y2="260.9" style="fill:none;stroke:gray;stroke-linecap:round;stroke-linejoin:round"></line><line x1="298.16" y1="250.96" x2="298.16" y2="260.9" style="fill:none;stroke:gray;stroke-linecap:round;stroke-linejoin:round"></line><line x1="340.85" y1="263.82" x2="372.44" y2="263.82" style="fill:none;stroke:gray;stroke-linecap:round;stroke-linejoin:round"></line><line x1="293.48" y1="263.82" x2="325.06" y2="263.82" style="fill:none;stroke:gray;stroke-linecap:round;stroke-linejoin:round"></line><line x1="357.23" y1="267.33" x2="357.23" y2="279.61" style="fill:none;stroke:gray;stroke-linecap:round;stroke-linejoin:round"></line><line x1="321.56" y1="268.5" x2="321.56" y2="280.78" style="fill:none;stroke:gray;stroke-linecap:round;stroke-linejoin:round"></line><line x1="312.78" y1="284.29" x2="367.17" y2="284.29" style="fill:none;stroke:gray;stroke-linecap:round;stroke-linejoin:round"></line><line x1="336.76" y1="288.38" x2="336.76" y2="298.33" style="fill:none;stroke:gray;stroke-linecap:round;stroke-linejoin:round"></line><line x1="298.16" y1="288.38" x2="298.16" y2="298.33" style="fill:none;stroke:gray;stroke-linecap:round;stroke-linejoin:round"></line><line x1="340.85" y1="301.25" x2="372.44" y2="301.25" style="fill:none;stroke:gray;stroke-linecap:round;stroke-linejoin:round"></line><line x1="293.48" y1="301.25" x2="325.06" y2="301.25" style="fill:none;stroke:gray;stroke-linecap:round;stroke-linejoin:round"></line><line x1="357.23" y1="304.76" x2="357.23" y2="317.04" style="fill:none;stroke:gray;stroke-linecap:round;stroke-linejoin:round"></line><line x1="321.56" y1="305.93" x2="321.56" y2="318.21" style="fill:none;stroke:gray;stroke-linecap:round;stroke-linejoin:round"></line><line x1="161.25" y1="118.5" x2="215.64" y2="118.5" style="fill:none;stroke:gray;stroke-linecap:round;stroke-linejoin:round"></line><line x1="185.23" y1="122.6" x2="185.23" y2="132.54" style="fill:none;stroke:gray;stroke-linecap:round;stroke-linejoin:round"></line><line x1="146.63" y1="122.6" x2="146.63" y2="132.54" style="fill:none;stroke:gray;stroke-linecap:round;stroke-linejoin:round"></line><line x1="189.33" y1="135.46" x2="220.91" y2="135.46" style="fill:none;stroke:gray;stroke-linecap:round;stroke-linejoin:round"></line><line x1="141.95" y1="135.46" x2="173.54" y2="135.46" style="fill:none;stroke:gray;stroke-linecap:round;stroke-linejoin:round"></line><line x1="205.7" y1="138.97" x2="205.7" y2="151.25" style="fill:none;stroke:gray;stroke-linecap:round;stroke-linejoin:round"></line><line x1="170.03" y1="140.14" x2="170.03" y2="152.42" style="fill:none;stroke:gray;stroke-linecap:round;stroke-linejoin:round"></line><line x1="161.25" y1="155.93" x2="215.64" y2="155.93" style="fill:none;stroke:gray;stroke-linecap:round;stroke-linejoin:round"></line><line x1="185.23" y1="160.03" x2="185.23" y2="169.97" style="fill:none;stroke:gray;stroke-linecap:round;stroke-linejoin:round"></line><line x1="146.63" y1="160.03" x2="146.63" y2="169.97" style="fill:none;stroke:gray;stroke-linecap:round;stroke-linejoin:round"></line><line x1="189.33" y1="172.89" x2="220.91" y2="172.89" style="fill:none;stroke:gray;stroke-linecap:round;stroke-linejoin:round"></line><line x1="141.95" y1="172.89" x2="173.54" y2="172.89" style="fill:none;stroke:gray;stroke-linecap:round;stroke-linejoin:round"></line><line x1="205.7" y1="176.4" x2="205.7" y2="188.68" style="fill:none;stroke:gray;stroke-linecap:round;stroke-linejoin:round"></line><line x1="170.03" y1="177.57" x2="170.03" y2="189.85" style="fill:none;stroke:gray;stroke-linecap:round;stroke-linejoin:round"></line><line x1="196.63" y1="42" x2="251.02" y2="42" style="fill:none;stroke:gray;stroke-linecap:round;stroke-linejoin:round"></line><line x1="220.6" y1="46.09" x2="220.6" y2="56.04" style="fill:none;stroke:gray;stroke-linecap:round;stroke-linejoin:round"></line><line x1="182.01" y1="46.09" x2="182.01" y2="56.04" style="fill:none;stroke:gray;stroke-linecap:round;stroke-linejoin:round"></line><line x1="224.7" y1="58.96" x2="256.28" y2="58.96" style="fill:none;stroke:gray;stroke-linecap:round;stroke-linejoin:round"></line><line x1="177.33" y1="58.96" x2="208.91" y2="58.96" style="fill:none;stroke:gray;stroke-linecap:round;stroke-linejoin:round"></line><line x1="241.07" y1="62.47" x2="241.07" y2="74.75" style="fill:none;stroke:gray;stroke-linecap:round;stroke-linejoin:round"></line><line x1="205.4" y1="63.64" x2="205.4" y2="75.92" style="fill:none;stroke:gray;stroke-linecap:round;stroke-linejoin:round"></line><line x1="196.63" y1="79.43" x2="251.02" y2="79.43" style="fill:none;stroke:gray;stroke-linecap:round;stroke-linejoin:round"></line><line x1="220.6" y1="83.52" x2="220.6" y2="93.47" style="fill:none;stroke:gray;stroke-linecap:round;stroke-linejoin:round"></line><line x1="182.01" y1="83.52" x2="182.01" y2="93.47" style="fill:none;stroke:gray;stroke-linecap:round;stroke-linejoin:round"></line><line x1="224.7" y1="96.39" x2="256.28" y2="96.39" style="fill:none;stroke:gray;stroke-linecap:round;stroke-linejoin:round"></line><line x1="177.33" y1="96.39" x2="208.91" y2="96.39" style="fill:none;stroke:gray;stroke-linecap:round;stroke-linejoin:round"></line><line x1="241.07" y1="99.9" x2="241.07" y2="112.18" style="fill:none;stroke:gray;stroke-linecap:round;stroke-linejoin:round"></line><line x1="205.4" y1="101.07" x2="205.4" y2="113.35" style="fill:none;stroke:gray;stroke-linecap:round;stroke-linejoin:round"></line><line x1="33.23" y1="195.5" x2="87.62" y2="195.5" style="fill:none;stroke:gray;stroke-linecap:round;stroke-linejoin:round"></line><line x1="57.21" y1="199.6" x2="57.21" y2="209.54" style="fill:none;stroke:gray;stroke-linecap:round;stroke-linejoin:round"></line><line x1="18.61" y1="199.6" x2="18.61" y2="209.54" style="fill:none;stroke:gray;stroke-linecap:round;stroke-linejoin:round"></line><line x1="61.3" y1="212.46" x2="92.88" y2="212.46" style="fill:none;stroke:gray;stroke-linecap:round;stroke-linejoin:round"></line><line x1="13.93" y1="212.46" x2="45.51" y2="212.46" style="fill:none;stroke:gray;stroke-linecap:round;stroke-linejoin:round"></line><line x1="77.68" y1="215.97" x2="77.68" y2="228.25" style="fill:none;stroke:gray;stroke-linecap:round;stroke-linejoin:round"></line><line x1="42" y1="217.14" x2="42" y2="229.42" style="fill:none;stroke:gray;stroke-linecap:round;stroke-linejoin:round"></line><line x1="33.23" y1="232.93" x2="87.62" y2="232.93" style="fill:none;stroke:gray;stroke-linecap:round;stroke-linejoin:round"></line><line x1="57.21" y1="237.03" x2="57.21" y2="246.97" style="fill:none;stroke:gray;stroke-linecap:round;stroke-linejoin:round"></line><line x1="18.61" y1="237.03" x2="18.61" y2="246.97" style="fill:none;stroke:gray;stroke-linecap:round;stroke-linejoin:round"></line><line x1="61.3" y1="249.89" x2="92.88" y2="249.89" style="fill:none;stroke:gray;stroke-linecap:round;stroke-linejoin:round"></line><line x1="13.93" y1="249.89" x2="45.51" y2="249.89" style="fill:none;stroke:gray;stroke-linecap:round;stroke-linejoin:round"></line><line x1="77.68" y1="253.4" x2="77.68" y2="265.68" style="fill:none;stroke:gray;stroke-linecap:round;stroke-linejoin:round"></line><line x1="42" y1="254.57" x2="42" y2="266.85" style="fill:none;stroke:gray;stroke-linecap:round;stroke-linejoin:round"></line><line x1="68.6" y1="119" x2="122.99" y2="119" style="fill:none;stroke:gray;stroke-linecap:round;stroke-linejoin:round"></line><line x1="92.58" y1="123.09" x2="92.58" y2="133.04" style="fill:none;stroke:gray;stroke-linecap:round;stroke-linejoin:round"></line><line x1="53.98" y1="123.09" x2="53.98" y2="133.04" style="fill:none;stroke:gray;stroke-linecap:round;stroke-linejoin:round"></line><line x1="96.67" y1="135.96" x2="128.25" y2="135.96" style="fill:none;stroke:gray;stroke-linecap:round;stroke-linejoin:round"></line><line x1="49.3" y1="135.96" x2="80.88" y2="135.96" style="fill:none;stroke:gray;stroke-linecap:round;stroke-linejoin:round"></line><line x1="113.05" y1="139.47" x2="113.05" y2="151.75" style="fill:none;stroke:gray;stroke-linecap:round;stroke-linejoin:round"></line><line x1="77.37" y1="140.64" x2="77.37" y2="152.92" style="fill:none;stroke:gray;stroke-linecap:round;stroke-linejoin:round"></line><line x1="68.6" y1="156.43" x2="122.99" y2="156.43" style="fill:none;stroke:gray;stroke-linecap:round;stroke-linejoin:round"></line><line x1="92.58" y1="160.52" x2="92.58" y2="170.47" style="fill:none;stroke:gray;stroke-linecap:round;stroke-linejoin:round"></line><line x1="53.98" y1="160.52" x2="53.98" y2="170.47" style="fill:none;stroke:gray;stroke-linecap:round;stroke-linejoin:round"></line><line x1="96.67" y1="173.39" x2="128.25" y2="173.39" style="fill:none;stroke:gray;stroke-linecap:round;stroke-linejoin:round"></line><line x1="49.3" y1="173.39" x2="80.88" y2="173.39" style="fill:none;stroke:gray;stroke-linecap:round;stroke-linejoin:round"></line><line x1="113.05" y1="176.9" x2="113.05" y2="189.18" style="fill:none;stroke:gray;stroke-linecap:round;stroke-linejoin:round"></line><line x1="77.37" y1="178.07" x2="77.37" y2="190.35" style="fill:none;stroke:gray;stroke-linecap:round;stroke-linejoin:round"></line></g><g id="freepik--Plant--inject-35"><path d="M462.23,195.65s0-7.14-10-17.12-16.41-15.7-16.41-15.7-5,16.41,4.28,26.4,22.12,19.26,22.12,19.26Z" style="fill:#7E57C2"></path><path d="M447.73,240.2s0-7.14-10-17.12-16.4-15.7-16.4-15.7-5,16.41,4.28,26.4S447.73,253,447.73,253Z" style="fill:#7E57C2"></path><path d="M461.6,207.8s.75-7.1,11.74-16,18-13.88,18-13.88,3.23,16.85-7,25.8-24,16.81-24,16.81Z" style="fill:#7E57C2"></path><path d="M444.09,260.41s1.49-7,13.35-14.65,19.33-11.91,19.33-11.91,1.45,17.09-9.71,24.91S441.4,273,441.4,273Z" style="fill:#7E57C2"></path><path d="M447.38,317.77s0-7.13,10-17.12S473.77,285,473.77,285s5,16.41-4.28,26.39-22.11,19.26-22.11,19.26Z" style="fill:#7E57C2"></path><path d="M447.21,331.77s1-7.06-7.45-18.36-14-17.87-14-17.87-7.27,15.53.49,26.74,19.15,22.2,19.15,22.2Z" style="fill:#7E57C2"></path><path d="M437.37,373.27s0-7.13,10-17.12,16.41-15.69,16.41-15.69,5,16.4-4.28,26.39-22.11,19.26-22.11,19.26Z" style="fill:#7E57C2"></path><path d="M444,410.89s-1.8-6.9,5.33-19.09,11.9-19.34,11.9-19.34,9,14.61,2.54,26.62-16.51,24.23-16.51,24.23Z" style="fill:#7E57C2"></path><path d="M463.13,193.82A201.26,201.26,0,0,1,460.39,216c-3.94,20.39-13.81,33.55-17.76,52S450,310.1,447,333.77s-12.25,36.82-9.61,52.61,17.16,60.94,17.16,60.94" style="fill:none;stroke:#263238;stroke-linecap:round;stroke-linejoin:round"></path><line x1="461.5" y1="212.54" x2="472.26" y2="204.28" style="fill:none;stroke:#263238;stroke-linecap:round;stroke-linejoin:round"></line><line x1="462" y1="203.03" x2="457.49" y2="195.02" style="fill:none;stroke:#263238;stroke-linecap:round;stroke-linejoin:round"></line><path d="M443.23,267.1s9-6.76,18.27-13.52" style="fill:none;stroke:#263238;stroke-linecap:round;stroke-linejoin:round"></path><path d="M447.73,253s-7.51-14.72-16-24.48" style="fill:none;stroke:#263238;stroke-linecap:round;stroke-linejoin:round"></path><path d="M447.73,327.92A111.6,111.6,0,0,1,467,302.14" style="fill:none;stroke:#263238;stroke-linecap:round;stroke-linejoin:round"></path><path d="M446,337.93a125.6,125.6,0,0,0-9.76-18.52c-5.26-7.76-6-8.76-6-8.76" style="fill:none;stroke:#263238;stroke-linecap:round;stroke-linejoin:round"></path><path d="M437.37,386.38A120.22,120.22,0,0,1,445.48,370,105.67,105.67,0,0,1,456,356.2" style="fill:none;stroke:#263238;stroke-linecap:round;stroke-linejoin:round"></path><path d="M447.29,423.31s-1.06-8.54,2.7-15.8,8-16.77,9.76-20.52" style="fill:none;stroke:#263238;stroke-linecap:round;stroke-linejoin:round"></path><path d="M396.83,290.94s-.78-4.47,4.4-11.81,8.59-11.63,8.59-11.63,4.91,9.75.18,17A111.45,111.45,0,0,1,398.22,299Z" style="fill:#7E57C2"></path><path d="M410.75,317.31s-.77-4.48,4.41-11.82,8.58-11.62,8.58-11.62,4.91,9.74.18,17a111.8,111.8,0,0,1-11.77,14.48Z" style="fill:#7E57C2"></path><path d="M398.54,298.5s-1.24-4.37-9.09-8.74S376.67,283,376.67,283s-.2,10.91,7.22,15.41a111.28,111.28,0,0,0,16.89,7.94Z" style="fill:#7E57C2"></path><path d="M415.23,329.59s-1.69-4.21-10-7.74-13.42-5.37-13.42-5.37.95,10.88,8.8,14.57a112.26,112.26,0,0,0,17.63,6.12Z" style="fill:#7E57C2"></path><path d="M419.4,365.92s-.78-4.48-8.13-9.66-12-8.05-12-8.05-1.35,10.83,5.55,16.08a111.39,111.39,0,0,0,16,9.68Z" style="fill:#7E57C2"></path><path d="M421,374.68s-1.4-4.32,2.68-12.33,6.85-12.72,6.85-12.72,6.24,8.95,2.59,16.82a112,112,0,0,1-9.6,16Z" style="fill:#7E57C2"></path><path d="M433.55,410.76s.52-4.51,7.56-10.1,11.51-8.73,11.51-8.73,2,10.74-4.62,16.38a111.77,111.77,0,0,1-15.38,10.57Z" style="fill:#7E57C2"></path><path d="M431.7,399.63s-.77-4.47-8.12-9.65-12-8.06-12-8.06-1.35,10.83,5.55,16.09a112.07,112.07,0,0,0,15.95,9.67Z" style="fill:#7E57C2"></path><path d="M431.6,424s.39-4.53-5.41-11.4-9.56-10.83-9.56-10.83-4.05,10.13,1.29,17a112.14,112.14,0,0,0,13,13.4Z" style="fill:#7E57C2"></path><path d="M396.06,289.9a132.71,132.71,0,0,0,4.12,13.59c4.69,12.36,12.31,19.54,16.78,30.67s0,27.23,4.42,41.74,11.68,21.76,11.74,32-4,38.51-4,38.51" style="fill:none;stroke:#263238;stroke-linecap:round;stroke-linejoin:round"></path><line x1="399.12" y1="301.46" x2="391.47" y2="297.45" style="fill:none;stroke:#263238;stroke-linecap:round;stroke-linejoin:round"></line><line x1="397.77" y1="295.55" x2="399.73" y2="290.04" style="fill:none;stroke:#263238;stroke-linecap:round;stroke-linejoin:round"></line><path d="M416.5,333.69s-6.39-3.26-12.93-6.49" style="fill:none;stroke:#263238;stroke-linecap:round;stroke-linejoin:round"></path><path d="M412.15,325.36s3.11-10.05,7.38-17.09" style="fill:none;stroke:#263238;stroke-linecap:round;stroke-linejoin:round"></path><path d="M420.28,372.32a71.08,71.08,0,0,0-14.89-14.08" style="fill:none;stroke:#263238;stroke-linecap:round;stroke-linejoin:round"></path><path d="M422.46,378.41a80.72,80.72,0,0,1,4.11-12.68c2.46-5.43,2.82-6.14,2.82-6.14" style="fill:none;stroke:#263238;stroke-linecap:round;stroke-linejoin:round"></path><path d="M432.78,415.58s5.06-6.21,8.22-8.54a44,44,0,0,0,5.34-4.64" style="fill:none;stroke:#263238;stroke-linecap:round;stroke-linejoin:round"></path><path d="M433.12,407.85a75.17,75.17,0,0,0-6.87-9.41,67,67,0,0,0-8.08-7.49" style="fill:none;stroke:#263238;stroke-linecap:round;stroke-linejoin:round"></path><path d="M430.91,432.09a19.41,19.41,0,0,0-3.41-9.62c-3.14-4.14-6.84-9.64-8.35-11.81" style="fill:none;stroke:#263238;stroke-linecap:round;stroke-linejoin:round"></path></g><g id="freepik--Oven--inject-35"><path d="M138.13,166.88h8.11a94,94,0,0,1,94,94v107a0,0,0,0,1,0,0H44.13a0,0,0,0,1,0,0v-107a94,94,0,0,1,94-94Z" style="fill:#263238"></path><path d="M234.37,318.11c-2.22-6.06-4.27-11.83-4.77-14.93a25,25,0,0,0-5.36-12,30.51,30.51,0,0,1-.6,9.71c-1.19,5.71-9.53,4.57-9.53,4.57a24.75,24.75,0,0,0,3.57-16c-1.19-9.14-8.34-10.29-8.34-14.86s6.55-3.42,6.55-3.42-1.19-2.29-6.55-3.43-9.53,0-8.94,9.14S196.23,294,196.23,294s-7.15-6.85-7.15-9.71,1.79-8.56,0-16-4.77-10.85-4.77-10.85v6.85c0,4.57-3.57,8-7.74,11.43S173,288.9,173,288.9s-5.36-8-4.77-14.28,8.94-12.56,7.75-22.85-11.32-25.13-14.9-29.7-6-22.28-6-22.28-5.36,14.85-3.57,20.56,6,12,1.79,18.86-13.71,13.71-19.07,20.56S136,286.05,136,286.05s-7.15-13.71-9.53-15.43-11.32-5.14-14.3-9.14,3.57-12.56,3.57-12.56-7.74,3.42-11.32,8.57-3.57,14.85-2.38,20,1.79,9.71,1.79,9.71a14.71,14.71,0,0,0-1.79-4c-1.19-1.71-8.34-6.85-8.34-6.85s1.78,9.14-1.79,13.71a57.66,57.66,0,0,0-5.36,8s-.6-5.71-3.58-9.71-8.34-5.71-8.34-5.71,1.79,7.43,0,12.57-6,5.14-12.52,11.42S58,319.18,58,319.18l-.59.46v28.1h177Z" style="fill:#7E57C2"></path><path d="M145.58,152.38h0c-63.52,0-115,49.36-115,110.25v113.1h230V262.63C260.59,201.74,209.1,152.38,145.58,152.38Zm85.81,195.36H59.77V265.48c0-45.43,38.42-82.26,85.81-82.26h0c47.39,0,85.81,36.83,85.81,82.26Z" style="fill:#ccc;stroke:#263238;stroke-linecap:round;stroke-linejoin:round"></path><path d="M59.77,265.48a79.12,79.12,0,0,1,8.57-35.87l-23.67-19.9a106.13,106.13,0,0,0-14.1,52.92v30.84h29.2Z" style="fill:#9c9c9c;stroke:#263238;stroke-linecap:round;stroke-linejoin:round"></path><path d="M151.54,183.44c29.53,1.95,54.94,18.2,68.75,41.6l22.32-21.62c-19.42-29.18-52.77-49-91.07-50.9Z" style="fill:#9c9c9c;stroke:#263238;stroke-linecap:round;stroke-linejoin:round"></path><path d="M260.59,293.47V262.63a106.34,106.34,0,0,0-16-56.2L222.06,228.2a79.14,79.14,0,0,1,9.33,37.28v28Z" style="fill:#9c9c9c;stroke:#263238;stroke-linecap:round;stroke-linejoin:round"></path><polygon points="231.39 296.9 231.39 347.74 59.77 347.74 59.77 296.9 30.57 296.9 30.57 375.73 260.59 375.73 260.59 296.9 231.39 296.9" style="fill:#9c9c9c;stroke:#263238;stroke-linecap:round;stroke-linejoin:round"></polygon><path d="M70,226.46c14.49-25.74,42.89-43.24,75.55-43.24h0c.8,0,1.59,0,2.38.06V152.41c-.79,0-1.58,0-2.38,0h0c-42.21,0-79.1,21.8-99.1,54.29Z" style="fill:#9c9c9c;stroke:#263238;stroke-linecap:round;stroke-linejoin:round"></path><rect x="30.57" y="346.03" width="76.33" height="29.7" rx="3.25" style="fill:#ccc;stroke:#263238;stroke-linecap:round;stroke-linejoin:round"></rect><rect x="107.41" y="346.03" width="76.33" height="29.7" rx="3.25" style="fill:#ccc;stroke:#263238;stroke-linecap:round;stroke-linejoin:round"></rect><rect x="184.25" y="346.03" width="76.33" height="29.7" rx="3.25" style="fill:#ccc;stroke:#263238;stroke-linecap:round;stroke-linejoin:round"></rect></g><g id="freepik--Character--inject-35"><path d="M203.18,265.64s-12.11-41-17.18-54.27-3.52-27.72-3.13-30.06,5.47-14.45,4.69-17.18-6.64-15.62-7.81-21.48-3.51-5.08-4.68,0,1.17,12.5,1.56,13.67a12.55,12.55,0,0,1,.39,3.12s-14.45-13.28-15.23-14.84-1.95-4.68-1.95-4.68,2.73-13.67,0-12.89-8.2,22.65-8.59,30.85,16.4,29.67,16.4,29.67-2.74,35.53-.39,62.09,6.63,37.87,12.49,45.68,11.71,8.2,14.84,7,10.93-5.86,10.93-5.86Z" style="fill:#ccc;stroke:#263238;stroke-linecap:round;stroke-linejoin:round"></path><path d="M150.08,159.44s4.29-23.43,6.63-26.55,4.69,2,3.52,5.47-2.73,20.3-2.73,20.3" style="fill:#ccc;stroke:#263238;stroke-linecap:round;stroke-linejoin:round"></path><path d="M153.59,148.51s5.47-14.06,8.59-13.67,1.17,7.81-.39,11.32-3.12,10.94-3.12,10.94l2,5.85" style="fill:#ccc;stroke:#263238;stroke-linecap:round;stroke-linejoin:round"></path><path d="M173.5,186a66.14,66.14,0,0,0-.78-10.15c-.78-3.91-15.22-17.18-15.22-17.18s4.29-14.06,2.34-18.74-9.76,19.52-9.76,19.52a9.67,9.67,0,0,0,1.56,7c2.34,3.12,16,21.08,16,21.08" style="fill:#ccc;stroke:#263238;stroke-linecap:round;stroke-linejoin:round"></path><path d="M298.45,256.27s-34.36-16.4-38.66-14-17.57,13.66-17.57,13.66L202,263.69l.78,38.27,39.82,1.17,2.35,3.12.78,2.34s-6.25,53.89-6.25,76.53-9.63,62.09-9.63,62.09h124s39.82-136.27,36.7-140.57-57-37.09-57-37.09Z" style="fill:#263238;stroke:#263238;stroke-linecap:round;stroke-linejoin:round"></path><path d="M249.91,408.16c13.87,8.35,44.44,20.59,103,18.94" style="fill:none;stroke:gray;stroke-linecap:round;stroke-linejoin:round"></path><path d="M240.21,400.78a30.77,30.77,0,0,0,4.75,4.09" style="fill:none;stroke:gray;stroke-linecap:round;stroke-linejoin:round"></path><path d="M258.58,425.61S277,438,318.67,438" style="fill:none;stroke:gray;stroke-linecap:round;stroke-linejoin:round"></path><polygon points="245.86 274.65 242.62 303.13 245.74 308.6 245.86 274.65" style="fill:#263238;stroke:#263238;stroke-linecap:round;stroke-linejoin:round"></polygon><path d="M304.62,407.55c-.13,1.39-.24,2.77-.35,4.16" style="fill:none;stroke:gray;stroke-linecap:round;stroke-linejoin:round"></path><path d="M302,281.26l26.16,13.28S311,349.67,305.26,401.24" style="fill:none;stroke:gray;stroke-linecap:round;stroke-linejoin:round"></path><path d="M302.35,289.27a2.15,2.15,0,1,1-2.14-2.15A2.14,2.14,0,0,1,302.35,289.27Z" style="fill:none;stroke:gray;stroke-linecap:round;stroke-linejoin:round"></path><path d="M322.07,298.83a2.15,2.15,0,1,1-2.14-2.14A2.14,2.14,0,0,1,322.07,298.83Z" style="fill:none;stroke:gray;stroke-linecap:round;stroke-linejoin:round"></path><path d="M294.16,311.72a2.15,2.15,0,1,1-2.15-2.15A2.16,2.16,0,0,1,294.16,311.72Z" style="fill:none;stroke:gray;stroke-linecap:round;stroke-linejoin:round"></path><path d="M313.87,321.28a2.15,2.15,0,1,1-2.14-2.14A2.14,2.14,0,0,1,313.87,321.28Z" style="fill:none;stroke:gray;stroke-linecap:round;stroke-linejoin:round"></path><path d="M288.1,334.56a2.15,2.15,0,1,1-2.14-2.15A2.14,2.14,0,0,1,288.1,334.56Z" style="fill:none;stroke:gray;stroke-linecap:round;stroke-linejoin:round"></path><path d="M307.82,344.13a2.15,2.15,0,1,1-2.15-2.15A2.14,2.14,0,0,1,307.82,344.13Z" style="fill:none;stroke:gray;stroke-linecap:round;stroke-linejoin:round"></path><path d="M283.81,357.21a2.15,2.15,0,1,1-2.15-2.15A2.14,2.14,0,0,1,283.81,357.21Z" style="fill:none;stroke:gray;stroke-linecap:round;stroke-linejoin:round"></path><path d="M303.53,366.77a2.15,2.15,0,1,1-2.15-2.14A2.15,2.15,0,0,1,303.53,366.77Z" style="fill:none;stroke:gray;stroke-linecap:round;stroke-linejoin:round"></path><path d="M279.9,381.42a2.15,2.15,0,1,1-2.14-2.15A2.14,2.14,0,0,1,279.9,381.42Z" style="fill:none;stroke:gray;stroke-linecap:round;stroke-linejoin:round"></path><path d="M299.62,391a2.15,2.15,0,1,1-2.15-2.15A2.15,2.15,0,0,1,299.62,391Z" style="fill:none;stroke:gray;stroke-linecap:round;stroke-linejoin:round"></path><polyline points="252.73 276.53 245.74 308.6 246.13 266.04" style="fill:none;stroke:gray;stroke-linecap:round;stroke-linejoin:round"></polyline><line x1="255.11" y1="265.64" x2="254.15" y2="270.06" style="fill:none;stroke:gray;stroke-linecap:round;stroke-linejoin:round"></line><path d="M300.4,245s-3.12,12.89-3.12,18,1.56,17.18,4.68,18.35,15.23.39,25.38-3.9,20.31-24.21,20.31-24.21l-44.51-16.4Z" style="fill:#fff;stroke:#263238;stroke-linecap:round;stroke-linejoin:round"></path><polygon points="304.31 249.64 303.92 276.58 322.66 263.69 304.31 249.64" style="fill:#ccc;stroke:#263238;stroke-linecap:round;stroke-linejoin:round"></polygon><path d="M314.07,190.29s-14.06,32-15.23,42.17,1.56,25,4.69,28.11,13.27,6.64,16,6.64,23-7.42,26.56-9.77,23.81-37.87,23.81-37.87Z" style="fill:#ccc;stroke:#263238;stroke-linecap:round;stroke-linejoin:round"></path><path d="M326.17,202.78,324.61,209l-11.71,20.3s.78,5.86,4.29,4.69,6.64,4.29,8.59,1.17,1.56-4.69,1.56-4.69" style="fill:none;stroke:#263238;stroke-linecap:round;stroke-linejoin:round"></path><path d="M314.85,234l-3.51,4.68s11.71,6.64,16,6.64,8.2-3.51,8.2-3.51" style="fill:none;stroke:#263238;stroke-linecap:round;stroke-linejoin:round"></path><path d="M339.13,216.59c-1.18,1.93-3,3-4,2.38s-.87-2.69.31-4.62,3-3,4-2.37S340.32,214.66,339.13,216.59Z" style="fill:#263238"></path><path d="M319.7,205.59c-.85,2.1-2.43,3.44-3.53,3s-1.31-2.5-.46-4.6,2.43-3.44,3.53-3S320.54,203.49,319.7,205.59Z" style="fill:#263238"></path><path d="M332.81,219.18s5.08,5.08,9.76,5.47" style="fill:none;stroke:#263238;stroke-linecap:round;stroke-linejoin:round"></path><path d="M320.32,211.37s-6.64.39-9.77-3.12" style="fill:none;stroke:#263238;stroke-linecap:round;stroke-linejoin:round"></path><path d="M357.25,212.93c-1.66,1.65-3.85,4.26-3.35,6.25.78,3.12,1.17,5.86,1.17,5.86l-7.81,12.1,4.29,1.56,10.15-11.32,2.67,1.73c3.21-5.47,5.53-9.54,5.53-9.54Z" style="fill:#263238;stroke:#263238;stroke-linecap:round;stroke-linejoin:round"></path><path d="M352.72,237.14s5.86-11.71,11.33-11.71,3.9,8.2,1.17,13.66-12.11,9-13.28,6.25" style="fill:#ccc;stroke:#263238;stroke-linecap:round;stroke-linejoin:round"></path><path d="M312.51,191.85,369,226.15S399.19,185.6,403.48,177s-9.76-24.21-17.18-32.41-32-9.37-38.26-4.29S314.85,183.26,312.51,191.85Z" style="fill:#263238;stroke:#263238;stroke-linecap:round;stroke-linejoin:round"></path><path d="M314.46,198.88s5.07-5.47,10.15,0" style="fill:none;stroke:#263238;stroke-linecap:round;stroke-linejoin:round;stroke-width:3px"></path><path d="M335.15,206.69s7.42,0,10.16,8.2" style="fill:none;stroke:#263238;stroke-linecap:round;stroke-linejoin:round;stroke-width:3px"></path><path d="M350,337.49l23.18,60.86s7,.39,18,0,23.42-5.08,23.42-5.08-19.24-59.61-18.85-63.91-.43-16.47-2.38-20.77-13.66-10.93-15.62-9.76" style="fill:#263238;stroke:#263238;stroke-linecap:round;stroke-linejoin:round"></path><line x1="369.11" y1="381.52" x2="357.27" y2="338.5" style="fill:none;stroke:gray;stroke-linecap:round;stroke-linejoin:round"></line><line x1="353.23" y1="347.17" x2="350.41" y2="342.86" style="fill:none;stroke:gray;stroke-linecap:round;stroke-linejoin:round"></line><line x1="363.5" y1="362.82" x2="355.68" y2="350.9" style="fill:none;stroke:gray;stroke-linecap:round;stroke-linejoin:round"></line><path d="M373.57,403s-49,23.48-50.91,24.26-17.18,1.18-19.91,1.18-12.11,18.74-12.11,18.74h28.89l2.74-3.91s4.29,1.17,7-.78,7-5.46,7-5.46,72.56-5.51,75.51-25.83c1.09-7.49.17-11.63.17-11.63Z" style="fill:#ccc;stroke:#263238;stroke-linecap:round;stroke-linejoin:round"></path><path d="M304.34,434.64s-7.4,10-7.4,12.24" style="fill:none;stroke:#263238;stroke-linecap:round;stroke-linejoin:round"></path><path d="M311.1,437.22s-5.47,7.08-6.44,10" style="fill:none;stroke:#263238;stroke-linecap:round;stroke-linejoin:round"></path><line x1="316.58" y1="439.8" x2="312.07" y2="447.2" style="fill:none;stroke:#263238;stroke-linecap:round;stroke-linejoin:round"></line><path d="M368.51,388.56c.44,3.32.94,11,1.15,14.41a2,2,0,0,0,1.78,1.83c4.61.41,17.6,1.47,26.16,1.47A81.48,81.48,0,0,0,417,403.39a3.36,3.36,0,0,0,2.5-3.42l-.7-14.92a4.74,4.74,0,0,0-5.1-5l-40.86,3.12A4.74,4.74,0,0,0,368.51,388.56Z" style="fill:#fff;stroke:#263238;stroke-linecap:round;stroke-linejoin:round"></path><path d="M200.45,261.35s-2.74,43.73-.39,45.68,21.47,2.74,22.64-.78,3.52-47.63-.39-48.81S200.45,261.35,200.45,261.35Z" style="fill:#fff;stroke:#263238;stroke-linecap:round;stroke-linejoin:round"></path><path d="M173.34,99.48S150.61,95.82,125,80.28C91.81,60.19,61.23,45.34,49.33,61.47s32.25,35.32,90.22,41.08C154.09,104,173.34,99.48,173.34,99.48Z" style="fill:#fff;stroke:#263238;stroke-linecap:round;stroke-linejoin:round"></path><path d="M149.54,102.16s27.64-3.84,53.74-20.35,59.9-41.07,62.58-20.34-40.69,35.32-67.57,39.92A157.93,157.93,0,0,1,149.54,102.16Z" style="fill:#ccc;stroke:#263238;stroke-linecap:round;stroke-linejoin:round"></path></g><g id="freepik--Table--inject-35"><line x1="11" y1="447.21" x2="486" y2="447.21" style="fill:none;stroke:#263238;stroke-linecap:round;stroke-linejoin:round"></line><polygon points="169.13 458 114.8 458 96.68 426.98 187.24 426.98 169.13 458" style="fill:#8c8c8c;stroke:#263238;stroke-linecap:round;stroke-linejoin:round"></polygon><rect x="91.4" y="422.05" width="99.61" height="7.75" rx="2.54" style="fill:#8c8c8c;stroke:#263238;stroke-linecap:round;stroke-linejoin:round"></rect><path d="M31.1,409.36s-3.66-4.66-7.66-6.66S11.12,399,11.12,399s7.33-1.66,13-.33,9.66,7,9.66,7-1.67-2.33-4-9.32-2.33-22-2.33-22a47.53,47.53,0,0,1,8.33,14A70.16,70.16,0,0,1,39.1,402.7s-.67-11.65,1.33-18.31,7.66-15,7.66-15,.33,14.66-2,22.65-3.33,11.65-3.33,11.65a28.79,28.79,0,0,1,7-11c5-4.66,17-8.65,17-8.65s-5.66,10.32-9.33,13.65-7.32,7-7.32,7,4-3,11-3,15.31,4.66,15.31,4.66-24.31-.34-29,3.66Z" style="fill:#7E57C2;stroke:#263238;stroke-linecap:round;stroke-linejoin:round"></path><line x1="35.63" y1="407.58" x2="31.52" y2="404.74" style="fill:none;stroke:#263238;stroke-linecap:round;stroke-linejoin:round"></line><line x1="40.04" y1="409.79" x2="34.36" y2="394.64" style="fill:none;stroke:#263238;stroke-linecap:round;stroke-linejoin:round"></line><line x1="39.41" y1="411.69" x2="43.2" y2="389.59" style="fill:none;stroke:#263238;stroke-linecap:round;stroke-linejoin:round"></line><line x1="40.04" y1="409.79" x2="50.78" y2="396.54" style="fill:none;stroke:#263238;stroke-linecap:round;stroke-linejoin:round"></line><line x1="37.94" y1="408.44" x2="53.62" y2="404.43" style="fill:none;stroke:#263238;stroke-linecap:round;stroke-linejoin:round"></line><path d="M59,461.42H25.75l-1.5-12.08a112.82,112.82,0,0,1-.15-26.55L25.75,408H59l1.64,14.44A112.57,112.57,0,0,1,60.57,449Z" style="fill:#263238"></path><polyline points="61.25 438.74 56.26 408.44 49.6 460.72 37.94 408.44 30.95 461.38 25.75 408.04" style="fill:#263238;stroke:#fff;stroke-linecap:round;stroke-linejoin:round"></polyline><path d="M59,461.42H25.75l-1.5-12.08a112.82,112.82,0,0,1-.15-26.55L25.75,408H59l1.64,14.44A112.57,112.57,0,0,1,60.57,449Z" style="fill:none;stroke:#263238;stroke-linecap:round;stroke-linejoin:round"></path><path d="M426.55,438.12s-5.57-5.12-8.27,1.54-.39,18,1.73,20.88,7,1.41,7,1.41a6.18,6.18,0,0,0,3.9,1.13,17.4,17.4,0,0,0,3.16-.47s3.94.74,6.16-2.12,5.78-16.35,2.62-20.87-8.23-1.14-8.23-1.14S431.32,434.72,426.55,438.12Z" style="fill:#8c8c8c;stroke:#263238;stroke-linecap:round;stroke-linejoin:round"></path><path d="M426.55,438.12a4.75,4.75,0,0,0-2.08,3.42" style="fill:none;stroke:#263238;stroke-linecap:round;stroke-linejoin:round"></path><path d="M434.58,438.48a7.65,7.65,0,0,1,1.74,4.36" style="fill:none;stroke:#263238;stroke-linecap:round;stroke-linejoin:round"></path><line x1="424.2" y1="460.16" x2="426.97" y2="461.95" style="fill:none;stroke:#263238;stroke-linecap:round;stroke-linejoin:round"></line><path d="M434,462.61a8.12,8.12,0,0,0,1.69-3.65" style="fill:none;stroke:#263238;stroke-linecap:round;stroke-linejoin:round"></path><polygon points="430.8 436.25 433.05 430.1 435.29 430 432.48 437.11 430.8 436.25" style="fill:#263238;stroke:#263238;stroke-linecap:round;stroke-linejoin:round"></polygon><path d="M398.61,442.51s-5.12-3.64-7.06,1.61.71,13.86,2.72,16,5.32.63,5.32.63a9.58,9.58,0,0,0,4.23.75,15.9,15.9,0,0,0,2.71-.53s3.46.37,5.21-1.95,4.05-12.87,1.05-16.17-7.2-.45-7.2-.45S402.55,439.65,398.61,442.51Z" style="fill:#fff;stroke:#263238;stroke-linecap:round;stroke-linejoin:round"></path><path d="M398.61,442.51a3.6,3.6,0,0,0-1.59,2.74" style="fill:none;stroke:#263238;stroke-linecap:round;stroke-linejoin:round"></path><path d="M405.59,442.37a5.68,5.68,0,0,1,1.76,3.26" style="fill:none;stroke:#263238;stroke-linecap:round;stroke-linejoin:round"></path><line x1="397.88" y1="459.58" x2="399.59" y2="460.72" style="fill:none;stroke:#263238;stroke-linecap:round;stroke-linejoin:round"></line><path d="M406.53,460.94s2.36-.42,2.58-2.14" style="fill:none;stroke:#263238;stroke-linecap:round;stroke-linejoin:round"></path><polygon points="402.19 440.85 399.82 435.69 401.75 435.5 403.69 441.42 402.19 440.85" style="fill:#263238;stroke:#263238;stroke-linecap:round;stroke-linejoin:round"></polygon><path d="M452.61,442.51s-5.12-3.64-7.06,1.61.71,13.86,2.72,16,5.32.63,5.32.63a9.58,9.58,0,0,0,4.23.75,15.9,15.9,0,0,0,2.71-.53s3.46.37,5.21-1.95,4.05-12.87,1.05-16.17-7.2-.45-7.2-.45S456.55,439.65,452.61,442.51Z" style="fill:#fff;stroke:#263238;stroke-linecap:round;stroke-linejoin:round"></path><path d="M452.61,442.51a3.6,3.6,0,0,0-1.59,2.74" style="fill:none;stroke:#263238;stroke-linecap:round;stroke-linejoin:round"></path><path d="M459.59,442.37a5.68,5.68,0,0,1,1.76,3.26" style="fill:none;stroke:#263238;stroke-linecap:round;stroke-linejoin:round"></path><line x1="451.88" y1="459.58" x2="453.59" y2="460.72" style="fill:none;stroke:#263238;stroke-linecap:round;stroke-linejoin:round"></line><path d="M460.53,460.94s2.36-.42,2.58-2.14" style="fill:none;stroke:#263238;stroke-linecap:round;stroke-linejoin:round"></path><polygon points="456.19 440.85 453.82 435.69 455.75 435.5 457.69 441.42 456.19 440.85" style="fill:#263238;stroke:#263238;stroke-linecap:round;stroke-linejoin:round"></polygon><path d="M396.37,470.17a4.34,4.34,0,1,1-4.34-4.34A4.33,4.33,0,0,1,396.37,470.17Z" style="fill:#7E57C2;stroke:#263238;stroke-linecap:round;stroke-linejoin:round"></path><path d="M408.37,470.5a4.34,4.34,0,1,1-4.34-4.33A4.33,4.33,0,0,1,408.37,470.5Z" style="fill:#7E57C2;stroke:#263238;stroke-linecap:round;stroke-linejoin:round"></path><path d="M430,470.5a4.33,4.33,0,1,1-4.33-4.33A4.33,4.33,0,0,1,430,470.5Z" style="fill:#7E57C2;stroke:#263238;stroke-linecap:round;stroke-linejoin:round"></path><path d="M420,471.5a4.33,4.33,0,1,1-4.33-4.33A4.33,4.33,0,0,1,420,471.5Z" style="fill:#7E57C2;stroke:#263238;stroke-linecap:round;stroke-linejoin:round"></path><circle cx="377.37" cy="471.5" r="4.33" style="fill:#7E57C2;stroke:#263238;stroke-linecap:round;stroke-linejoin:round"></circle><circle cx="408.87" cy="475.5" r="4.33" style="fill:#7E57C2;stroke:#263238;stroke-linecap:round;stroke-linejoin:round"></circle><path d="M442,473.5a4.33,4.33,0,1,1-4.33-4.33A4.33,4.33,0,0,1,442,473.5Z" style="fill:#7E57C2;stroke:#263238;stroke-linecap:round;stroke-linejoin:round"></path><path d="M401.37,473.83A4.34,4.34,0,1,1,397,469.5,4.34,4.34,0,0,1,401.37,473.83Z" style="fill:#7E57C2;stroke:#263238;stroke-linecap:round;stroke-linejoin:round"></path><path d="M392.37,461.17a4.34,4.34,0,1,1-4.34-4.34A4.33,4.33,0,0,1,392.37,461.17Z" style="fill:#7E57C2;stroke:#263238;stroke-linecap:round;stroke-linejoin:round"></path><path d="M392.76,467.19s3-1.65,4.31-2.65,2.32-1.82,2.32-1.82l1.66,1.66c.66.66,2.32,2.15,2.32,2.15" style="fill:none;stroke:#263238;stroke-linecap:round;stroke-linejoin:round"></path><path d="M397.4,471.34a12.81,12.81,0,0,1,1.16-2.82c.83-1.49.83-5.8.83-5.8a59.48,59.48,0,0,0,9.46,1c4.31,0,8.79-1.16,11.77-1.66a14.67,14.67,0,0,1,5.8.34l-.33,5.3" style="fill:none;stroke:#263238;stroke-linecap:round;stroke-linejoin:round"></path><path d="M426.42,462.39a65.45,65.45,0,0,0,5.81,3.48c1,.33,6.47,4,6.47,4" style="fill:none;stroke:#263238;stroke-linecap:round;stroke-linejoin:round"></path><line x1="414.32" y1="463.71" x2="415.81" y2="468.52" style="fill:none;stroke:#263238;stroke-linecap:round;stroke-linejoin:round"></line><path d="M73.27,463.59c-2.63-.24-9.34-4.55-9.34-4.55l0,.29a13.83,13.83,0,0,0-5.85-1.26c-6.28,0-11.38,3.93-11.38,8.79s5.1,8.78,11.38,8.78a13.42,13.42,0,0,0,7.54-2.21c2.16-1.06,5.87-2.76,7.67-2.89,2.63-.2,9.34,0,9.34,0v-7S75.9,463.83,73.27,463.59Z" style="fill:#fff;stroke:#263238;stroke-linecap:round;stroke-linejoin:round"></path><path d="M179.09,463.59c2.63-.24,9.34-4.55,9.34-4.55l0,.29a13.78,13.78,0,0,1,5.84-1.26c6.28,0,11.38,3.93,11.38,8.79s-5.1,8.78-11.38,8.78a13.44,13.44,0,0,1-7.54-2.21c-2.16-1.06-5.87-2.76-7.67-2.89-2.63-.2-9.34,0-9.34,0v-7S176.46,463.83,179.09,463.59Z" style="fill:#fff;stroke:#263238;stroke-linecap:round;stroke-linejoin:round"></path><rect x="78.14" y="456.68" width="96.67" height="20.35" style="fill:#fff;stroke:#263238;stroke-linecap:round;stroke-linejoin:round"></rect></g></svg>
