<svg xmlns="http://www.w3.org/2000/svg" viewBox="0 0 500 500"><g id="freepik--background-simple--inject-39"><path d="M467.6,251.91c-4.93,41.8-24,90.41-62.14,112.73-57.59,33.75-52.77,85.64-165.19,108.2a231.3,231.3,0,0,1-49.85,4.71,194.65,194.65,0,0,1-24.46-2C94.51,465.12,46.43,415.46,28.79,355.5,5.58,276.66,51.93,225,82.65,193.94s53.23-128,163.57-151A223.75,223.75,0,0,1,297.45,38c39.26,1,82.08,13.86,111.71,40.76q3.33,3,6.5,6.28C456.84,127.33,474.34,194.92,467.6,251.91Z" style="fill:#7E57C2"></path><path d="M467.6,251.91c-4.93,41.8-24,90.41-62.14,112.73-57.59,33.75-52.77,85.64-165.19,108.2a231.3,231.3,0,0,1-49.85,4.71,194.65,194.65,0,0,1-24.46-2C94.51,465.12,46.43,415.46,28.79,355.5,5.58,276.66,51.93,225,82.65,193.94s53.23-128,163.57-151A223.75,223.75,0,0,1,297.45,38c39.26,1,82.08,13.86,111.71,40.76q3.33,3,6.5,6.28C456.84,127.33,474.34,194.92,467.6,251.91Z" style="fill:#fff;opacity:0.7000000000000001"></path></g><g id="freepik--Lettuce--inject-39"><path d="M73.1,402.58s5.85,3.2,2.9,21.51-2.42,22.27,2.07,20.37a10.27,10.27,0,0,0,5.66-6.3s-.07,7.86,4.7,6.26a5.83,5.83,0,0,0,4-6.43s5.5,12.21,10.28,8.93,4-5.87,2-10.23-9.13-13.9-9.13-13.9,9.76,5.52,15.59,10.75,11.68,9.88,14.51,6.17-4.66-12.44-4.66-12.44,8.66,3.2,8.7-1.85-5-8.25-5-8.25,8.11.35,4.52-5.83-12.82-6.6-12.82-6.6a4.48,4.48,0,0,0-4.46-3.15c-3.63,0-12.89,2.37-12.89,2.37s10.12-5.39,16.29-7.16,1.77-10-.75-9.89a21.53,21.53,0,0,0-5.61,1.25s2.85-6.52-1.35-6.56-6.17,1.21-6.17,1.21.31-4.19-2.77-3-5.92,3.75-8.18,6.95-6.23,7.94-6.23,7.94a10.77,10.77,0,0,1-7.84,1.08l-4.19-1.16-2.82,2Z" style="fill:#7E57C2;stroke:#263238;stroke-linecap:round;stroke-linejoin:round"></path><path d="M113.62,415.31a54.14,54.14,0,0,1,6.1,3.72" style="fill:#7E57C2;stroke:#263238;stroke-linecap:round;stroke-linejoin:round"></path><path d="M75.07,401.55s13.37,8.33,22.6,8.76a36.48,36.48,0,0,1,13.15,3.61" style="fill:#7E57C2;stroke:#263238;stroke-linecap:round;stroke-linejoin:round"></path><path d="M88,418c-1.58-5.15-2.81-8.12-5.41-10.51" style="fill:#7E57C2;stroke:#263238;stroke-linecap:round;stroke-linejoin:round"></path><path d="M96.63,435.22s-4.73-4-7.18-12.34l-.6-2.05" style="fill:#7E57C2;stroke:#263238;stroke-linecap:round;stroke-linejoin:round"></path><path d="M90.51,398.35a12,12,0,0,0,1.39-1.12c4.8-4.4,8.75-8,12.95-8.55" style="fill:#7E57C2;stroke:#263238;stroke-linecap:round;stroke-linejoin:round"></path><path d="M81,401.16a16,16,0,0,0,6.17-1" style="fill:#7E57C2;stroke:#263238;stroke-linecap:round;stroke-linejoin:round"></path><path d="M57.34,276.37s-1-5.23,11.86-12.62,15-9.71,11.59-11.54a8.19,8.19,0,0,0-6.75-.33s4.9-3.92,1.51-6.07a4.65,4.65,0,0,0-6,.77s4.8-9.55.36-10.87-5.64.5-7.37,3.88-4,12.66-4,12.66-1.49-8.83-1.19-15.08.25-12.21-3.48-12.1-5.36,9.15-5.36,9.15-2.38-7-5.53-4.45S40.36,237,40.36,237s-3.87-5.2-5.89.13,2.36,11.27,2.36,11.27a3.58,3.58,0,0,0,.29,4.35c1.84,2.25,8,6.8,8,6.8s-8.44-3.56-12.65-6.5S25.37,257,26.7,258.5a17,17,0,0,0,3.6,2.85s-5.48,1.51-3.39,4.14a9.56,9.56,0,0,0,3.85,3.21s-2.75,1.91-.47,3.24a15,15,0,0,0,8.42,1.57c3.12-.2,8.06-.14,8.06-.14a8.66,8.66,0,0,1,4.62,4.32l1.39,3.18,2.67.73Z" style="fill:#7E57C2;stroke:#263238;stroke-linecap:round;stroke-linejoin:round"></path><path d="M44.82,244.85a44.85,44.85,0,0,1-.76-5.65" style="fill:#7E57C2;stroke:#263238;stroke-linecap:round;stroke-linejoin:round"></path><path d="M55.7,275.67s-1.56-12.48-6-18.42a29.4,29.4,0,0,1-4.38-10" style="fill:#7E57C2;stroke:#263238;stroke-linecap:round;stroke-linejoin:round"></path><path d="M59.37,259.4C57,263,55.76,265.23,55.59,268" style="fill:#7E57C2;stroke:#263238;stroke-linecap:round;stroke-linejoin:round"></path><path d="M65.72,245.36a21.54,21.54,0,0,1-4,10.66l-1,1.41" style="fill:#7E57C2;stroke:#263238;stroke-linecap:round;stroke-linejoin:round"></path><path d="M46,267.71c-.45-.12-.91-.22-1.4-.3-5.14-.75-9.38-1.37-11.82-3.72" style="fill:#7E57C2;stroke:#263238;stroke-linecap:round;stroke-linejoin:round"></path><path d="M52.5,272.22a12.65,12.65,0,0,0-3.73-3.3" style="fill:#7E57C2;stroke:#263238;stroke-linecap:round;stroke-linejoin:round"></path></g><g id="freepik--Dish--inject-39"><circle cx="226.82" cy="272.98" r="158.29" transform="translate(-126.59 240.34) rotate(-45)" style="fill:#263238"></circle><circle cx="226.82" cy="272.98" r="105.24" transform="translate(-126.59 240.34) rotate(-45)" style="fill:none;stroke:#8a8a8a;stroke-miterlimit:10"></circle></g><g id="freepik--tomatoes-2--inject-39"><circle cx="440.87" cy="255.93" r="21.14" style="fill:#bfbfbf;stroke:#263238;stroke-miterlimit:10"></circle><path d="M442.91,246.62s-2.77-4.79-3.88-3.21,1,4,.66,5.44-5,1.69-4.43,3.26,5.61,3.82,5.61,3.82-.25,3,.87,3.11,3.53-3.67,3.53-3.67,2.75,1.47,3.77-.65-2-2.15-2-3.54,2.73-1.86,2.22-3.16S443.87,249,442.91,246.62Z" style="fill:#7E57C2;stroke:#263238;stroke-miterlimit:10"></path><path d="M443.08,250.76s5.62-18.74,12.41-26,8.48-8.69,11-7.18,1.05,2.87-.25,3.38-13.17,5.62-20.91,31.38C445.29,252.31,440.89,252.52,443.08,250.76Z" style="fill:#7E57C2;stroke:#263238;stroke-miterlimit:10"></path><circle cx="416.55" cy="312.12" r="21.14" transform="translate(-87.05 180.5) rotate(-22.2)" style="fill:#bfbfbf;stroke:#263238;stroke-miterlimit:10"></circle><path d="M419.89,304.67s-8.75-3.29-7.39-.28,3.56.82,2.74,3.83-1.64,5.74-.55,6S418,309,418.52,311s1.37,6,2.73,3.82-.27-5.47.55-5.47,6.56,2.19,5.74-1.91-3.82-2.19-4.65-2.46,0-5.2-2.18-4.38S419.89,304.67,419.89,304.67Z" style="fill:#7E57C2;stroke:#263238;stroke-miterlimit:10"></path><path d="M420.59,306.15s-9.57,1.36-13.4,8.75a61.82,61.82,0,0,0-5.74,15c-.27,1.64,1.64,3,2.46,1.91s3.56-11.21,5.47-15,2.27-5,6.15-6.88S421.9,307.53,420.59,306.15Z" style="fill:#7E57C2;stroke:#263238;stroke-miterlimit:10"></path><circle cx="390.93" cy="235.81" r="21.14" transform="translate(-60.12 165.17) rotate(-22.2)" style="fill:#bfbfbf;stroke:#263238;stroke-miterlimit:10"></circle><path d="M394.27,228.36s-8.75-3.28-7.39-.27,3.56.82,2.74,3.83-1.64,5.74-.55,6,3.28-5.19,3.83-3.28,1.37,6,2.73,3.83-.27-5.47.55-5.47,6.56,2.19,5.74-1.91-3.82-2.19-4.65-2.46,0-5.2-2.18-4.38S394.27,228.36,394.27,228.36Z" style="fill:#7E57C2;stroke:#263238;stroke-miterlimit:10"></path><path d="M395,229.84s-9.57,1.37-13.4,8.75a61.52,61.52,0,0,0-5.74,15c-.27,1.64,1.64,3,2.46,1.92s3.56-11.22,5.47-15,2.27-5,6.15-6.88S396.28,231.23,395,229.84Z" style="fill:#7E57C2;stroke:#263238;stroke-miterlimit:10"></path></g><g id="freepik--tomatoes-1--inject-39"><path d="M97.34,283.46s-23-9.39-41.6,13.21,2.39,51.93,2.39,51.93,10.44-5,21.74-16.3,28.3-30.88,30.3-36.2S97.34,283.46,97.34,283.46Z" style="fill:#7E57C2;stroke:#263238;stroke-linecap:round;stroke-linejoin:round"></path><path d="M84.36,324.72S70.05,309,61.63,309,51,319.11,53.49,330.89s8.14,13.19,9.26,13.19S80.43,331.46,84.36,324.72Z" style="opacity:0.34"></path><path d="M86.32,322.48S79,313.22,74.82,304,73.13,289.09,81,285.72s23.57,7,26.37,8.7l.84,2.25S91.09,318,86.32,322.48Z" style="opacity:0.34"></path><path d="M69.21,318.55s-7.58-1.12-9.26,3.09S68.93,321.92,69.21,318.55Z" style="fill:#7E57C2;stroke:#263238;stroke-linecap:round;stroke-linejoin:round"></path><path d="M72,322.2s-6.73,2.8-6.73,7S72.57,328.37,72,322.2Z" style="fill:#7E57C2;stroke:#263238;stroke-linecap:round;stroke-linejoin:round"></path><path d="M85.2,297.79A6.11,6.11,0,0,0,81,302a12.09,12.09,0,0,0,.56,6.73S87.16,304,85.2,297.79Z" style="fill:#7E57C2;stroke:#263238;stroke-linecap:round;stroke-linejoin:round"></path><path d="M91.09,305.92a5,5,0,0,0-3.65,2.25,7.27,7.27,0,0,0-1.68,4.77C85.76,313.78,91.65,312.66,91.09,305.92Z" style="fill:#7E57C2;stroke:#263238;stroke-linecap:round;stroke-linejoin:round"></path><path d="M172.54,392.29s18.74-16.3,6.93-43.1S132,328,132,328s-.23,11.57,4.78,26.75,14.82,39.18,18.68,43.35S172.54,392.29,172.54,392.29Z" style="fill:#7E57C2;stroke:#263238;stroke-linecap:round;stroke-linejoin:round"></path><path d="M171,390.2s18.74-16.3,6.94-43.09-47.45-21.25-47.45-21.25-.23,11.58,4.77,26.75,14.83,39.18,18.68,43.35S171,390.2,171,390.2Z" style="fill:#7E57C2;stroke:#263238;stroke-linecap:round;stroke-linejoin:round"></path><path d="M140,360s20.47-5.7,24.26-13.22S160,332.74,148.35,329.7,132.92,331,132.41,332,135.73,353.49,140,360Z" style="opacity:0.34"></path><path d="M141.09,362.8s11.56-2.35,21.72-1.94,14,5.19,13.5,13.72-16.87,17.89-19.63,19.64l-2.39-.26S143,369.08,141.09,362.8Z" style="opacity:0.34"></path><path d="M152.31,349.28s4.41-6.26,1.41-9.66S149.43,347.52,152.31,349.28Z" style="fill:#7E57C2;stroke:#263238;stroke-linecap:round;stroke-linejoin:round"></path><path d="M147.79,350.15s.52-7.28-3.24-9.17S142,347.87,147.79,350.15Z" style="fill:#7E57C2;stroke:#263238;stroke-linecap:round;stroke-linejoin:round"></path><path d="M163.65,372.91a6.12,6.12,0,0,0-1.87-5.65,12,12,0,0,0-6.26-2.53S157.25,371.88,163.65,372.91Z" style="fill:#7E57C2;stroke:#263238;stroke-linecap:round;stroke-linejoin:round"></path><path d="M153.73,374.51a5,5,0,0,0-.36-4.27,7.27,7.27,0,0,0-3.51-3.65C149.11,366.21,147.46,372,153.73,374.51Z" style="fill:#7E57C2;stroke:#263238;stroke-linecap:round;stroke-linejoin:round"></path></g><g id="freepik--Sauce--inject-39"><circle cx="362.92" cy="126.74" r="47.39" style="fill:#fff;stroke:#263238;stroke-miterlimit:10"></circle><circle cx="359.17" cy="115.11" r="55.31" style="fill:#fff;stroke:#263238;stroke-miterlimit:10"></circle><circle cx="359.17" cy="115.11" r="41.92" transform="translate(163.23 437.39) rotate(-76.47)" style="fill:#263238"></circle><path d="M375.52,88.05s14.53-21.41,21.41-39.76c2.45-6.54,3.09-14.65,8-20.12,5.34-5.92,14.8-4.27,15.7,4,.5,4.64-1.49,8.13-5.14,13-5.11,6.79-15.43,15.79-19.86,23.08-7.85,12.9-13,20.16-15.18,23.12a3.78,3.78,0,0,1-4.22,1.43C374.93,92.33,374,91.11,375.52,88.05Z" style="fill:#7E57C2;stroke:#263238;stroke-linecap:round;stroke-linejoin:round"></path><path d="M408.53,29.84s5.91-2.68,7.25,4.57" style="fill:none;stroke:#263238;stroke-linecap:round;stroke-linejoin:round"></path></g><g id="freepik--Shawarma--inject-39"><path d="M254.17,437s27.89-.71,50.78-34.33c0,0-6.44-28.61-12.16-29.32s-23.6,25-30.75,39.33S254.17,437,254.17,437Z" style="fill:#fff;stroke:#263238;stroke-miterlimit:10"></path><path d="M196.39,133A346.2,346.2,0,0,0,189,166.88c-3.71,21.18-2.65,47.66-1.06,51.89s7.94,5.83,11.12,4.77,3.18-2.65,3.7-23.83.53-30.71,6.36-46.6,3.71-22.77-.53-26.48S200.63,121.34,196.39,133Z" style="fill:#d6d6d6;stroke:#263238;stroke-miterlimit:10"></path><path d="M209.1,138.28a93.52,93.52,0,0,0-9.53,32.31c-2.12,19.06,3.34,37.43.61,43.07a6.28,6.28,0,0,1-8,3.53" style="fill:#fff;stroke:#263238;stroke-miterlimit:10"></path><path d="M234.41,200.58s-2.13-7.14,15.91-18.83,21-15.15,15.63-17.3a12.9,12.9,0,0,0-10,.31s6.75-6,1.43-8.58a7.16,7.16,0,0,0-8.77,1.75s5.85-13.79-.91-15.11-8.29,1.33-10.41,6.22S233,167,233,167s-3.38-12.06-3.77-20.75-1.26-17-6.76-16.37-6.73,13.28-6.73,13.28-4.45-9.39-8.79-5.55S204,148,204,148s-6.44-6.78-8.72.84,5,15.35,5,15.35a4.73,4.73,0,0,0,1,6c3,2.92,12.72,8.52,12.72,8.52s-13-4-19.62-7.56-10,6.24-7.79,8.19a25.67,25.67,0,0,0,5.72,3.54s-7.92,2.72-4.48,6.12,6.15,4,6.15,4-3.83,3-.28,4.55,8.1,1.86,12.7,1.22,11.93-1.11,11.93-1.11a13,13,0,0,1,7.42,5.47l1.77,3a3,3,0,0,0,2.1,1.45h0a3,3,0,0,0,3.41-2.15Z" style="fill:#7E57C2;stroke:#263238;stroke-linecap:round;stroke-linejoin:round"></path><path d="M211.66,158.32a57.1,57.1,0,0,1-1.88-7.74" style="fill:#7E57C2;stroke:#263238;stroke-linecap:round;stroke-linejoin:round"></path><path d="M231.9,199.8s-4-17.12-11.28-24.85a40.51,40.51,0,0,1-7.82-13.31" style="fill:#7E57C2;stroke:#263238;stroke-linecap:round;stroke-linejoin:round"></path><path d="M235.17,176.83c-3.07,5.22-4.58,8.49-4.46,12.41" style="fill:#7E57C2;stroke:#263238;stroke-linecap:round;stroke-linejoin:round"></path><path d="M242.71,156.66s.49,6.88-4.57,15.24l-1.25,2" style="fill:#7E57C2;stroke:#263238;stroke-linecap:round;stroke-linejoin:round"></path><path d="M216.37,189.87a19.43,19.43,0,0,0-2.1-.26c-7.73-.46-14.09-.84-18-3.82" style="fill:#7E57C2;stroke:#263238;stroke-linecap:round;stroke-linejoin:round"></path><path d="M226.69,195.38a19.22,19.22,0,0,0-6-4.16" style="fill:#7E57C2;stroke:#263238;stroke-linecap:round;stroke-linejoin:round"></path><path d="M188.34,203.28s-7.45-.11-13.2-20.82-8.17-24.55-11.82-20.1a13,13,0,0,0-2.72,9.69s-3.68-8.23-7.76-3.94a7.17,7.17,0,0,0-1,8.9s-11.41-9.71-14.69-3.66-1.22,8.31,2.81,11.8,15.88,9.46,15.88,9.46S143.37,194.22,135,192s-16.55-3.88-17.64,1.55S128,203.94,128,203.94s-10.29,1.44-7.93,6.72,9,5.86,9,5.86-8.39,4.11-1.81,8.57,16.15-.17,16.15-.17a4.72,4.72,0,0,0,6,.83c3.69-2,11.94-9.58,11.94-9.58s-7.68,11.2-13.09,16.45,3,11.36,5.48,9.89a25.75,25.75,0,0,0,5.09-4.4s.22,8.37,4.5,6.1,5.67-4.66,5.67-4.66,1.68,4.54,4.25,1.63,4.2-7.17,5-11.75,2.52-11.71,2.52-11.71a13,13,0,0,1,7.44-5.45l4.8-1.09,1.88-3.67Z" style="fill:#7E57C2;stroke:#263238;stroke-linecap:round;stroke-linejoin:round"></path><path d="M167.42,194.91s-7.46-.11-13.2-20.82S146,149.54,142.39,154a13,13,0,0,0-2.72,9.69s-3.68-8.23-7.75-3.94a7.17,7.17,0,0,0-1,8.9s-11.4-9.71-14.69-3.66-1.21,8.31,2.82,11.8S135,186.24,135,186.24s-12.52-.39-20.93-2.62-16.55-3.87-17.65,1.55S107,195.57,107,195.57s-10.29,1.44-7.92,6.72,9,5.86,9,5.86-8.39,4.11-1.8,8.57,16.14-.17,16.14-.17a4.73,4.73,0,0,0,6,.83c3.69-2,11.94-9.58,11.94-9.58s-7.69,11.2-13.1,16.45,3,11.36,5.49,9.89a26.08,26.08,0,0,0,5.09-4.4s.22,8.37,4.49,6.1,5.68-4.66,5.68-4.66,1.68,4.54,4.25,1.63,4.2-7.17,5-11.75,2.51-11.71,2.51-11.71a13,13,0,0,1,7.44-5.45l4.8-1.09,1.89-3.67Z" style="fill:#7E57C2;stroke:#263238;stroke-linecap:round;stroke-linejoin:round"></path><path d="M141.21,212.33a56.51,56.51,0,0,1-8-.53" style="fill:#7E57C2;stroke:#263238;stroke-linecap:round;stroke-linejoin:round"></path><path d="M186.84,205.44s-17.52-1.32-27.09,3.32a40.18,40.18,0,0,1-15,3.47" style="fill:#7E57C2;stroke:#263238;stroke-linecap:round;stroke-linejoin:round"></path><path d="M165.91,195.44c4.06,4.5,6.72,6.91,10.5,8" style="fill:#7E57C2;stroke:#263238;stroke-linecap:round;stroke-linejoin:round"></path><path d="M148.93,182.21s6.7,1.58,13.16,8.92l1.59,1.81" style="fill:#7E57C2;stroke:#263238;stroke-linecap:round;stroke-linejoin:round"></path><path d="M172.72,217.28a20.13,20.13,0,0,0-.88,1.93c-2.75,7.24-5,13.19-9,16" style="fill:#7E57C2;stroke:#263238;stroke-linecap:round;stroke-linejoin:round"></path><path d="M181.07,209.09a18.86,18.86,0,0,0-5.76,4.46" style="fill:#7E57C2;stroke:#263238;stroke-linecap:round;stroke-linejoin:round"></path><path d="M253.3,176.94s-6.7-3.14-4.68-23.62,1.16-24.84-3.69-22.43a11.38,11.38,0,0,0-5.83,7.37s-.46-8.71-5.64-6.61-4,7.4-4,7.4-6.92-13.16-12-9.2-4,6.78-1.57,11.47S227,156.1,227,156.1s-11.18-5.46-18-10.84-13.61-10.16-16.49-5.85,6,13.45,6,13.45-9.8-2.94-9.5,2.65,6.07,8.8,6.07,8.8-9,.17-4.62,6.76,14.66,6.44,14.66,6.44a5,5,0,0,0,5.15,3.19c4-.25,14.12-3.51,14.12-3.51s-10.85,6.67-17.56,9.05-1.27,11.17,1.51,10.9a23.72,23.72,0,0,0,6.13-1.77s-2.72,7.41,1.94,7.17,6.75-1.76,6.75-1.76-.06,4.66,3.28,3.16,6.29-4.56,8.58-8.26,6.35-9.22,6.35-9.22a12,12,0,0,1,8.62-1.73l4.72,1,3-2.44Z" style="fill:#7E57C2;stroke:#263238;stroke-linecap:round;stroke-linejoin:round"></path><path d="M207.55,165.61a61.32,61.32,0,0,1-7-3.7" style="fill:#7E57C2;stroke:#263238;stroke-linecap:round;stroke-linejoin:round"></path><path d="M251.19,178.22s-15.38-8.32-25.63-8.16a40.76,40.76,0,0,1-14.81-3.1" style="fill:#7E57C2;stroke:#263238;stroke-linecap:round;stroke-linejoin:round"></path><path d="M235.76,160.92c2.1,5.59,3.67,8.79,6.71,11.26" style="fill:#7E57C2;stroke:#263238;stroke-linecap:round;stroke-linejoin:round"></path><path d="M225,142.4s5.51,4.12,8.8,13.18c.28.78.55,1.52.8,2.23" style="fill:#7E57C2;stroke:#263238;stroke-linecap:round;stroke-linejoin:round"></path><path d="M234.3,182.82a15,15,0,0,0-1.46,1.33c-5,5.21-9.14,9.49-13.76,10.36" style="fill:#7E57C2;stroke:#263238;stroke-linecap:round;stroke-linejoin:round"></path><path d="M244.7,179.05a17.73,17.73,0,0,0-6.76,1.55" style="fill:#7E57C2;stroke:#263238;stroke-linecap:round;stroke-linejoin:round"></path><path d="M172.7,214.32S152,187.61,152,182.46s9.61-35,15.1-31.22,22.64,36.37,21.27,49.4S179,219.07,172.7,214.32Z" style="fill:#919191;stroke:#263238;stroke-miterlimit:10"></path><path d="M166.78,156.38s-7.2,21.62-4.46,26.08,9.27,26.08,12.36,27.11,6.51,2.05,8.57-3.78" style="fill:#919191;stroke:#263238;stroke-miterlimit:10"></path><path d="M172.27,195.28s-.43,2.58-6.47,8-22.79,8.34-16.43,22.44,18.88,27.17,23.84,15.43,3.53-30,7.86-32.09,17.85-.27,21.67-9.38-6.43-27-16.13-20.43A46.44,46.44,0,0,0,172.27,195.28Z" style="fill:#fff;stroke:#263238;stroke-miterlimit:10"></path><path d="M180.14,244.63s-7.87-27.89-7.87-49.35-2.14-39.33,2.86-41.48,10-3.57,12.88-1.43,1.43,31.47,1.43,52.93S198,243.92,198,251.07s-8.58,11.44-13.59,10S180.14,244.63,180.14,244.63Z" style="fill:#d6d6d6;stroke:#263238;stroke-miterlimit:10"></path><path d="M184.86,161s-1.59,31.24.53,46.07,6.36,32.83,6.89,39.71,1.58,8-3.71,9" style="fill:none;stroke:#263238;stroke-miterlimit:10"></path><path d="M252.13,246.49s-6.45-3.73-1.39-24.61,4.82-25.43-.54-23.32a12.93,12.93,0,0,0-7.09,7.14s.79-9-4.86-7.22a7.18,7.18,0,0,0-5.17,7.31s-5.23-14-11.05-10.35-5.1,6.67-3.28,11.67,9.26,16,9.26,16-10.75-6.43-17-12.47-12.57-11.45-16.17-7.24,4.24,14.27,4.24,14.27-9.69-3.76-10.2,2,5,9.49,5,9.49-9.33-.5-5.75,6.6,14.19,7.71,14.19,7.71a4.72,4.72,0,0,0,4.85,3.66c4.2,0,15.09-2.56,15.09-2.56s-12.17,6-19.45,8-2.93,11.38,0,11.31a25.49,25.49,0,0,0,6.58-1.36s-3.88,7.42,1,7.52,7.23-1.31,7.23-1.31-.75,4.78,2.92,3.49,7.16-4.22,10.06-7.84,7.9-9,7.9-9a13,13,0,0,1,9.15-1.14l4.72,1.38,3.44-2.28Z" style="fill:#7E57C2;stroke:#263238;stroke-linecap:round;stroke-linejoin:round"></path><path d="M206.56,231.44a57,57,0,0,1-6.69-4.33" style="fill:#7E57C2;stroke:#263238;stroke-linecap:round;stroke-linejoin:round"></path><path d="M249.77,247.64S235.11,238,224.5,237.35a40.2,40.2,0,0,1-14.83-4.29" style="fill:#7E57C2;stroke:#263238;stroke-linecap:round;stroke-linejoin:round"></path><path d="M236.36,228.72c1.35,5.9,2.51,9.31,5.29,12.07" style="fill:#7E57C2;stroke:#263238;stroke-linecap:round;stroke-linejoin:round"></path><path d="M228,208.89s5.09,4.65,7.16,14.2c.18.82.35,1.6.51,2.35" style="fill:#7E57C2;stroke:#263238;stroke-linecap:round;stroke-linejoin:round"></path><path d="M231.67,251.11a17.31,17.31,0,0,0-1.7,1.26c-5.93,5-10.82,9.07-15.71,9.61" style="fill:#7E57C2;stroke:#263238;stroke-linecap:round;stroke-linejoin:round"></path><path d="M235.75,249.11A19,19,0,0,1,243,248" style="fill:#7E57C2;stroke:#263238;stroke-linecap:round;stroke-linejoin:round"></path><path d="M233.59,272s-20.66-26.71-20.66-31.86,9.6-35,15.09-31.22,22.65,36.37,21.28,49.4S239.85,276.79,233.59,272Z" style="fill:#919191;stroke:#263238;stroke-miterlimit:10"></path><path d="M227.68,214.1s-7.2,21.62-4.46,26.08,9.26,26.08,12.35,27.11,6.52,2,8.58-3.78" style="fill:#919191;stroke:#263238;stroke-miterlimit:10"></path><path d="M207.1,179.48s-3.7,12.71-7.41,33.89S197,261,198.63,265.27s7.94,5.82,11.12,4.76,3.18-2.64,3.71-23.83.53-30.71,6.35-46.6,3.71-22.77-.53-26.47S211.34,167.83,207.1,179.48Z" style="fill:#d6d6d6;stroke:#263238;stroke-miterlimit:10"></path><path d="M219.81,184.78a93.41,93.41,0,0,0-9.53,32.3c-2.12,19.06,3.35,37.43.61,43.07a6.26,6.26,0,0,1-8,3.53" style="fill:none;stroke:#263238;stroke-miterlimit:10"></path><path d="M111.36,195s5.14,12.19,15.62,31,28,38.65,31.92,40.93,9.84-.49,11.63-3.31.8-4.06-12.15-20.83-19-24.17-24.47-40.17-11.49-20-17.11-20.21S107.29,183.27,111.36,195Z" style="fill:#d6d6d6;stroke:#263238;stroke-miterlimit:10"></path><path d="M124.56,191.08a93.39,93.39,0,0,0,13,31.07c10.38,16.13,26.21,26.94,27.65,33a6.28,6.28,0,0,1-4,7.8" style="fill:none;stroke:#263238;stroke-miterlimit:10"></path><path d="M271.18,233.49s-9.53-19.06-19.07-40.24-19.06-35.48-23.83-28.6-4.76,27-1.58,37.6,1.05,4.77,3.17,10.59-.53,1.06,5.3,12.71,7.41,15.89,11.12,16.95S272.24,253.62,271.18,233.49Z" style="fill:#c2c2c2;stroke:#263238;stroke-miterlimit:10"></path><path d="M239.4,185.84s1.59,4.23,1.59,22.24-.53,20.12-.53,20.12" style="fill:#c2c2c2;stroke:#263238;stroke-miterlimit:10"></path><path d="M245.23,231.38c3.18-12.71.53-37.07.53-37.07" style="fill:#c2c2c2;stroke:#263238;stroke-miterlimit:10"></path><path d="M251.58,206s1.06,17.47-2.11,31.24" style="fill:#c2c2c2;stroke:#263238;stroke-miterlimit:10"></path><path d="M256.35,219.73s-.53,11.65-2.12,19.06" style="fill:#c2c2c2;stroke:#263238;stroke-miterlimit:10"></path><path d="M234.64,171s21.71,37.07,30.18,60.37" style="fill:#c2c2c2;stroke:#263238;stroke-miterlimit:10"></path><path d="M275.77,209.43s-9.53-19.07-19.06-40.25-19.07-35.48-23.83-28.59-4.77,27-1.59,37.59,1.06,4.77,3.17,10.59-.52,1.06,5.3,12.71,7.41,15.89,11.12,17S276.83,229.55,275.77,209.43Z" style="fill:#c2c2c2;stroke:#263238;stroke-miterlimit:10"></path><path d="M244,161.77s1.59,4.23,1.59,22.24-.53,20.12-.53,20.12" style="fill:#c2c2c2;stroke:#263238;stroke-miterlimit:10"></path><path d="M250.35,170.24s2.65,24.36-.53,37.07" style="fill:#c2c2c2;stroke:#263238;stroke-miterlimit:10"></path><path d="M256.18,181.89s1.06,17.48-2.12,31.24" style="fill:#c2c2c2;stroke:#263238;stroke-miterlimit:10"></path><path d="M260.94,195.66s-.53,11.65-2.12,19.06" style="fill:#c2c2c2;stroke:#263238;stroke-miterlimit:10"></path><path d="M239.23,146.94s21.71,37.07,30.18,60.37" style="fill:#c2c2c2;stroke:#263238;stroke-miterlimit:10"></path><path d="M224.13,259.62s-2.14-25.74,13.59-45.05,14.3-39.34,11.44-51.5-3.57-17.88,2.15-13.58,17.88,12.15,23.6,44.34,19.31,81.53,22.17,112.28,5,56.5,10.73,72.95-2.15,29.32-10,35.76-17.88,0-21.46-13.59S224.13,259.62,224.13,259.62Z" style="fill:#fff;stroke:#263238;stroke-miterlimit:10"></path><path d="M179,254.15S169.5,235.08,160,213.9s-19.06-35.48-23.83-28.59-4.76,27-1.59,37.59,1.06,4.77,3.18,10.59-.53,1.06,5.3,12.71,7.41,15.89,11.12,16.95S180.1,274.27,179,254.15Z" style="fill:#c2c2c2;stroke:#263238;stroke-miterlimit:10"></path><path d="M147.26,206.49s1.59,4.23,1.59,22.24-.53,20.12-.53,20.12" style="fill:#c2c2c2;stroke:#263238;stroke-miterlimit:10"></path><path d="M153.62,215s2.65,24.36-.53,37.07" style="fill:#c2c2c2;stroke:#263238;stroke-miterlimit:10"></path><path d="M159.44,226.61s1.06,17.48-2.11,31.24" style="fill:#c2c2c2;stroke:#263238;stroke-miterlimit:10"></path><path d="M164.21,240.38s-.53,11.65-2.12,19.06" style="fill:#c2c2c2;stroke:#263238;stroke-miterlimit:10"></path><path d="M142.5,191.66s21.71,37.07,30.18,60.37" style="fill:#c2c2c2;stroke:#263238;stroke-miterlimit:10"></path><path d="M261.32,289S259.8,269.89,232,251.76C199.1,230.3,136.16,234.59,116.85,216S98.26,176,96.11,186s1.43,41.48,15.74,75.81,69.37,66.51,84.39,78,41.48,55.06,42.2,65.79,5.72,27.18,15.73,31.47,26.46-17.88,30.75-55.78S261.32,289,261.32,289Z" style="fill:#fff;stroke:#263238;stroke-miterlimit:10"></path><path d="M201.25,345.45s57.93-2.86,94.4-46.49l12.16,80.1s-7.15,12.16-31.47,22.17-37.9,4.29-37.9,4.29Z" style="fill:#7E57C2;stroke:#263238;stroke-linecap:round;stroke-linejoin:round"></path><path d="M200.22,144s-6.68-4.72-4.93,4.79,4.32,11.39,6.52,5.27,11.65-10.06,13.77-4.23,5.82,19.06,8.47,19.06-.44-6.61,4.23-4.24-1.05,11.65,2.65,19.07,15.36,0,14.3-5.83-8-28.85-8-28.85-10.54,9.79-10,2.37-1.66-19.72-4.8-21.51-2.38,16.16-6.73,13.28-4.75-8.21-8.79-5.55A28.37,28.37,0,0,0,200.22,144Z" style="fill:#fff;stroke:#263238;stroke-miterlimit:10"></path><line x1="239.39" y1="363.49" x2="275.27" y2="367.08" style="fill:none;stroke:#263238;stroke-miterlimit:10"></line><line x1="263.31" y1="371.26" x2="277.66" y2="373.06" style="fill:none;stroke:#263238;stroke-miterlimit:10"></line><path d="M195.22,299.28c1.68,1.33,2.21,3.46,1.18,4.75s-3.22,1.26-4.9-.07-2.21-3.47-1.18-4.76S193.54,297.94,195.22,299.28Z" style="fill:#263238"></path><path d="M214.49,312.61a1.55,1.55,0,1,1-2.45,0A1.76,1.76,0,0,1,214.49,312.61Z" style="fill:#263238"></path><path d="M225.05,293a1.55,1.55,0,1,1-2.45,0A1.76,1.76,0,0,1,225.05,293Z" style="fill:#263238"></path><path d="M288.42,285.19a1.55,1.55,0,1,1-2.45,0A1.77,1.77,0,0,1,288.42,285.19Z" style="fill:#263238"></path><ellipse cx="279.12" cy="300.1" rx="1.49" ry="1.94" transform="translate(-113.88 183.83) rotate(-30.59)" style="fill:#263238"></ellipse><path d="M275.27,262.46a1.55,1.55,0,1,1-2.28-.91A1.77,1.77,0,0,1,275.27,262.46Z" style="fill:#263238"></path><path d="M268.57,415.22a1.54,1.54,0,1,1-2.27-.91A1.76,1.76,0,0,1,268.57,415.22Z" style="fill:#263238"></path><path d="M292,398.77a1.55,1.55,0,1,1-2.57,1.52,1.78,1.78,0,0,1,.3-2.44A1.75,1.75,0,0,1,292,398.77Z" style="fill:#263238"></path><path d="M289,408.33a1.55,1.55,0,1,1-2.28-.91A1.77,1.77,0,0,1,289,408.33Z" style="fill:#263238"></path><path d="M295.59,405.34a1.54,1.54,0,1,1-2.27-.91A1.76,1.76,0,0,1,295.59,405.34Z" style="fill:#263238"></path><path d="M158.69,247.51a1.55,1.55,0,1,1-2.28-.91A1.76,1.76,0,0,1,158.69,247.51Z" style="fill:#263238"></path><path d="M142,283.38a1.55,1.55,0,1,1-2.45,0A1.77,1.77,0,0,1,142,283.38Z" style="fill:#263238"></path><path d="M192.23,277.46a1.54,1.54,0,1,1-2.45,0A1.75,1.75,0,0,1,192.23,277.46Z" style="fill:#263238"></path><path d="M257.33,205.06l-6.59,16.82s-7.44,10.4-9.09,18.91a34.1,34.1,0,0,0,.73,15.69" style="fill:#c2c2c2;stroke:#263238;stroke-miterlimit:10"></path><path d="M243,295.94S227.44,311.48,228,326.43" style="fill:#c2c2c2;stroke:#263238;stroke-miterlimit:10"></path><path d="M221.46,321.64s-4.19,10.17-13.75,12.56" style="fill:#c2c2c2;stroke:#263238;stroke-miterlimit:10"></path></g></svg>
