<svg xmlns="http://www.w3.org/2000/svg" xmlns:xlink="http://www.w3.org/1999/xlink" viewBox="0 0 500 500"><defs><clipPath id="freepik--clip-path--inject-3"><path d="M281.27,142.68s-7,9.06-7.56,12.59,1.51,6.55,1.26,7.56-4.53,5-4.28,7.3,4.79,2,4.79,2-.76,6.54-.26,7.8,2,4.28,5.29,4.28h5l5.29,6.8,16.37-13.6-2.52-8.81s6.8-12.09,4.28-18.64-9.32-10.32-16.37-11.08A14.23,14.23,0,0,0,281.27,142.68Z" style="fill:#fff"></path></clipPath><clipPath id="freepik--clip-path-2--inject-3"><path d="M235.3,208.78a68.82,68.82,0,0,0-15.83,1.63,27,27,0,0,0-13.5,7.45c-1.87,1.86-3.73,9.31-4.19,15.59s-1.87,25.37-2.33,30.73-4.42,7.68,4,10.94,35.38,3.72,37.94.7,2.33-12.57,2.33-16.07,5.12-20,3.49-30.72S240.88,208.08,235.3,208.78Z" style="fill:#fff"></path></clipPath><clipPath id="freepik--clip-path-3--inject-3"><path d="M226,212.5a13.68,13.68,0,0,0-7.91-.93c-4.89.7-11.64,5.59-13.73,9.31s-6.52,10-10.24,12.34-10,8.38-10,12.1,2.32,10.94,8.38,11.41,14.89-10.24,16.29-10.71,11.17-3.72,18.16-8.84" style="fill:#fff"></path></clipPath><clipPath id="freepik--clip-path-4--inject-3"><path d="M126.16,153.89s-3.49,4.14-3.27,5.89,1.31,5.45.87,6.54-3.7,3.71-3.7,4.8,3.27,1.09,3.27,1.09.43,9.82,1.74,10.69,9.38,1.53,9.38,1.53l2.18,6.54,12.22-6.11,1.31-7.63s5-11.34,1.52-17.89-11.12-10.47-17-10.47A10,10,0,0,0,126.16,153.89Z" style="fill:#fff"></path></clipPath><clipPath id="freepik--clip-path-5--inject-3"><path d="M134.67,195.33s-13.52,10.47-15,18.54-.22,44.93-.22,49.3,5.24,7.41,12,8.5,26.17-.22,29-1.74,3.92-3.49,3.92-7,.22-10.69,0-11.56,0-32.07-3.7-44.72-5-16.57-10.69-17.66S134.67,195.33,134.67,195.33Z" style="fill:#fff"></path></clipPath><clipPath id="freepik--clip-path-6--inject-3"><path d="M149.88,206s-5.5-7.06-12.95-6.67-17.27,16.88-21.19,22-12.56,11.38-13.35,18.83,4.71,11.38,9.81,10.21,22.37-20.41,25.12-22.37,9-3.93,11.77-9" style="fill:#fff"></path></clipPath><clipPath id="freepik--clip-path-7--inject-3"><path d="M279,265.58s1.26,4.79,0,8.82,2.52,12.84,2.52,12.84a117.3,117.3,0,0,1,4.79,16.12c1.25,6.8-1.26,7.81,1.76,18.64a92.23,92.23,0,0,0,6.8,18.13c1.51,3.28,3.52,11.84,3.78,20.91s-1,11.33-1,13.85,2.52,4.53,2.52,4.53,4.78,2.27,9.57,4,7.55,1.51,9.06.25a6,6,0,0,0,1.77-3.52,8.83,8.83,0,0,0,2.26-5c.26-3-.25-11.59-.75-24.18s-3.78-20.65-3.78-32.74,5.29-34.25,5.29-42.31.5-9.82.5-9.82-14.6,2.77-24.93,1.26A193.42,193.42,0,0,0,279,265.58Z" style="fill:#fff"></path></clipPath><clipPath id="freepik--clip-path-8--inject-3"><path d="M288.57,193.8l-.25,1c-.83,3.3-3.6,13.91-6.55,20.65-3.52,8.06-3.78,10.08-3,13.86a65.49,65.49,0,0,1,1,7.55s-2,23.68-2,26.95.25,4.79,4,6,26.7,3.53,34.25,2.27,8.06-4,8.06-6-1-37-1.76-55.41-6.8-24.18-8.31-25.94-3-4.28-4.79-4.28S288.57,193.8,288.57,193.8Z" style="fill:#fff"></path></clipPath><clipPath id="freepik--clip-path-9--inject-3"><path d="M211.09,170.37s-2.56,5.12-2.56,7.22.46,2.79-.7,4.42-4.42,3.26-3.49,4.19l2.79,2.79a87.42,87.42,0,0,0,1.4,8.85c.7,2.56,1.63,2.79,3.72,2.79a22.83,22.83,0,0,0,5.82-1.4l-.23,5.82,12.1-.93v-7.68s11.64-14.2,13.5-22.35-2.09-12.8-8.61-16.75-11.17,0-11.17,0-4-2.57-7.92-2.57-5.58,2.33-5.58,2.33-5.82-1.16-8.15,2.8S200.15,175.72,211.09,170.37Z" style="fill:#fff"></path></clipPath><clipPath id="freepik--clip-path-10--inject-3"><path d="M240.47,274.9s0,6.55-1.51,10.58-5.8,11.59-8.06,15.61-6.55,18.64-6.05,22.42,4.54,22.41,6.3,28.46.5,24.68.75,28,1.52,5.54,1,7.3l-.5,1.76a9.51,9.51,0,0,1-6.55-1.26c-3.53-2-8.81-3.52-9.57-5.29s-1.51-3.77-.76-5,1-6.05,1-6.05S212,351.47,210,338.12s-6.8-24.94-5.79-35.26.25-28,.25-28,24.18.25,29.47-.5S240.47,274.9,240.47,274.9Z" style="fill:#7E57C2"></path></clipPath><clipPath id="freepik--clip-path-11--inject-3"><path d="M290.84,191.53h0a.49.49,0,0,1-.35-.19l-5.13-6.61h-4.8c-3.53,0-5.2-3.21-5.75-4.59-.46-1.16,0-5.68.16-7.49-1.34,0-4.49-.29-4.73-2.46-.19-1.7,1.62-4,3.07-5.78a11.08,11.08,0,0,0,1.23-1.7,5.4,5.4,0,0,0-.41-1.6,12.61,12.61,0,0,1-.86-5.91c.51-3.62,7.36-12.45,7.65-12.83l0,0a14.62,14.62,0,0,1,11.75-3.93c8,.86,14.4,5.23,16.78,11.4s-3.33,17.27-4.21,18.88l2.46,8.62a.51.51,0,0,1-.16.52l-16.37,13.6A.52.52,0,0,1,290.84,191.53Zm-15.36-19.88a.49.49,0,0,1,.36.15.5.5,0,0,1,.13.4c-.28,2.49-.61,6.74-.28,7.57.59,1.48,2,4,4.82,4h5a.5.5,0,0,1,.39.2l5,6.39,15.72-13.06-2.43-8.5a.53.53,0,0,1,0-.39c.07-.11,6.66-12,4.26-18.21-2.24-5.82-8.36-9.95-16-10.76a13.84,13.84,0,0,0-10.9,3.61c-.39.49-7,9.06-7.44,12.33a11.83,11.83,0,0,0,.82,5.45,4.46,4.46,0,0,1,.43,2.16A7.58,7.58,0,0,1,274,165c-1.19,1.5-3,3.76-2.85,5.05.16,1.46,3.2,1.62,4.26,1.57Z" style="fill:#263238;clip-path:url(#freepik--clip-path--inject-3)"></path></clipPath><clipPath id="freepik--clip-path-12--inject-3"><path d="M315.49,385.2a17.68,17.68,0,0,1-5.94-1.28c-4.75-1.75-9.56-4-9.61-4.05l-.1-.06c-.11-.09-2.7-2.19-2.7-4.92a15.83,15.83,0,0,1,.32-2.73,50.78,50.78,0,0,0,.69-11.11c-.26-9.26-2.34-17.69-3.74-20.71-.2-.44-.42-.9-.65-1.39a90.16,90.16,0,0,1-6.17-16.82c-1.83-6.55-1.66-9.52-1.49-12.39a23,23,0,0,0-.29-6.29,116.13,116.13,0,0,0-4.76-16c-.15-.35-3.83-9-2.53-13.17,1.21-3.85,0-8.49,0-8.54a.5.5,0,0,1,.49-.63,196,196,0,0,1,20.21,1.77c10.13,1.48,24.62-1.23,24.77-1.25a.49.49,0,0,1,.57.62s-.48,1.89-.48,9.69c0,3.66-1.09,10.29-2.25,17.3-1.43,8.62-3,18.4-3,25a93.1,93.1,0,0,0,1.84,16.94,114.16,114.16,0,0,1,1.94,15.78c.13,3.2.25,6.15.37,8.8.35,7.92.57,13.16.38,15.44A9.23,9.23,0,0,1,321,380.4a6.3,6.3,0,0,1-1.91,3.69A5.54,5.54,0,0,1,315.49,385.2ZM300.43,379c.55.26,5,2.35,9.47,4,4.13,1.52,7,1.64,8.57.34a5.43,5.43,0,0,0,1.59-3.2.49.49,0,0,1,.14-.3,8.39,8.39,0,0,0,2.13-4.72c.18-2.22-.06-7.71-.39-15.31-.11-2.66-.24-5.6-.37-8.81a114.55,114.55,0,0,0-1.93-15.65,94.7,94.7,0,0,1-1.85-17.11c0-6.7,1.62-16.51,3-25.17,1.15-7,2.24-13.56,2.24-17.14a72.18,72.18,0,0,1,.39-9.21c-3.07.53-15.4,2.45-24.39,1.14-8.68-1.27-17.1-1.65-19.45-1.74a18.26,18.26,0,0,1-.15,8.45c-1.19,3.81,2.46,12.41,2.5,12.5a119.65,119.65,0,0,1,4.82,16.22,24.45,24.45,0,0,1,.3,6.53c-.17,2.79-.33,5.67,1.45,12.06a90.15,90.15,0,0,0,6.11,16.66c.23.49.46,1,.66,1.4,1.43,3.1,3.56,11.7,3.83,21.1a51.31,51.31,0,0,1-.71,11.3,15.4,15.4,0,0,0-.3,2.57C298.14,377,300.11,378.73,300.43,379Z" style="fill:#263238;clip-path:url(#freepik--clip-path-7--inject-3)"></path></clipPath><clipPath id="freepik--clip-path-13--inject-3"><path d="M309.63,273c-9.86,0-24.79-1.59-28-2.66-3.95-1.32-4.37-3-4.37-6.52,0-3.26,1.94-26,2-27h0a69.62,69.62,0,0,0-1-7.42c-.79-3.93-.51-6,3.05-14.15,2.95-6.73,5.74-17.45,6.53-20.57l.25-1a.44.44,0,0,1,.19-.29c3.18-2.25,19.11-13.44,20.94-13.44,1.64,0,2.95,1.67,4.23,3.29.31.4.63.8.94,1.16l.28.33c1.84,2.07,7.43,8.37,8.15,25.92.74,18.12,1.76,53.3,1.76,55.43,0,2.53-1,5.29-8.47,6.54A43.48,43.48,0,0,1,309.63,273ZM289,194.11l-.2.82c-.79,3.15-3.6,13.93-6.58,20.73-3.45,7.89-3.73,9.87-3,13.56a71,71,0,0,1,1,7.62c0,.31-2,23.76-2,27s.14,4.39,3.69,5.57c3.79,1.26,26.66,3.48,34,2.25,7.64-1.28,7.64-4.06,7.64-5.55,0-2.13-1-37.28-1.76-55.39-.7-17.19-6.12-23.3-7.89-25.3l-.3-.34c-.32-.37-.64-.78-1-1.2-1.12-1.43-2.29-2.9-3.44-2.9C307.91,181.07,296.2,189,289,194.11Z" style="fill:#263238;clip-path:url(#freepik--clip-path-8--inject-3)"></path></clipPath><clipPath id="freepik--clip-path-14--inject-3"><path d="M217.84,205.55a.5.5,0,0,1-.35-.14.48.48,0,0,1-.15-.38l.2-5.08a20,20,0,0,1-5.29,1.18c-2.36,0-3.46-.44-4.21-3.16a83.44,83.44,0,0,1-1.39-8.75L204,186.55a1,1,0,0,1-.31-.77c0-.76.87-1.44,1.92-2.31a11.05,11.05,0,0,0,1.83-1.75,3.36,3.36,0,0,0,.66-2.76c0-.4-.05-.84-.05-1.37,0-1.55,1.25-4.53,2-6.21-4.23,1.7-6.57.56-7.8-.77-2.62-2.83-2.14-8.47-.67-11,2.19-3.73,7.1-3.27,8.37-3.08a7.54,7.54,0,0,1,5.79-2.29,17,17,0,0,1,7.89,2.46c1.17-.8,5.65-3.35,11.46.18,5.56,3.37,10.95,8.06,8.84,17.3-1.79,7.83-12.21,20.83-13.49,22.41v7.5a.5.5,0,0,1-.46.5l-12.1.93Zm.23-6.82a.51.51,0,0,1,.29.1.49.49,0,0,1,.21.42l-.21,5.26,11.08-.85v-7.22a.49.49,0,0,1,.12-.32c.11-.14,11.58-14.2,13.4-22.14,1.58-6.94-.85-11.64-8.39-16.22-6.14-3.72-10.55-.08-10.59,0a.5.5,0,0,1-.59,0s-3.89-2.48-7.65-2.48-5.11,2-5.18,2.12a.49.49,0,0,1-.5.2c-.06,0-5.5-1-7.62,2.56-1.33,2.26-1.69,7.37.54,9.78,1.61,1.73,4.33,1.73,7.89,0a.5.5,0,0,1,.57.1.49.49,0,0,1,.09.57c-.69,1.4-2.5,5.38-2.5,7,0,.5,0,.93.05,1.3a4.37,4.37,0,0,1-.84,3.41,11.65,11.65,0,0,1-2,1.94c-.59.48-1.58,1.3-1.56,1.59l2.81,2.81a.54.54,0,0,1,.15.3,85.84,85.84,0,0,0,1.38,8.77c.63,2.3,1.32,2.42,3.24,2.42a22.94,22.94,0,0,0,5.65-1.36A.33.33,0,0,1,218.07,198.73Z" style="fill:#263238;clip-path:url(#freepik--clip-path-9--inject-3)"></path></clipPath><clipPath id="freepik--clip-path-15--inject-3"><path d="M230.93,389.63a10.75,10.75,0,0,1-5.32-1.46,43.88,43.88,0,0,0-4.18-2c-2.71-1.19-5-2.21-5.6-3.52-.81-1.89-1.6-4-.72-5.49.55-.93.85-4.4.93-5.74-.3-1.3-4.61-20.39-6.54-33.22-.74-4.88-1.84-9.51-2.91-14-1.82-7.61-3.53-14.79-2.89-21.4,1-10.17.26-27.71.25-27.89a.57.57,0,0,1,.14-.37.56.56,0,0,1,.37-.15c.24,0,24.2.24,29.39-.5,5.38-.77,6.82.5,7,.65a.47.47,0,0,1,.15.35c0,.27,0,6.69-1.55,10.76-1.46,3.91-5.45,11-7.83,15.22l-.26.46c-2.36,4.2-6.45,18.56-6,22.1s4.5,22.29,6.28,28.39c1.27,4.34,1,14.93.83,21.93-.07,2.9-.13,5.19-.06,6.13a22.45,22.45,0,0,0,.66,3.64,7.81,7.81,0,0,1,.33,3.84l-.5,1.76a.53.53,0,0,1-.36.35A7.7,7.7,0,0,1,230.93,389.63ZM205,275.41c.12,3,.63,18.25-.27,27.5-.63,6.44,1.07,13.55,2.86,21.06,1.07,4.5,2.18,9.15,2.93,14.07,2,13.18,6.49,33,6.54,33.21a.66.66,0,0,1,0,.14c0,.5-.28,4.95-1.08,6.27-.6,1,0,2.8.79,4.59.4.94,2.78,2,5.08,3a47.17,47.17,0,0,1,4.28,2.06,9.37,9.37,0,0,0,5.9,1.26l.42-1.47a7,7,0,0,0-.34-3.32,22.57,22.57,0,0,1-.68-3.81c-.08-1,0-3.3.05-6.22.17-6.95.43-17.44-.79-21.63-1.84-6.3-5.82-24.85-6.31-28.53-.54-4,3.84-18.72,6.1-22.73l.26-.47c2.37-4.2,6.33-11.23,7.77-15.08,1.29-3.44,1.45-8.88,1.47-10.13-.46-.25-2.05-.84-6-.28C229.1,275.59,208.63,275.44,205,275.41Z" style="fill:#263238;clip-path:url(#freepik--clip-path-10--inject-3)"></path></clipPath><clipPath id="freepik--clip-path-16--inject-3"><path d="M227.14,278.38c-9,0-19.48-1.07-23.91-2.8-6.34-2.46-6.07-4.51-5-7.93a17,17,0,0,0,.77-3.52c.4-4.56,1.49-19.31,2.07-27.23l.26-3.49c.45-6,2.29-13.87,4.33-15.91a27.55,27.55,0,0,1,13.74-7.58,69.29,69.29,0,0,1,15.92-1.64c6-.7,10.75,9.86,12.39,20.67,1.15,7.56-1,17.86-2.42,24.68a46.12,46.12,0,0,0-1.06,6.12v.82c0,4.09,0,12.61-2.45,15.57C240.41,277.7,234.26,278.38,227.14,278.38Zm7.3-69.11a68,68,0,0,0-14.86,1.62,26.57,26.57,0,0,0-13.26,7.32c-1.68,1.68-3.57,8.81-4,15.28L202,237c-.59,7.92-1.67,22.67-2.07,27.24a18,18,0,0,1-.81,3.71c-.89,3-1.34,4.47,4.45,6.72,8.72,3.39,35.15,3.48,37.38.84s2.22-11.25,2.21-14.92v-.82a43.88,43.88,0,0,1,1.08-6.33c1.41-6.75,3.54-16.94,2.41-24.32-1.54-10.1-6-20.48-11.31-19.83h-.92Z" style="fill:#263238;clip-path:url(#freepik--clip-path-2--inject-3)"></path></clipPath><clipPath id="freepik--clip-path-17--inject-3"><path d="M192.85,257.24h-.42c-6.62-.51-8.84-8.39-8.84-11.91,0-4.08,6.56-10.23,10.24-12.53s8-8.52,10.07-12.15,8.85-8.81,14.1-9.56a14.08,14.08,0,0,1,8.22,1,.5.5,0,1,1-.47.88,13.44,13.44,0,0,0-7.61-.87c-4.84.69-11.4,5.56-13.37,9.06-2.09,3.72-6.59,10.13-10.41,12.51s-9.77,8.33-9.77,11.68,2,10.45,7.91,10.91c4.18.33,10.14-5.33,13.34-8.36a12.15,12.15,0,0,1,2.76-2.32c2.6-.87,11.59-4.06,18-8.78a.5.5,0,0,1,.59.81c-6.36,4.67-14.91,7.79-18.29,8.92a17.82,17.82,0,0,0-2.39,2.09C203.1,251.85,197.42,257.24,192.85,257.24Z" style="fill:#263238;clip-path:url(#freepik--clip-path-3--inject-3)"></path></clipPath><clipPath id="freepik--clip-path-18--inject-3"><path d="M136.63,191.47a.43.43,0,0,1-.19,0,.47.47,0,0,1-.28-.3l-2.08-6.23c-1.68-.15-8-.74-9.28-1.58s-1.81-7.84-2-10.62c-1.16,0-3.29-.31-3.29-1.58,0-.76.82-1.69,2.18-3.12a10,10,0,0,0,1.56-1.86c.24-.6-.19-2.64-.5-4.13-.17-.81-.33-1.59-.4-2.17-.24-1.86,2.85-5.63,3.35-6.23a10.37,10.37,0,0,1,8.92-5.24,21.28,21.28,0,0,1,17.45,10.74c3.48,6.51-1.05,17.28-1.48,18.26l-1.3,7.58a.52.52,0,0,1-.27.36l-12.21,6.11A.59.59,0,0,1,136.63,191.47Zm-2-42.1a9.4,9.4,0,0,0-8.06,4.75l-.06.09c-1.3,1.54-3.3,4.4-3.16,5.51.07.54.22,1.29.39,2.09.48,2.31.78,3.88.45,4.7a9.69,9.69,0,0,1-1.76,2.18c-.72.75-1.91,2-1.91,2.43,0,.23,1.27.59,2.77.59a.5.5,0,0,1,.5.48c.2,4.57.84,9.81,1.52,10.29.88.59,6.07,1.2,9.14,1.45a.51.51,0,0,1,.44.34l2,6,11.47-5.73,1.26-7.39a.36.36,0,0,1,0-.11c.05-.11,4.88-11.2,1.54-17.45A20.21,20.21,0,0,0,134.67,149.37Zm-8.51,4.52h0Z" style="fill:#263238;clip-path:url(#freepik--clip-path-4--inject-3)"></path></clipPath><clipPath id="freepik--clip-path-19--inject-3"><path d="M138.58,272.56a51.46,51.46,0,0,1-7.26-.39c-7.66-1.24-12.42-4.69-12.42-9,0-.86-.05-3-.12-5.92-.29-12-.89-36.95.35-43.47,1.54-8.16,14.68-18.41,15.23-18.84h0c.4-.31,9.85-7.54,15.67-6.42,6.14,1.18,7.48,5.76,11.08,18,3,10.26,3.45,32.79,3.61,41.27,0,1.83.07,3.28.1,3.48a67.5,67.5,0,0,1,.06,7.48c0,1.56,0,3.06,0,4.19,0,3.67-1.21,5.81-4.18,7.42C158.39,271.58,147,272.56,138.58,272.56ZM135,195.73c-.14.1-13.39,10.44-14.87,18.23-1.21,6.43-.62,31.31-.33,43.26.07,2.95.12,5.08.12,5.95,0,3.79,4.44,6.86,11.58,8,6.76,1.09,26.07-.28,28.69-1.69s3.66-3.21,3.66-6.54c0-1.13,0-2.64,0-4.21,0-2.83.1-6.7,0-7.23,0-.21-.07-.84-.13-3.69-.16-8.44-.6-30.87-3.57-41-3.78-12.88-5-16.29-10.31-17.31s-14.74,6.14-14.86,6.23Z" style="fill:#263238;clip-path:url(#freepik--clip-path-5--inject-3)"></path></clipPath><clipPath id="freepik--clip-path-20--inject-3"><path d="M110.42,251a8.38,8.38,0,0,1-5.54-2.08c-2.31-2.05-3.37-5.2-3-8.88.58-5.51,5.2-10.28,9.28-14.5a57.83,57.83,0,0,0,4.16-4.59c.72-.94,1.66-2.28,2.74-3.84,5-7.17,12.51-18,18.82-18.33,7.63-.41,13.14,6.57,13.37,6.87a.5.5,0,1,1-.79.61c0-.07-5.44-6.87-12.53-6.48-5.82.31-13.47,11.32-18,17.9-1.09,1.57-2,2.92-2.77,3.88a58.25,58.25,0,0,1-4.23,4.68c-4,4.1-8.46,8.74-9,13.91-.35,3.34.59,6.19,2.66,8a7.37,7.37,0,0,0,6.54,1.64c3.37-.78,12.71-10.21,18.89-16.45,2.88-2.91,5.16-5.2,6.05-5.84a27.36,27.36,0,0,1,2.94-1.7c3-1.59,6.75-3.57,8.68-7.15a.5.5,0,0,1,.68-.21.51.51,0,0,1,.2.68c-2.07,3.85-6,5.91-9.1,7.57a25.83,25.83,0,0,0-2.82,1.63c-.82.58-3.18,3-5.92,5.72-6.63,6.7-15.72,15.88-19.37,16.72A8.21,8.21,0,0,1,110.42,251Z" style="fill:#263238;clip-path:url(#freepik--clip-path-6--inject-3)"></path></clipPath></defs><g id="freepik--background-simple--inject-3"><path d="M408.88,335.44S453.22,308.1,454,237.15,427.35,116.69,373.4,91.56s-121.2,31.78-167.76,29.56-58.38-36.95-119,10.35S26.05,259.32,43.79,287.41s64.3,12.56,82.77,36.95,40.65,46.56,96.08,42.12,59.85-31.26,82.4-32.25S356.4,367.22,408.88,335.44Z" style="fill:#7E57C2"></path><path d="M408.88,335.44S453.22,308.1,454,237.15,427.35,116.69,373.4,91.56s-121.2,31.78-167.76,29.56-58.38-36.95-119,10.35S26.05,259.32,43.79,287.41s64.3,12.56,82.77,36.95,40.65,46.56,96.08,42.12,59.85-31.26,82.4-32.25S356.4,367.22,408.88,335.44Z" style="fill:#fff;opacity:0.7000000000000001"></path></g><g id="freepik--Floor--inject-3"><ellipse cx="247.49" cy="393.72" rx="210.6" ry="17.63" style="fill:#7E57C2"></ellipse><ellipse cx="247.49" cy="393.72" rx="210.6" ry="17.63" style="fill:#fff;opacity:0.5"></ellipse></g><g id="freepik--character-4--inject-3"><path d="M366.55,370.73a31.86,31.86,0,0,1-9.61,5c-5.24,1.53-9.39,2-8.74,3.72s3.93,2.18,7.43,2.18,12,1.09,13.76,0,1.31-7.43,1.1-9S366.55,370.73,366.55,370.73Z" style="fill:#fff"></path><path d="M365.87,382.64c-1.63,0-3.67-.12-6-.28-1.63-.11-3.17-.21-4.22-.21-4.75,0-7.25-.79-7.9-2.51a1.39,1.39,0,0,1,0-1.13c.55-1,2.5-1.53,5.46-2.28,1.09-.28,2.29-.59,3.56-1a31.46,31.46,0,0,0,9.44-4.93.47.47,0,0,1,.37-.11c.69.08,4.11.58,4.37,2.4,0,.07,1,8-1.32,9.45A8.24,8.24,0,0,1,365.87,382.64Zm.83-11.39a31.72,31.72,0,0,1-9.62,5c-1.28.38-2.5.69-3.6,1-2.3.58-4.47,1.13-4.81,1.78a.35.35,0,0,0,0,.31c.32.85,1.78,1.86,7,1.86,1.08,0,2.64.11,4.29.21,3.43.23,8.13.54,9.21-.13,1.25-.78,1.22-5.93.86-8.46C369.88,372,368,371.44,366.7,371.25Z" style="fill:#263238"></path><path d="M360.87,377.72a12.46,12.46,0,0,1-3.31-2.16l-.62.19c-5.24,1.53-9.39,2-8.74,3.72s3.93,2.18,7.43,2.18,12,1.09,13.76,0c.76-.47,1.1-1.92,1.24-3.53A91.55,91.55,0,0,1,360.87,377.72Z" style="fill:#fff"></path><path d="M365.87,382.64c-1.63,0-3.67-.12-6-.28-1.63-.11-3.17-.21-4.22-.21-4.75,0-7.25-.79-7.9-2.51a1.39,1.39,0,0,1,0-1.13c.55-1,2.5-1.53,5.46-2.28,1.08-.28,2.29-.59,3.56-1,.16,0,.32-.1.48-.15l.13,0a.5.5,0,0,1,.47.09,11.22,11.22,0,0,0,3.13,2.07c.29.08,1.81.28,9.62.38a.5.5,0,0,1,.5.54c-.18,2.13-.66,3.41-1.47,3.92A8.24,8.24,0,0,1,365.87,382.64Zm-8.41-6.52-.38.11c-1.28.38-2.5.69-3.6,1-2.3.58-4.47,1.13-4.81,1.78a.35.35,0,0,0,0,.31c.32.85,1.78,1.86,7,1.86,1.08,0,2.64.11,4.29.21,3.43.23,8.13.54,9.21-.13.21-.14.71-.66.95-2.62-8.29-.11-9.08-.33-9.34-.41h0A10.85,10.85,0,0,1,357.46,376.12Z" style="fill:#263238"></path><path d="M352.13,276.35s-5.46,35-5.46,41.73,3.28,12.67,6.12,17,10.27,26.43,11.14,29.93-.43,7.64,1.09,9.17a6.48,6.48,0,0,0,3.5,1.75s1.75-1.31,1.75-4.8-2.84-27.31-3.06-35.61-3.93-31.46-3.06-38.24,3.28-17.91,2-21.4-6.12-5.25-9.18-5.25S352.13,276.35,352.13,276.35Z" style="fill:#263238"></path><path d="M368.52,376.47h-.06a7,7,0,0,1-3.79-1.89c-1-1-1-2.79-.92-4.85a18,18,0,0,0-.3-4.56c-.86-3.42-8.28-25.48-11.08-29.78s-6.2-10.42-6.2-17.31c0-6.73,5.25-40.38,5.47-41.8a.14.14,0,0,1,0-.07c.07-.25,1.89-6,5.28-6,3.05,0,8.22,1.77,9.64,5.57,1,2.74,0,9.46-1.08,15.95-.33,2.06-.64,4-.85,5.7-.52,4,.63,14.14,1.64,23.07.68,6,1.33,11.75,1.42,15.08.12,4.71,1.11,14.64,1.91,22.62.62,6.16,1.15,11.48,1.15,13,0,3.7-1.87,5.14-1.95,5.2A.47.47,0,0,1,368.52,376.47Zm-15.9-100c-.2,1.3-5.45,35-5.45,41.61s3.23,12.44,6,16.77c2.92,4.49,10.32,26.55,11.21,30.08a18.49,18.49,0,0,1,.33,4.83c0,1.82-.08,3.4.63,4.11a6,6,0,0,0,3,1.57,5.93,5.93,0,0,0,1.4-4.27c0-1.48-.53-6.78-1.14-12.91-.8-8-1.8-17.95-1.92-22.69-.09-3.29-.73-9-1.41-15-1.07-9.43-2.18-19.18-1.65-23.31.22-1.7.54-3.66.87-5.72,1-6.07,2.06-13,1.13-15.45-1.26-3.35-5.94-4.92-8.71-4.92C354.75,271.17,353.09,275,352.62,276.47Z" style="fill:#263238"></path><path d="M368.52,376s-7.87,5.25-10.71,6.34-7.42,3.06-7.42,5,14.2,1.53,17.69,1.53,7,0,7.43-1.09-1.31-10.27-1.31-10.27Z" style="fill:#fff"></path><path d="M362.76,389.4c-6.84,0-11.48-.3-12.56-1.37a1,1,0,0,1-.31-.7c0-1.71,2.46-3.46,7.74-5.49,2.76-1.06,10.53-6.23,10.61-6.28a.46.46,0,0,1,.41-.07l5.68,1.53a.48.48,0,0,1,.36.39c.42,2.18,1.74,9.41,1.28,10.54-.53,1.34-3.34,1.41-7.89,1.41l-1.73,0Zm5.85-12.89c-1.25.83-8,5.25-10.62,6.26-6.18,2.38-7.1,3.88-7.1,4.56.45.79,5.66,1.16,15.45,1.05l1.74,0c2.65,0,6.65,0,7-.78.22-.63-.47-5.36-1.28-9.68Z" style="fill:#263238"></path><path d="M368.08,388.86c3.5,0,7,0,7.43-1.09a18.26,18.26,0,0,0-.38-4.8c-3.67.26-9.89.6-11.85,0a6.57,6.57,0,0,1-3-1.86,22.43,22.43,0,0,1-2.44,1.21c-2.84,1.09-7.42,3.06-7.42,5S364.59,388.86,368.08,388.86Z" style="fill:#fff"></path><path d="M362.76,389.4c-6.84,0-11.48-.3-12.56-1.37a1,1,0,0,1-.31-.7c0-1.71,2.46-3.46,7.74-5.49a20.82,20.82,0,0,0,2.38-1.18.52.52,0,0,1,.62.1,6.12,6.12,0,0,0,2.79,1.73c1.39.42,5.64.41,11.68,0a.5.5,0,0,1,.53.42c.65,4.31.43,4.84.34,5.06-.53,1.34-3.34,1.41-7.89,1.41l-1.73,0Zm-2.6-7.68a19.66,19.66,0,0,1-2.17,1c-6.18,2.38-7.1,3.88-7.1,4.56.45.79,5.66,1.16,15.45,1.05l1.74,0c2.65,0,6.65,0,7-.78,0-.08.15-.69-.34-4.08-4.35.3-9.7.52-11.58-.06A7.12,7.12,0,0,1,360.16,381.72Z" style="fill:#263238"></path><path d="M348.86,269.36s2.84,17.7,2.84,25.12,3.06,27.09,5.24,35.4,2.62,11.79,4.59,16.16,4.37,19,4.8,22.94-.43,7,1.1,8.08,6.77.44,6.77.44l.87-4.15s.44-19.44,1.31-26.87-3.49-17-3.49-21.63,2.62-19,2.62-25.78V287.28a13.28,13.28,0,0,0,3.71-8.52c.22-5.25-.43-9-1.52-11.36s-29.06.21-29.06.21Z" style="fill:#263238"></path><path d="M371,378.2a7.49,7.49,0,0,1-3.88-.73c-1.2-.85-1.19-2.54-1.17-4.68a31,31,0,0,0-.13-3.75c-.45-4-2.85-18.54-4.77-22.79a52.25,52.25,0,0,1-3-9.78c-.44-1.83-.94-3.91-1.61-6.47-2.17-8.25-5.26-28-5.26-35.52,0-7.3-2.81-24.86-2.84-25v0l-.22-1.75a.56.56,0,0,1,.11-.37.46.46,0,0,1,.34-.18c6.65-.63,28.41-2.46,29.56.07,1.23,2.71,1.78,6.72,1.57,11.59a13.75,13.75,0,0,1-3.71,8.7v11.59a142.19,142.19,0,0,1-1.51,15.23c-.57,4.38-1.11,8.51-1.11,10.55a33.33,33.33,0,0,0,1.44,7.22c1.21,4.63,2.59,9.88,2.05,14.47-.86,7.32-1.3,26.63-1.31,26.82l-.88,4.24a.51.51,0,0,1-.43.4A29.93,29.93,0,0,1,371,378.2ZM349.35,269.29c.08.47,2.85,17.88,2.85,25.19s3.07,27.06,5.22,35.27c.68,2.57,1.18,4.65,1.63,6.49a51.16,51.16,0,0,0,2.93,9.6c2,4.42,4.39,18.88,4.85,23.09a31.16,31.16,0,0,1,.14,3.87c0,1.92,0,3.3.75,3.86.94.67,4.07.6,6.07.39l.79-3.8c0-.11.44-19.46,1.31-26.83.52-4.4-.84-9.55-2-14.09a34.33,34.33,0,0,1-1.47-7.48c0-2.1.52-6.08,1.12-10.68a140.82,140.82,0,0,0,1.5-15.1V287.28a.52.52,0,0,1,.16-.37,12.9,12.9,0,0,0,3.55-8.18c.2-4.71-.31-8.56-1.48-11.13-.91-1.25-14.88-.75-28,.46Z" style="fill:#263238"></path><path d="M358.47,204.26s-12.89,14.64-14.86,18.79,3.94,10,4.59,12.67,1.09,15.95-.22,22.06,0,12.67,2,13.11,24.69,1.53,27.09.87.87-8.73.87-10.92.88-15.95.88-30.15-2.84-24.25-4.15-27.09-3.72-4.8-5.25-4.8S360.22,200.11,358.47,204.26Z" style="fill:#7E57C2"></path><path d="M372.74,272.47c-7.4,0-21.19-.71-22.9-1.09-2.45-.55-3.66-7.59-2.34-13.7s.83-19.37.22-21.84a14.61,14.61,0,0,0-1.74-3.2c-1.91-3-4.27-6.73-2.82-9.81C345.09,218.76,357,205.15,358,204c1.88-4.27,9.47-5.69,11.35-5.69s4.38,2.24,5.7,5.09c1.62,3.52,4.2,14,4.2,27.3,0,10.21-.46,20.37-.71,25.82-.1,2.16-.17,3.73-.17,4.33s.08,1.28.18,2.21c.35,3.62.84,8.58-1.42,9.2A26.18,26.18,0,0,1,372.74,272.47Zm-3.35-73.17c-1.68,0-8.85,1.34-10.46,5.15a.64.64,0,0,1-.08.14c-.13.14-12.87,14.63-14.78,18.67-1.22,2.58,1,6.05,2.75,8.84a14.71,14.71,0,0,1,1.87,3.5c.65,2.6,1.13,16-.22,22.29s.21,12.21,1.59,12.51c1.85.41,24.45,1.54,26.85.88,1.45-.39.93-5.62.68-8.13-.09-1-.18-1.79-.18-2.31s.07-2.12.17-4.38c.25-5.44.71-15.58.71-25.77,0-14.68-3-24.57-4.11-26.88C372.94,201.11,370.7,199.3,369.39,199.3Zm-10.92,5h0Z" style="fill:#263238"></path><path d="M377.48,177.82s3.27-3.93,3.49-1.31a4.56,4.56,0,0,1-3.71,4.59C376,181.1,375.73,179.14,377.48,177.82Z" style="fill:#fff"></path><path d="M377.26,181.6a1.44,1.44,0,0,1-1.44-1,2.93,2.93,0,0,1,1.31-3.11c.71-.85,2.39-2.65,3.53-2.3.33.11.74.42.81,1.31a4.69,4.69,0,0,1-1.32,3.56A4.5,4.5,0,0,1,377.26,181.6Zm3.05-5.49a6.24,6.24,0,0,0-2.45,2l-.08.07a2.09,2.09,0,0,0-1,2,.47.47,0,0,0,.5.35,3.55,3.55,0,0,0,2.15-1.24,3.79,3.79,0,0,0,1.06-2.8c0-.31-.09-.43-.12-.45Zm-2.83,1.71h0Z" style="fill:#263238"></path><path d="M379.22,180.23a12.3,12.3,0,0,1,2.63,8.52c-.44,5-5.25,6.55-5.47,12.23s-.21,7.87,5.25,11.58,7,8.08,10.05,14.2,8.74,3.5,14.63-1.09,2.19-15.73-5.46-21.85-2.18-10.92-2.18-16.16-8.3-8.09-12.67-8.52a52.74,52.74,0,0,1-5.25-.66Z" style="fill:#263238"></path><path d="M396.7,230.85a6,6,0,0,1-1.28-.14,6.39,6.39,0,0,1-4.19-3.73c-.42-.84-.82-1.66-1.2-2.44-2.37-4.9-4.09-8.44-8.68-11.57-5.78-3.92-5.68-6.46-5.47-12,.12-3.13,1.56-5,2.94-6.89,1.2-1.6,2.33-3.12,2.53-5.37a11.87,11.87,0,0,0-2.5-8.14.49.49,0,0,1,0-.66l1.53-1.75a.49.49,0,0,1,.5-.15s.95.22,5.17.64,13.12,3.25,13.12,9a15.92,15.92,0,0,1-1,4.68c-1.13,3.59-2.19,7,3,11.09s8.59,10.47,8.55,15.8a8.35,8.35,0,0,1-3.1,6.83C402.46,229.3,399.27,230.85,396.7,230.85Zm-16.82-50.61a12.76,12.76,0,0,1,2.46,8.55c-.22,2.53-1.49,4.23-2.72,5.88-1.35,1.8-2.63,3.51-2.74,6.33-.21,5.48-.29,7.53,5,11.15,4.81,3.27,6.67,7.1,9,11.95.38.78.77,1.59,1.19,2.44a5.37,5.37,0,0,0,3.52,3.19c2.45.56,5.74-.86,10.37-4.46a7.41,7.41,0,0,0,2.71-6.05c0-5-3.25-11.07-8.18-15-5.67-4.54-4.41-8.59-3.29-12.17a14.92,14.92,0,0,0,.92-4.38c0-4.81-8-7.6-12.22-8-3.11-.31-4.47-.51-5-.6Z" style="fill:#263238"></path><path d="M405.47,223a.34.34,0,0,1-.19-.05.36.36,0,0,1-.13-.51c2.25-3.81-1.66-6.17-6.18-8.89-2.56-1.54-5.2-3.14-6.74-5.1-2.48-3.2-.82-6.24.79-9.17,1.2-2.2,2.44-4.47,2.08-6.89-.84-5.61-13.77-11.13-13.89-11.19a.37.37,0,0,1-.21-.49.39.39,0,0,1,.5-.2c.54.23,13.44,5.74,14.34,11.76.4,2.68-.9,5.06-2.17,7.37-1.62,3-3,5.54-.84,8.35,1.44,1.85,4,3.41,6.52,4.92,4.46,2.68,9.08,5.46,6.45,9.91A.38.38,0,0,1,405.47,223Z" style="fill:#fff"></path><path d="M386.65,214.8a.36.36,0,0,1-.24-.09c-.21-.17-5.11-4.24-6.3-8.72-.69-2.56,1.09-4.73,2.81-6.84,1.44-1.76,2.93-3.58,3.06-5.64.28-4.5-3.12-8.82-3.16-8.86a.38.38,0,0,1,.59-.47c.15.19,3.62,4.58,3.32,9.38-.15,2.3-1.71,4.21-3.23,6.07-1.67,2.05-3.25,4-2.67,6.16,1.13,4.25,6,8.3,6.05,8.34a.38.38,0,0,1,.06.53A.4.4,0,0,1,386.65,214.8Z" style="fill:#fff"></path><path d="M356.29,157.29s-5.68,4.15-7,7.86a27.51,27.51,0,0,0-1.09,9.18c0,1.09-2.84,1.75-2.84,3.06s2.19,3.27,2.19,3.27-.44,5.9.43,8.74,3.94,2.41,5.9,2.19a31.35,31.35,0,0,0,5.46-1.53s.88,7.21,0,10.7-4.15,6.56-3,8.52,9.17-6.55,12-7.64,1.75-2.19,1.09-5.25-1.74-7.86,0-9.61,8.31-6.33,9.83-13.11-.87-14.41-8.3-17S356.29,157.29,356.29,157.29Z" style="fill:#fff"></path><path d="M356.83,210.08a1,1,0,0,1-.25,0,1,1,0,0,1-.73-.52c-.78-1.4.15-3,1.22-4.94a17,17,0,0,0,1.79-4c.69-2.77.24-8.08.06-9.89a27.81,27.81,0,0,1-5,1.33l-.19,0c-2,.22-5.28.59-6.24-2.56-.8-2.6-.55-7.52-.48-8.68-.57-.55-2.17-2.19-2.17-3.48,0-1,.93-1.56,1.75-2.1.43-.28,1.09-.71,1.09-1v-.41a26.63,26.63,0,0,1,1.12-8.93c1.35-3.82,6.93-7.93,7.17-8.11l.09,0c.3-.13,7.48-3.33,15-.67,8,2.83,10.09,11.12,8.62,17.62-1.3,5.79-6.13,10-8.73,12.25-.52.44-.94.81-1.23,1.11-1.51,1.5-.52,6.13.08,8.89l.05.26c.13.6.28,1.13.41,1.59.51,1.85.89,3.19-1.81,4.22a28.69,28.69,0,0,0-5,3.61C360.26,208.4,358.11,210.08,356.83,210.08Zm2.51-20.52a.48.48,0,0,1,.26.07.52.52,0,0,1,.24.37c0,.3.87,7.34,0,10.88a17.42,17.42,0,0,1-1.89,4.2c-.92,1.64-1.72,3-1.22,4,.91.2,4-2.28,6.17-4.1s4-3.31,5.23-3.77c1.85-.71,1.72-1.15,1.2-3-.13-.48-.28-1-.42-1.65l0-.26c-.72-3.34-1.7-7.92.19-9.81.3-.3.75-.69,1.28-1.16,2.51-2.18,7.18-6.24,8.42-11.71,1.37-6.08-.54-13.83-8-16.46-6.86-2.41-13.6.36-14.22.62s-5.59,4.24-6.77,7.6a25.76,25.76,0,0,0-1.07,8.58v.43c0,.79-.79,1.3-1.55,1.8-.6.4-1.29.84-1.29,1.26,0,.79,1.24,2.2,2,2.9a.51.51,0,0,1,.17.41c0,.06-.42,5.84.41,8.56.67,2.18,2.75,2.13,5.18,1.85l.19,0a31.63,31.63,0,0,0,5.34-1.5A.47.47,0,0,1,359.34,189.56Z" style="fill:#263238"></path><path d="M351.7,175.31c0,.91-.3,1.64-.66,1.64s-.65-.73-.65-1.64.29-1.64.65-1.64S351.7,174.41,351.7,175.31Z"></path><path d="M350,172.43h-.1a.51.51,0,0,1-.39-.59,1.76,1.76,0,0,1,1.07-1.3c.72-.24,1.57.1,2.6,1a.49.49,0,0,1,0,.7.5.5,0,0,1-.71,0c-1-.9-1.45-.88-1.61-.82s-.4.54-.4.54A.51.51,0,0,1,350,172.43Z" style="fill:#263238"></path><path d="M370.92,156.63c-7.42-2.62-14.63.66-14.63.66a32.18,32.18,0,0,0-5.1,4.76c1.26-.64,3.11-1.21,4.66-.17,2.62,1.74-2.19,3.93-.88,6.11s5.25,3.94,5.47,5.25-.88,2.4.65,3.06,3.72-2,3.72-2,4.37-1.09,2.84,3.71-5.47,4.81-5.47,4.81,1.1,3.93,4.59,5.24c.52.2,1.13.39,1.78.57a3.41,3.41,0,0,1,.84-1.88c1.75-1.75,8.31-6.33,9.83-13.11S378.35,159.26,370.92,156.63Z" style="fill:#263238"></path><path d="M368.55,189.16a.3.3,0,0,1-.13,0c-.7-.19-1.32-.39-1.82-.58-3.69-1.38-4.85-5.41-4.9-5.58a.51.51,0,0,1,.48-.63c.15,0,3.6-.08,5-4.46.29-.91.52-2.12-.05-2.72a2.46,2.46,0,0,0-2.05-.38c-.53.61-2.52,2.68-4.18,2a1.76,1.76,0,0,1-1-2.33,3.13,3.13,0,0,0,.08-1.1c-.07-.45-1.14-1.24-2.08-1.94a12.58,12.58,0,0,1-3.31-3.13c-.78-1.29.09-2.53.78-3.53.44-.63.89-1.28.8-1.75a1.13,1.13,0,0,0-.56-.68c-1.34-.89-3-.38-4.15.21a.5.5,0,0,1-.61-.77,32.67,32.67,0,0,1,5.18-4.84l.09-.06c.3-.13,7.48-3.33,15-.67,8,2.83,10.09,11.12,8.62,17.62-1.3,5.79-6.13,10-8.73,12.25-.52.44-.94.81-1.23,1.11a2.84,2.84,0,0,0-.7,1.61.49.49,0,0,1-.23.33A.43.43,0,0,1,368.55,189.16Zm-5.69-5.89a7.64,7.64,0,0,0,4.09,4.35c.35.14.76.27,1.23.41a3.51,3.51,0,0,1,.86-1.6c.3-.3.75-.69,1.28-1.16,2.51-2.18,7.18-6.24,8.42-11.71,1.37-6.08-.54-13.83-8-16.46-6.86-2.41-13.6.36-14.22.62a35.1,35.1,0,0,0-3.64,3.19,4.19,4.19,0,0,1,3.23.55,2.11,2.11,0,0,1,1,1.32,3.57,3.57,0,0,1-1,2.51c-.74,1.07-1.16,1.76-.75,2.45a12.22,12.22,0,0,0,3.06,2.84c1.3,1,2.33,1.73,2.47,2.57a4.06,4.06,0,0,1-.08,1.46c-.15.74-.19,1,.44,1.23,1,.41,2.63-1.23,3.13-1.83a.56.56,0,0,1,.26-.17c.09,0,2.1-.5,3.17.64.72.77.81,2,.27,3.71A6.89,6.89,0,0,1,362.86,183.27Z" style="fill:#263238"></path><path d="M377.82,175.67a.38.38,0,0,1-.37-.31c-.75-4.53-2.7-7.79-5.78-9.7-5.76-3.57-13.66-1.21-13.74-1.18a.37.37,0,0,1-.47-.25.38.38,0,0,1,.25-.47c.33-.1,8.3-2.48,14.36,1.27,3.27,2,5.33,5.46,6.12,10.21a.37.37,0,0,1-.31.43Z" style="fill:#fff"></path><path d="M376.13,178.2a.36.36,0,0,1-.24-.09c-5.67-4.72-15.33-7.13-15.42-7.15a.39.39,0,0,1-.28-.46.38.38,0,0,1,.46-.27c.1,0,9.92,2.48,15.72,7.31a.37.37,0,0,1,.05.52A.38.38,0,0,1,376.13,178.2Z" style="fill:#fff"></path><path d="M365.49,184.5a.38.38,0,0,1,0-.75,21.49,21.49,0,0,0,11-4.91.39.39,0,0,1,.53,0,.37.37,0,0,1,0,.53,21.87,21.87,0,0,1-11.44,5.1Z" style="fill:#fff"></path><path d="M365.24,242.05a143.76,143.76,0,0,0-6.33,14.42c-2.62,7.21-5,22.1-5.46,24.91a79.72,79.72,0,0,0-.88,14.2,12.36,12.36,0,0,0,1.53,5c.44.66,1.53.22,1.75-.44a4.67,4.67,0,0,0-.44-2.18s1.53,2.4,2.19,1.31-.22-2.84-.22-2.84,2.18,2.62,1.75.44a13.69,13.69,0,0,0-2-4.37,7.15,7.15,0,0,0,2.18-4.81,11.75,11.75,0,0,0-2-5.68s14-25.12,15.95-28.4,2.18-8.3,2.18-10.92S365.24,242.05,365.24,242.05Z" style="fill:#fff"></path><path d="M354.73,301.43a1.24,1.24,0,0,1-1.05-.55,13,13,0,0,1-1.61-5.3v-.76A77.86,77.86,0,0,1,353,281.3c1.86-11.51,3.8-20.36,5.49-25a144.75,144.75,0,0,1,6.36-14.48.52.52,0,0,1,.35-.26c.85-.16,8.39-1.55,10.33.05a1.39,1.39,0,0,1,.53,1.1c0,4.85-.78,8.72-2.26,11.18-1.83,3.05-14.29,25.43-15.79,28.12a11.77,11.77,0,0,1,1.88,5.7,7.44,7.44,0,0,1-2,4.87,13.69,13.69,0,0,1,1.82,4.21c.06.31.22,1.12-.36,1.4-.12.06-.39.18-.93-.15a2.59,2.59,0,0,1-.3,1.51,1,1,0,0,1-.86.53,1.54,1.54,0,0,1-.78-.28,1.56,1.56,0,0,1-1.46,1.61Zm10.85-58.93a142.34,142.34,0,0,0-6.2,14.14c-1.67,4.58-3.6,13.37-5.43,24.74a77,77,0,0,0-.88,13.43v.77a11.9,11.9,0,0,0,1.45,4.74s.08.13.28.1a.72.72,0,0,0,.57-.41,4,4,0,0,0-.42-1.83.5.5,0,0,1,.23-.64.49.49,0,0,1,.65.17c.45.7,1.09,1.37,1.33,1.37h0a3,3,0,0,0-.23-2.41.5.5,0,0,1,.83-.54,9.52,9.52,0,0,0,.88.9v0a13.48,13.48,0,0,0-1.89-4.18.52.52,0,0,1,.07-.66,6.68,6.68,0,0,0,2-4.44,11.21,11.21,0,0,0-1.87-5.39.51.51,0,0,1,0-.53c.14-.25,14-25.17,16-28.41,1.38-2.31,2.11-6,2.11-10.67a.39.39,0,0,0-.17-.33C373.69,241.43,368.65,241.93,365.58,242.5Z" style="fill:#263238"></path><path d="M362.84,233.53s-4.81-9.83-5.68-17,3.49-14.42,10.27-15.73,12.89,3.47,15.07,5.88,18.13,28.86,18.13,28.86L396.7,234s-14.05-20.56-18.2-23.83-9.1-7.22-15-3.5-2.63,7-2.41,12.26S362.84,233.53,362.84,233.53Z" style="fill:#263238"></path><path d="M400.63,236a.39.39,0,0,1-.18,0l-3.93-1.52a.6.6,0,0,1-.23-.19c-.14-.2-14.06-20.53-18.1-23.72s-8.84-7-14.42-3.47c-4,2.51-3.52,4.62-2.81,7.81a21.75,21.75,0,0,1,.63,4c.22,5.15,1.73,14.48,1.74,14.57a.5.5,0,0,1-.94.3c-.2-.4-4.85-10-5.73-17.2-.92-7.66,3.86-15,10.67-16.28s12.95,3.18,15.54,6c2.19,2.41,17.54,27.86,18.19,28.94a.51.51,0,0,1,0,.58A.5.5,0,0,1,400.63,236Zm-3.6-2.44,2.42.94C396.25,229.22,384,209,382.13,207c-2.45-2.7-8.29-6.94-14.61-5.72s-10.73,8-9.86,15.18c.54,4.49,2.66,10.08,4.14,13.56-.47-3.23-1.08-7.92-1.21-11.07a21.17,21.17,0,0,0-.6-3.83c-.72-3.21-1.34-6,3.24-8.88,6.18-3.89,11.37.21,15.54,3.5S395.73,231.66,397,233.56Z" style="fill:#263238"></path><path d="M368.16,204.85c-3.87.67-7.13,2.94-7.51,9.24-.42,7.23,1.53,31.46,1.53,31.46s8.52-.66,10.27-.88l3.72-.43V220.43c0-3.32.17-6.83-.57-10.09A6.81,6.81,0,0,0,368.16,204.85Z" style="fill:#7E57C2"></path><path d="M362.18,246.05a.5.5,0,0,1-.49-.46c-.08-1-2-24.35-1.53-31.53.33-5.67,2.92-8.84,7.92-9.7h0a7.31,7.31,0,0,1,8,5.87,37.5,37.5,0,0,1,.58,8.6v25.41a.5.5,0,0,1-.45.49s-2,.22-3.71.44-9.94.85-10.29.88Zm6.07-40.71c-4.47.77-6.79,3.64-7.1,8.78-.38,6.54,1.22,27.4,1.49,30.89,1.85-.14,8.28-.65,9.75-.83,1.24-.16,2.6-.31,3.28-.39v-25a36.44,36.44,0,0,0-.56-8.37,6.31,6.31,0,0,0-6.86-5.11Z" style="fill:#263238"></path><path d="M385.78,216.27s-1.09-3.71-4.81-1.09-2.62,29.93-4.59,36.92S374.2,270.89,377,274s18.79,1.75,20.54.44,5-22.72,5-29.28-4.15-12.45-6.34-16S385.78,216.27,385.78,216.27Z" style="fill:#fff"></path><path d="M386.67,276.3c-4.37,0-8.63-.54-10-2-3.13-3.38-2.63-15.68-.77-22.32.78-2.76,1.07-8.84,1.39-15.27.59-12.21,1.14-20.34,3.39-21.93a4,4,0,0,1,3.58-.88,3.49,3.49,0,0,1,2,2.13c.85,1,8.37,9.52,10.47,12.88l.61,1c2.31,3.63,5.8,9.12,5.8,15.24s-3.17,28.14-5.22,29.68C396.8,275.6,391.66,276.3,386.67,276.3Zm-3.3-61.55a3.85,3.85,0,0,0-2.11.84c-2,1.43-2.55,12.37-3,21.16-.31,6.49-.61,12.62-1.41,15.49-2,7-2.12,18.5.54,21.37s18.41,1.47,19.87.38,4.82-21.61,4.82-28.88c0-5.83-3.39-11.17-5.64-14.71l-.62-1c-2.14-3.42-10.35-12.73-10.44-12.82a.69.69,0,0,1-.1-.19,2.63,2.63,0,0,0-1.37-1.58A1.77,1.77,0,0,0,383.37,214.75Z" style="fill:#263238"></path><path d="M398.23,234.19s-12.23-2.4-15.29-2.4-3.28.43-3.28,3.27a48,48,0,0,1-.22,4.81l20.32,2.18a5.81,5.81,0,0,0,1.09-2.84C401.29,237,399.76,234.41,398.23,234.19Z" style="fill:#263238"></path><path d="M399.76,242.55h-.05l-20.32-2.18a.53.53,0,0,1-.34-.19.48.48,0,0,1-.1-.37s.21-2,.21-4.75c0-3,.37-3.77,3.78-3.77,3.05,0,14.72,2.28,15.38,2.41a3.24,3.24,0,0,1,2.05,1.47,5.52,5.52,0,0,1,1,4.14,6.23,6.23,0,0,1-1.23,3.1A.5.5,0,0,1,399.76,242.55ZM380,239.42l19.54,2.11a7.4,7.4,0,0,0,.83-2.42,4.57,4.57,0,0,0-.81-3.37,2.32,2.32,0,0,0-1.39-1.06h0c-.12,0-12.22-2.39-15.19-2.39-2.78,0-2.78.2-2.78,2.77C380.16,237.09,380.05,238.66,380,239.42Z" style="fill:#263238"></path><path d="M377.91,251.88s15.3,1.53,17.92,1.75,3.49-.65,3.49.66-.22,6.55-1.31,6.55-14.42-1.31-17.69-2.18-4.15-.44-3.72-1.75S377.91,251.88,377.91,251.88Z" style="fill:#263238"></path><path d="M398,261.34c-1.1,0-14.45-1.3-17.82-2.2-1-.26-1.74-.4-2.3-.51-1-.18-1.5-.28-1.76-.73a1.36,1.36,0,0,1,0-1.15c.42-1.27,1.29-4.94,1.3-5a.48.48,0,0,1,.53-.38c.16,0,15.32,1.53,17.91,1.74a11.19,11.19,0,0,0,2.17,0c.64-.06,1.1-.11,1.45.21a1.26,1.26,0,0,1,.33,1C399.82,255.94,399.69,261.34,398,261.34Zm-19.71-8.92c-.25,1-.87,3.58-1.22,4.65a1,1,0,0,0-.08.35,9.3,9.3,0,0,0,1.07.23c.58.11,1.37.25,2.38.52,3.14.84,16.38,2.17,17.56,2.17.42-.32.81-3.58.81-6a.75.75,0,0,0,0-.28s-.38.05-.65.08a12.2,12.2,0,0,1-2.35,0C393.44,253.93,380.81,252.68,378.3,252.42Z" style="fill:#263238"></path></g><g id="freepik--character-3--inject-3"><path d="M281.27,142.68s-7,9.06-7.56,12.59,1.51,6.55,1.26,7.56-4.53,5-4.28,7.3,4.79,2,4.79,2-.76,6.54-.26,7.8,2,4.28,5.29,4.28h5l5.29,6.8,16.37-13.6-2.52-8.81s6.8-12.09,4.28-18.64-9.32-10.32-16.37-11.08A14.23,14.23,0,0,0,281.27,142.68Z" style="fill:#fff"></path><path d="M290.84,191.53h0a.49.49,0,0,1-.35-.19l-5.13-6.61h-4.8c-3.53,0-5.2-3.21-5.75-4.59-.46-1.16,0-5.68.16-7.49-1.34,0-4.49-.29-4.73-2.46-.19-1.7,1.62-4,3.07-5.78a11.08,11.08,0,0,0,1.23-1.7,5.4,5.4,0,0,0-.41-1.6,12.61,12.61,0,0,1-.86-5.91c.51-3.62,7.36-12.45,7.65-12.83l0,0a14.62,14.62,0,0,1,11.75-3.93c8,.86,14.4,5.23,16.78,11.4s-3.33,17.27-4.21,18.88l2.46,8.62a.51.51,0,0,1-.16.52l-16.37,13.6A.52.52,0,0,1,290.84,191.53Zm-15.36-19.88a.49.49,0,0,1,.36.15.5.5,0,0,1,.13.4c-.28,2.49-.61,6.74-.28,7.57.59,1.48,2,4,4.82,4h5a.5.5,0,0,1,.39.2l5,6.39,15.72-13.06-2.43-8.5a.53.53,0,0,1,0-.39c.07-.11,6.66-12,4.26-18.21-2.24-5.82-8.36-9.95-16-10.76a13.84,13.84,0,0,0-10.9,3.61c-.39.49-7,9.06-7.44,12.33a11.83,11.83,0,0,0,.82,5.45,4.46,4.46,0,0,1,.43,2.16A7.58,7.58,0,0,1,274,165c-1.19,1.5-3,3.76-2.85,5.05.16,1.46,3.2,1.62,4.26,1.57Z" style="fill:#263238"></path><g style="clip-path:url(#freepik--clip-path-11--inject-3)"><path d="M307.61,161.9s2.65-6.42-6.42-9.44-14.74,4.15-14.74,8.31,2.64,7.94.75,13.61-9.17,7.85-9.42,9a4.66,4.66,0,0,0,2.73.85h5l5.29,6.8,16.37-13.6-2.52-8.81a50.26,50.26,0,0,0,3-6.59Z" style="fill:#7E57C2"></path><path d="M307.61,161.9s2.65-6.42-6.42-9.44-14.74,4.15-14.74,8.31,2.64,7.94.75,13.61-9.17,7.85-9.42,9a4.66,4.66,0,0,0,2.73.85h5l5.29,6.8,16.37-13.6-2.52-8.81a50.26,50.26,0,0,0,3-6.59Z" style="fill:#fff;opacity:0.5"></path></g><path d="M293.16,172.24a2.15,2.15,0,0,1-.73-.12,1.66,1.66,0,0,1-1.08-1.74.5.5,0,0,1,.5-.5.51.51,0,0,1,.5.5c0,.65.3.76.42.8.94.34,3.17-.71,4.73-2.63s2.69-6,2-7.84a1.26,1.26,0,0,0-1-.92c-2.3-.4-3.45,3.15-3.47,3.19a.49.49,0,0,1-.62.32.49.49,0,0,1-.33-.62c.06-.18,1.42-4.45,4.6-3.87a2.24,2.24,0,0,1,1.72,1.55c.88,2.4-.45,6.71-2.18,8.83C296.78,171,294.66,172.24,293.16,172.24Z" style="fill:#263238"></path><path d="M281.52,160.05a.43.43,0,0,1-.19,0,6.7,6.7,0,0,0-4.9-.25.5.5,0,1,1-.4-.92,7.56,7.56,0,0,1,5.68.25.5.5,0,0,1,.27.66A.49.49,0,0,1,281.52,160.05Z" style="fill:#263238"></path><path d="M281.77,163.58h-.08l-3-.5a.49.49,0,0,1-.4-.36l-.5-1.76a.49.49,0,0,1,.34-.62.51.51,0,0,1,.62.34l.41,1.46,2.71.46a.5.5,0,0,1,.42.57A.51.51,0,0,1,281.77,163.58Z" style="fill:#263238"></path><path d="M280.51,165.85a.52.52,0,0,1-.47-.33l-.75-2a.5.5,0,1,1,.93-.36l.76,2a.49.49,0,0,1-.29.64A.58.58,0,0,1,280.51,165.85Z" style="fill:#263238"></path><path d="M286.81,182a.5.5,0,0,1-.16-1,30.45,30.45,0,0,0,5.87-3.93c1.73-1.51.39-4.95.37-5a.51.51,0,0,1,.28-.65.5.5,0,0,1,.65.28c.07.17,1.62,4.13-.64,6.1a30,30,0,0,1-6.21,4.13A.44.44,0,0,1,286.81,182Z" style="fill:#263238"></path><path d="M284.29,371.61h0a86.74,86.74,0,0,0-9.82,3.78c-2.77,1.51-4.28,2.77-2,4.54s9.57,1,13.86,1,9.82,1.51,11.83,0,3-2.77.51-4.78S284.29,371.61,284.29,371.61Z" style="fill:#fff"></path><path d="M295.11,382.1a41.55,41.55,0,0,1-4.21-.32,43.85,43.85,0,0,0-4.59-.35c-.93,0-2,0-3.14.08-4.27.14-9.11.3-11-1.19a2.58,2.58,0,0,1-1.29-2.17c.09-1.18,1.36-2.1,3.37-3.2a83.41,83.41,0,0,1,9.91-3.81.43.43,0,0,1,.25,0c.49.1,12,2.56,14.57,4.63,1.16.93,1.69,1.76,1.68,2.63,0,1.09-.89,2-2.2,2.94A5.6,5.6,0,0,1,295.11,382.1Zm-8.8-1.67a42.93,42.93,0,0,1,4.7.36c2.79.3,5.67.62,6.83-.26.93-.69,1.79-1.44,1.8-2.15,0-.52-.43-1.14-1.31-1.84-2.26-1.81-12.72-4.13-14-4.41a80.18,80.18,0,0,0-9.61,3.7c-1.38.75-2.79,1.62-2.86,2.4,0,.37.28.81.91,1.3,1.63,1.27,6.49,1.11,10.38,1C284.29,380.47,285.37,380.43,286.31,380.43Z" style="fill:#263238"></path><path d="M300.91,377.66s-1.51,1.76-7.05,3.52-11.08,3.78-9.07,6.55,14.86,2.27,20.66,2,10.57-2,11.58-6.8S300.91,377.66,300.91,377.66Z" style="fill:#fff"></path><path d="M297.43,390.45c-6.32,0-11.66-.52-13-2.42a2.26,2.26,0,0,1-.41-2.1c.72-2.19,5-3.72,9.73-5.22,5.28-1.68,6.81-3.36,6.83-3.38a.41.41,0,0,1,.39-.17c.54,0,13.38.43,16.09,3.88a2.36,2.36,0,0,1,.5,2c-.94,4.47-5,6.89-12,7.2C302.76,390.37,300,390.45,297.43,390.45Zm3.68-12.28c-.54.51-2.44,2-7.1,3.49-3,.94-8.46,2.69-9.08,4.59a1.22,1.22,0,0,0,.27,1.19c1.89,2.6,15.69,2,20.22,1.81,6.55-.29,10.29-2.44,11.12-6.41a1.37,1.37,0,0,0-.3-1.18C314.26,379.15,304.86,378.3,301.11,378.17Z" style="fill:#263238"></path><path d="M281.27,282.46s-1.76,19.64-1.76,31.23,5,20.65,7.55,25.43,2,23.68.76,27.46-4.54,2.77-3.53,5,2.52,2.27,5.79,4,7.81,3.28,9.57,2.52,3.28-12.59,3.53-15.11,2.52-26.19-1.26-39-8.06-21.66-10.58-34.5S284.29,277.17,281.27,282.46Z" style="fill:#263238"></path><path d="M298.43,378.86c-2.48,0-6.26-1.52-8.58-2.78-.9-.48-1.65-.82-2.32-1.13-1.74-.79-2.89-1.32-3.7-3.13-.67-1.53.26-2.08,1.08-2.57a4.67,4.67,0,0,0,2.43-2.83c1.26-3.76,1.69-22.47-.72-27.06l-.3-.57C283.76,334,279,325,279,313.69c0-11.48,1.75-31.08,1.77-31.28a.66.66,0,0,1,.06-.2c1.54-2.69,3.35-4,5.1-3.72,2.58.43,4.57,4.1,5.9,10.92a147.42,147.42,0,0,0,6.2,21.22c1.45,4.13,2.94,8.4,4.37,13.24,3.77,12.83,1.54,36.57,1.28,39.23,0,.15-1.48,14.52-3.83,15.52A3.58,3.58,0,0,1,298.43,378.86Zm-16.67-96.25c-.14,1.6-1.76,20.09-1.76,31.08s4.69,19.87,7.2,24.63l.3.57c2.67,5.07,2,24.22.79,27.85a5.7,5.7,0,0,1-2.87,3.37c-.84.5-1,.59-.67,1.3.65,1.47,1.5,1.86,3.2,2.63.68.32,1.45.67,2.37,1.16,3.66,2,7.76,3.1,9.14,2.5,1.12-.48,2.65-9,3.22-14.7.27-2.64,2.48-26.2-1.24-38.85-1.42-4.82-2.91-9.07-4.35-13.19a146.83,146.83,0,0,1-6.24-21.35c-1.64-8.36-3.89-9.93-5.08-10.13S283,280.41,281.76,282.61Z" style="fill:#263238"></path><path d="M279,265.58s1.26,4.79,0,8.82,2.52,12.84,2.52,12.84a117.3,117.3,0,0,1,4.79,16.12c1.25,6.8-1.26,7.81,1.76,18.64a92.23,92.23,0,0,0,6.8,18.13c1.51,3.28,3.52,11.84,3.78,20.91s-1,11.33-1,13.85,2.52,4.53,2.52,4.53,4.78,2.27,9.57,4,7.55,1.51,9.06.25a6,6,0,0,0,1.77-3.52,8.83,8.83,0,0,0,2.26-5c.26-3-.25-11.59-.75-24.18s-3.78-20.65-3.78-32.74,5.29-34.25,5.29-42.31.5-9.82.5-9.82-14.6,2.77-24.93,1.26A193.42,193.42,0,0,0,279,265.58Z" style="fill:#fff"></path><path d="M315.49,385.2a17.68,17.68,0,0,1-5.94-1.28c-4.75-1.75-9.56-4-9.61-4.05l-.1-.06c-.11-.09-2.7-2.19-2.7-4.92a15.83,15.83,0,0,1,.32-2.73,50.78,50.78,0,0,0,.69-11.11c-.26-9.26-2.34-17.69-3.74-20.71-.2-.44-.42-.9-.65-1.39a90.16,90.16,0,0,1-6.17-16.82c-1.83-6.55-1.66-9.52-1.49-12.39a23,23,0,0,0-.29-6.29,116.13,116.13,0,0,0-4.76-16c-.15-.35-3.83-9-2.53-13.17,1.21-3.85,0-8.49,0-8.54a.5.5,0,0,1,.49-.63,196,196,0,0,1,20.21,1.77c10.13,1.48,24.62-1.23,24.77-1.25a.49.49,0,0,1,.57.62s-.48,1.89-.48,9.69c0,3.66-1.09,10.29-2.25,17.3-1.43,8.62-3,18.4-3,25a93.1,93.1,0,0,0,1.84,16.94,114.16,114.16,0,0,1,1.94,15.78c.13,3.2.25,6.15.37,8.8.35,7.92.57,13.16.38,15.44A9.23,9.23,0,0,1,321,380.4a6.3,6.3,0,0,1-1.91,3.69A5.54,5.54,0,0,1,315.49,385.2ZM300.43,379c.55.26,5,2.35,9.47,4,4.13,1.52,7,1.64,8.57.34a5.43,5.43,0,0,0,1.59-3.2.49.49,0,0,1,.14-.3,8.39,8.39,0,0,0,2.13-4.72c.18-2.22-.06-7.71-.39-15.31-.11-2.66-.24-5.6-.37-8.81a114.55,114.55,0,0,0-1.93-15.65,94.7,94.7,0,0,1-1.85-17.11c0-6.7,1.62-16.51,3-25.17,1.15-7,2.24-13.56,2.24-17.14a72.18,72.18,0,0,1,.39-9.21c-3.07.53-15.4,2.45-24.39,1.14-8.68-1.27-17.1-1.65-19.45-1.74a18.26,18.26,0,0,1-.15,8.45c-1.19,3.81,2.46,12.41,2.5,12.5a119.65,119.65,0,0,1,4.82,16.22,24.45,24.45,0,0,1,.3,6.53c-.17,2.79-.33,5.67,1.45,12.06a90.15,90.15,0,0,0,6.11,16.66c.23.49.46,1,.66,1.4,1.43,3.1,3.56,11.7,3.83,21.1a51.31,51.31,0,0,1-.71,11.3,15.4,15.4,0,0,0-.3,2.57C298.14,377,300.11,378.73,300.43,379Z" style="fill:#263238"></path><g style="clip-path:url(#freepik--clip-path-12--inject-3)"><path d="M318.79,383.7a6,6,0,0,0,1.77-3.52,9.09,9.09,0,0,0,2.18-4.48c-2.89-2.19-8.33-3.05-10.24-4.56-3.05-2.42,2.67-1,5.32-1s.37-8.31-1.14-16.63-12.47-2.64-13.23-8.69,4.92-22.68,7.18-27.21-16.25,9.07-19.65-.38a175.36,175.36,0,0,1-5.67-20.41l-.39.77c.55,1.95,1.05,3.95,1.39,5.76,1.25,6.8-1.26,7.81,1.76,18.64a92.23,92.23,0,0,0,6.8,18.13c1.51,3.28,3.52,11.84,3.78,20.91s-1,11.33-1,13.85,2.52,4.53,2.52,4.53,4.78,2.27,9.57,4S317.28,385,318.79,383.7Z" style="fill:#7E57C2"></path><path d="M318.79,383.7a6,6,0,0,0,1.77-3.52,9.09,9.09,0,0,0,2.18-4.48c-2.89-2.19-8.33-3.05-10.24-4.56-3.05-2.42,2.67-1,5.32-1s.37-8.31-1.14-16.63-12.47-2.64-13.23-8.69,4.92-22.68,7.18-27.21-16.25,9.07-19.65-.38a175.36,175.36,0,0,1-5.67-20.41l-.39.77c.55,1.95,1.05,3.95,1.39,5.76,1.25,6.8-1.26,7.81,1.76,18.64a92.23,92.23,0,0,0,6.8,18.13c1.51,3.28,3.52,11.84,3.78,20.91s-1,11.33-1,13.85,2.52,4.53,2.52,4.53,4.78,2.27,9.57,4S317.28,385,318.79,383.7Z" style="fill:#fff;opacity:0.5"></path></g><path d="M314,382.63a.5.5,0,0,1-.32-.11l-5.5-4.5a.5.5,0,0,1,.6-.8s4.22,2.76,6.9.53a1.35,1.35,0,0,0,.61-.93c0-.6-.87-1.32-1.72-2-1.2-1-2.57-2.12-2.57-3.67,0-.93.14-2.38.32-4.22a118.06,118.06,0,0,0,.68-17.75c-.26-5.44-2.25-10.52-4.18-15.43-1.71-4.34-3.32-8.44-3.32-12.1,0-1.87,0-4.23.09-7a.52.52,0,0,1,.51-.49.49.49,0,0,1,.49.51c-.06,2.77-.09,5.13-.09,7,0,3.47,1.58,7.48,3.25,11.73,1.87,4.76,4,10.15,4.25,15.75a119.9,119.9,0,0,1-.68,17.9c-.18,1.81-.32,3.24-.32,4.12,0,1.08,1.12,2,2.21,2.9s2.08,1.72,2.08,2.78a2.26,2.26,0,0,1-1,1.71,5.38,5.38,0,0,1-4.82.92l2.82,2.31a.5.5,0,0,1,.07.7A.51.51,0,0,1,314,382.63Z" style="fill:#263238"></path><path d="M306.25,309.13h0a.5.5,0,0,1-.48-.52c.12-4.21.25-7.49.25-7.49a.49.49,0,0,1,.52-.49.52.52,0,0,1,.48.52s-.13,3.28-.25,7.49A.51.51,0,0,1,306.25,309.13Z" style="fill:#263238"></path><path d="M288.57,193.8l-.25,1c-.83,3.3-3.6,13.91-6.55,20.65-3.52,8.06-3.78,10.08-3,13.86a65.49,65.49,0,0,1,1,7.55s-2,23.68-2,26.95.25,4.79,4,6,26.7,3.53,34.25,2.27,8.06-4,8.06-6-1-37-1.76-55.41-6.8-24.18-8.31-25.94-3-4.28-4.79-4.28S288.57,193.8,288.57,193.8Z" style="fill:#fff"></path><path d="M309.63,273c-9.86,0-24.79-1.59-28-2.66-3.95-1.32-4.37-3-4.37-6.52,0-3.26,1.94-26,2-27h0a69.62,69.62,0,0,0-1-7.42c-.79-3.93-.51-6,3.05-14.15,2.95-6.73,5.74-17.45,6.53-20.57l.25-1a.44.44,0,0,1,.19-.29c3.18-2.25,19.11-13.44,20.94-13.44,1.64,0,2.95,1.67,4.23,3.29.31.4.63.8.94,1.16l.28.33c1.84,2.07,7.43,8.37,8.15,25.92.74,18.12,1.76,53.3,1.76,55.43,0,2.53-1,5.29-8.47,6.54A43.48,43.48,0,0,1,309.63,273ZM289,194.11l-.2.82c-.79,3.15-3.6,13.93-6.58,20.73-3.45,7.89-3.73,9.87-3,13.56a71,71,0,0,1,1,7.62c0,.31-2,23.76-2,27s.14,4.39,3.69,5.57c3.79,1.26,26.66,3.48,34,2.25,7.64-1.28,7.64-4.06,7.64-5.55,0-2.13-1-37.28-1.76-55.39-.7-17.19-6.12-23.3-7.89-25.3l-.3-.34c-.32-.37-.64-.78-1-1.2-1.12-1.43-2.29-2.9-3.44-2.9C307.91,181.07,296.2,189,289,194.11Z" style="fill:#263238"></path><g style="clip-path:url(#freepik--clip-path-13--inject-3)"><path d="M316.3,207.64c-7.93-3.78-14.91,3.92-14.91,3.92s3.2,14.22,2.44,20.64-6.42,11-7.56,17,1.14,16.63-2.64,19.65a18.72,18.72,0,0,1-4.13,2.3c8.51,1,21.25,1.85,26.52,1,7.56-1.26,8.06-4,8.06-6,0-1.74-.74-27.95-1.43-46.93C320.6,213.11,318.42,208.64,316.3,207.64Z" style="fill:#7E57C2"></path><path d="M316.3,207.64c-7.93-3.78-14.91,3.92-14.91,3.92s3.2,14.22,2.44,20.64-6.42,11-7.56,17,1.14,16.63-2.64,19.65a18.72,18.72,0,0,1-4.13,2.3c8.51,1,21.25,1.85,26.52,1,7.56-1.26,8.06-4,8.06-6,0-1.74-.74-27.95-1.43-46.93C320.6,213.11,318.42,208.64,316.3,207.64Z" style="fill:#7E57C2"></path><path d="M316.3,207.64c-7.93-3.78-14.91,3.92-14.91,3.92s3.2,14.22,2.44,20.64-6.42,11-7.56,17,1.14,16.63-2.64,19.65a18.72,18.72,0,0,1-4.13,2.3c8.51,1,21.25,1.85,26.52,1,7.56-1.26,8.06-4,8.06-6,0-1.74-.74-27.95-1.43-46.93C320.6,213.11,318.42,208.64,316.3,207.64Z" style="fill:#fff;opacity:0.5"></path></g><path d="M279.58,239c-.11,1.3-.26,3.1-.43,5.16h44.32c-.05-1.68-.1-3.41-.16-5.16Z" style="fill:#263238"></path><path d="M323.47,244.63H279.15a.48.48,0,0,1-.36-.16.46.46,0,0,1-.13-.38c.16-2.06.31-3.86.42-5.16a.5.5,0,0,1,.5-.46h43.73a.51.51,0,0,1,.5.49l.16,5.15a.43.43,0,0,1-.14.36A.48.48,0,0,1,323.47,244.63Zm-43.77-1H323l-.13-4.16H280C280,240.6,279.83,242,279.7,243.63Z" style="fill:#263238"></path><path d="M278.57,251.34c-.13,1.78-.27,3.53-.39,5.15h45.66c0-1.58-.1-3.31-.15-5.15Z" style="fill:#263238"></path><path d="M323.84,257H278.18a.51.51,0,0,1-.5-.53c.12-1.63.26-3.38.4-5.16a.49.49,0,0,1,.49-.46h45.12a.5.5,0,0,1,.5.49l.15,5.15a.54.54,0,0,1-.14.36A.51.51,0,0,1,323.84,257Zm-45.12-1h44.61l-.12-4.15H279C278.93,253.26,278.82,254.67,278.72,256Z" style="fill:#263238"></path><path d="M277.74,263.82c0,2.46.15,3.93,1.82,5h43.76a4.55,4.55,0,0,0,.76-2.77c0-.27,0-1.1-.05-2.38H277.74Z" style="fill:#263238"></path><path d="M323.32,269.36H279.56a.53.53,0,0,1-.27-.08c-1.91-1.26-2.05-3-2.05-5.46v-.07a.55.55,0,0,1,.5-.54H324a.48.48,0,0,1,.5.48c0,1.29.05,2.13.05,2.4a5.07,5.07,0,0,1-.85,3.06A.49.49,0,0,1,323.32,269.36Zm-43.6-1h43.33a4.21,4.21,0,0,0,.53-2.27c0-.23,0-.89,0-1.88H278.24C278.26,266.36,278.46,267.47,279.72,268.36Z" style="fill:#263238"></path><path d="M294.75,189.51c-3.47,2.38-6.18,4.29-6.18,4.29s-.07.32-.21.86h31.33a30.76,30.76,0,0,0-2.22-5.15Z" style="fill:#263238"></path><path d="M319.69,195.16H288.36A.49.49,0,0,1,288,195a.48.48,0,0,1-.09-.43l.21-.85a.44.44,0,0,1,.19-.29s2.72-1.92,6.18-4.3a.48.48,0,0,1,.29-.09h22.72a.48.48,0,0,1,.43.26,31.06,31.06,0,0,1,2.26,5.23.48.48,0,0,1-.06.45A.52.52,0,0,1,319.69,195.16Zm-30.69-1h30a31.79,31.79,0,0,0-1.82-4.15H294.9c-2.92,2-5.28,3.67-5.89,4.1Z" style="fill:#263238"></path><path d="M278.41,226.61a15.09,15.09,0,0,0,.34,2.71c.17.83.31,1.65.43,2.44h43.9c-.06-1.73-.11-3.45-.17-5.15Z" style="fill:#263238"></path><path d="M323.08,232.26h-43.9a.51.51,0,0,1-.5-.42c-.12-.79-.26-1.61-.42-2.43a15.33,15.33,0,0,1-.35-2.79.48.48,0,0,1,.14-.36.48.48,0,0,1,.36-.15h44.5a.5.5,0,0,1,.5.48l.17,5.15a.55.55,0,0,1-.14.37A.49.49,0,0,1,323.08,232.26Zm-43.48-1h43l-.14-4.15H278.93a17.66,17.66,0,0,0,.31,2.11Q279.45,230.26,279.6,231.26Z" style="fill:#263238"></path><path d="M286.42,201.88c-.47,1.63-1,3.38-1.56,5.15h37.23c-.16-1.86-.38-3.58-.64-5.15Z" style="fill:#263238"></path><path d="M322.09,207.53H284.86a.49.49,0,0,1-.4-.21.47.47,0,0,1-.08-.44c.51-1.6,1-3.28,1.56-5.14a.49.49,0,0,1,.48-.36h35a.49.49,0,0,1,.49.41c.27,1.64.49,3.38.64,5.2a.49.49,0,0,1-.12.38A.52.52,0,0,1,322.09,207.53Zm-36.55-1h36c-.14-1.44-.31-2.83-.52-4.15H286.79C286.37,203.86,286,205.22,285.54,206.53Z" style="fill:#263238"></path><path d="M282.29,214.24c-.17.42-.35.83-.52,1.22-.66,1.51-1.2,2.8-1.64,3.93h42.52c-.06-1.78-.12-3.51-.19-5.15Z" style="fill:#263238"></path><path d="M322.65,219.89H280.13a.49.49,0,0,1-.47-.68c.43-1.09,1-2.38,1.65-4,.17-.39.35-.79.51-1.21a.5.5,0,0,1,.47-.31h40.17a.5.5,0,0,1,.5.48c.07,1.64.13,3.37.19,5.16a.46.46,0,0,1-.14.36A.48.48,0,0,1,322.65,219.89Zm-41.79-1h41.28c-.06-1.43-.11-2.82-.16-4.15H282.62c-.13.32-.26.62-.39.92C281.69,216.9,281.24,218,280.86,218.89Z" style="fill:#263238"></path><polygon points="287.56 192.04 287.82 197.58 310.99 180.21 307.96 174.16 287.56 192.04" style="fill:#263238"></polygon><path d="M287.82,198.08a.42.42,0,0,1-.22-.05.49.49,0,0,1-.28-.42l-.25-5.55a.46.46,0,0,1,.17-.39l20.4-17.89a.49.49,0,0,1,.42-.11.5.5,0,0,1,.35.27l3,6a.49.49,0,0,1-.14.62L288.12,198A.49.49,0,0,1,287.82,198.08Zm.26-5.82.19,4.36,22.08-16.56-2.54-5.1Z" style="fill:#263238"></path><rect x="296.38" y="275.15" width="26.44" height="19.39" style="fill:#fff"></rect><path d="M322.82,295.05H296.38a.5.5,0,0,1-.5-.5v-19.4a.5.5,0,0,1,.5-.5h26.44a.5.5,0,0,1,.5.5v19.4A.5.5,0,0,1,322.82,295.05Zm-25.94-1h25.44v-18.4H296.88Z" style="fill:#263238"></path><path d="M303.94,197.08s-5.55,4.53-4,10.07,11.33,29,11.33,29l.5,42.31s-5.29,4.53-6.8,5.79-1,3.53-2.26,5.29-3.53,4-2.77,5a2.06,2.06,0,0,0,2.77.5,20.56,20.56,0,0,0,2.51-2.77v4.28s.51,2.77,2.52,2a3.09,3.09,0,0,0,2-2.77,5.39,5.39,0,0,0,4.28-.51c2.52-1.26,3.27-2,3.53-4.28s.25-8.56.75-9.82,3.28-16.12,7-29.22a69.21,69.21,0,0,0,2.52-24.68c0-2-6.8-26.19-9.32-31s-9.06-2.26-9.06-2.26" style="fill:#fff"></path><path d="M307.05,299.21a1.84,1.84,0,0,1-.93-.25,3.59,3.59,0,0,1-1.42-2.31v-3a11.85,11.85,0,0,1-1.75,1.78,2.55,2.55,0,0,1-3.44-.62c-.82-1.09.45-2.68,1.79-4.37.34-.43.68-.86,1-1.26a6.61,6.61,0,0,0,.9-2.4,5,5,0,0,1,1.45-3c1.35-1.13,5.69-4.84,6.62-5.64l-.5-42c-.76-1.82-9.85-23.54-11.32-28.94-1.58-5.78,4-10.39,4.2-10.59a.5.5,0,0,1,.7.07.5.5,0,0,1-.07.71c-.05,0-5.27,4.39-3.86,9.55,1.48,5.45,11.21,28.67,11.31,28.9a.43.43,0,0,1,0,.19l.5,42.31a.49.49,0,0,1-.17.39s-5.29,4.53-6.81,5.79a4.15,4.15,0,0,0-1.12,2.44,7.32,7.32,0,0,1-1.06,2.76c-.29.41-.64.86-1,1.3-.79,1-2.12,2.68-1.77,3.15a1.54,1.54,0,0,0,2.09.38,18,18,0,0,0,2.4-2.66.5.5,0,0,1,.89.31v4.28a2.65,2.65,0,0,0,.93,1.53,1,1,0,0,0,.92,0,2.59,2.59,0,0,0,1.69-2.3.49.49,0,0,1,.69-.46,5,5,0,0,0,3.87-.5c2.48-1.24,3-1.89,3.25-3.89.09-.82.15-2.21.21-3.68.14-3.26.25-5.46.58-6.27.15-.38.6-2.47,1.18-5.12,1.24-5.72,3.33-15.29,5.85-24a67.61,67.61,0,0,0,2.56-23.27c0-.56-.06-1-.06-1.27,0-1.73-6.62-25.73-9.26-30.74-2.28-4.34-8.19-2.13-8.45-2a.5.5,0,1,1-.35-.93c.07,0,7-2.62,9.69,2.5,2.46,4.68,9.37,29,9.37,31.21,0,.27,0,.68.06,1.22a68.59,68.59,0,0,1-2.6,23.6c-2.51,8.73-4.59,18.28-5.83,24-.71,3.25-1.06,4.84-1.24,5.27a36.23,36.23,0,0,0-.5,5.94c-.06,1.49-.12,2.9-.22,3.76-.28,2.51-1.19,3.37-3.8,4.67a6.42,6.42,0,0,1-4.08.69,3.5,3.5,0,0,1-2.26,2.6A2.32,2.32,0,0,1,307.05,299.21Z" style="fill:#263238"></path><path d="M319.28,198l-19.61,7.63a7.2,7.2,0,0,0,.24,1.56c.26,1,.79,2.53,1.48,4.41l20-7.78C320.59,201.46,319.88,199.43,319.28,198Z" style="fill:#263238"></path><path d="M301.39,212.06a.46.46,0,0,1-.2-.05.49.49,0,0,1-.27-.28c-.75-2.06-1.24-3.51-1.5-4.45a7.52,7.52,0,0,1-.25-1.66.49.49,0,0,1,.32-.49l19.6-7.64a.5.5,0,0,1,.65.28c.57,1.4,1.27,3.37,2.09,5.86a.5.5,0,0,1-.3.62l-20,7.77A.53.53,0,0,1,301.39,212.06Zm-1.19-6.14a5.25,5.25,0,0,0,.19,1.1c.22.82.66,2.13,1.3,3.88l19-7.41c-.66-2-1.24-3.64-1.73-4.89Z" style="fill:#263238"></path><path d="M327.86,227.3a36,36,0,0,0-1.08-4.92L308.5,229.5c1,2.55,1.9,4.61,2.36,5.72l17.06-6.64C327.89,228,327.86,227.58,327.86,227.3Z" style="fill:#263238"></path><path d="M310.86,235.72a.51.51,0,0,1-.46-.31c-.46-1.11-1.32-3.17-2.36-5.72a.46.46,0,0,1,0-.38.47.47,0,0,1,.28-.27l18.28-7.12a.46.46,0,0,1,.41,0,.49.49,0,0,1,.26.32,35.23,35.23,0,0,1,1.09,5c0,.27,0,.7.06,1.25a.51.51,0,0,1-.32.49L311,235.68A.37.37,0,0,1,310.86,235.72Zm-1.71-5.94c.84,2,1.53,3.71,2,4.79l16.26-6.33c0-.4,0-.72,0-.94a28,28,0,0,0-.92-4.25Z" style="fill:#263238"></path><path d="M325.05,216c-.54-1.93-1.13-3.95-1.74-5.95l-19.58,7.62c.74,1.88,1.52,3.84,2.29,5.75Z" style="fill:#263238"></path><path d="M306,223.92a.48.48,0,0,1-.46-.32c-.77-1.9-1.56-3.86-2.3-5.75a.55.55,0,0,1,0-.38.45.45,0,0,1,.28-.26l19.58-7.63a.47.47,0,0,1,.4,0,.48.48,0,0,1,.26.3c.61,2,1.2,4,1.74,6a.5.5,0,0,1-.3.6l-19,7.41A.58.58,0,0,1,306,223.92Zm-1.64-6c.62,1.58,1.27,3.21,1.92,4.81l18.15-7.07c-.47-1.63-1-3.31-1.46-5Z" style="fill:#263238"></path><path d="M325.34,252a67.65,67.65,0,0,0,2.56-23.79,40.07,40.07,0,0,0-17.61,5.64l.95,2.29.5,42.31s-5.29,4.53-6.8,5.79-1,3.53-2.26,5.29-3.53,4-2.77,5a2.06,2.06,0,0,0,2.77.5,20.56,20.56,0,0,0,2.51-2.77v4.28s.51,2.77,2.52,2a3.09,3.09,0,0,0,2-2.77,5.39,5.39,0,0,0,4.28-.51c2.52-1.26,3.27-2,3.53-4.28s.25-8.56.75-9.82S321.57,265.08,325.34,252Z" style="fill:#fff"></path><path d="M307.05,299.21a1.84,1.84,0,0,1-.93-.25,3.59,3.59,0,0,1-1.42-2.31v-3a11.85,11.85,0,0,1-1.75,1.78,2.55,2.55,0,0,1-3.44-.62c-.82-1.09.45-2.68,1.79-4.37.34-.43.68-.86,1-1.26a6.61,6.61,0,0,0,.9-2.4,5,5,0,0,1,1.45-3c1.35-1.13,5.69-4.84,6.62-5.64l-.5-42c-.11-.26-.44-1-.91-2.19a.5.5,0,0,1,.21-.63,40.29,40.29,0,0,1,17.83-5.71.49.49,0,0,1,.53.47l0,.38a68.24,68.24,0,0,1-2.6,23.58l-.48-.14.48.14c-2.51,8.73-4.59,18.28-5.83,24-.71,3.25-1.06,4.84-1.24,5.27a36.23,36.23,0,0,0-.5,5.94c-.06,1.49-.12,2.9-.22,3.76-.28,2.51-1.19,3.37-3.8,4.67a6.42,6.42,0,0,1-4.08.69,3.5,3.5,0,0,1-2.26,2.6A2.32,2.32,0,0,1,307.05,299.21Zm-1.86-7.43a.51.51,0,0,1,.17,0,.5.5,0,0,1,.33.47v4.28a2.65,2.65,0,0,0,.93,1.53,1,1,0,0,0,.92,0,2.59,2.59,0,0,0,1.69-2.3.49.49,0,0,1,.69-.46,5,5,0,0,0,3.87-.5c2.48-1.24,3-1.89,3.25-3.89.09-.82.15-2.21.21-3.68.14-3.26.25-5.46.58-6.27.15-.38.6-2.47,1.18-5.12,1.24-5.72,3.33-15.29,5.85-24a67.33,67.33,0,0,0,2.57-23.12,39.3,39.3,0,0,0-16.51,5.33l.78,1.87a.43.43,0,0,1,0,.19l.5,42.31a.52.52,0,0,1-.17.39s-5.29,4.53-6.81,5.79a4.15,4.15,0,0,0-1.12,2.44,7.32,7.32,0,0,1-1.06,2.76c-.29.41-.64.86-1,1.3-.79,1-2.12,2.68-1.77,3.15a1.54,1.54,0,0,0,2.09.38,18,18,0,0,0,2.4-2.66A.51.51,0,0,1,305.19,291.78Z" style="fill:#263238"></path><polygon points="311.74 278.43 318.04 279.94 319.05 276.92 311.99 275.91 311.74 278.43" style="fill:#263238"></polygon><path d="M318.37,280.53l-7.17-1.72.35-3.47,8.16,1.17ZM312.28,278l5.43,1.31.67-2-5.94-.85Z" style="fill:#263238"></path><path d="M317,278.05a1.64,1.64,0,1,1-1.64-1.64A1.64,1.64,0,0,1,317,278.05Z" style="fill:#fff"></path><path d="M315.39,280.19a2.14,2.14,0,1,1,2.14-2.14A2.14,2.14,0,0,1,315.39,280.19Zm0-3.28a1.14,1.14,0,1,0,1.14,1.14A1.14,1.14,0,0,0,315.39,276.91Z" style="fill:#263238"></path></g><g id="freepik--character-2--inject-3"><path d="M211.09,170.37s-2.56,5.12-2.56,7.22.46,2.79-.7,4.42-4.42,3.26-3.49,4.19l2.79,2.79a87.42,87.42,0,0,0,1.4,8.85c.7,2.56,1.63,2.79,3.72,2.79a22.83,22.83,0,0,0,5.82-1.4l-.23,5.82,12.1-.93v-7.68s11.64-14.2,13.5-22.35-2.09-12.8-8.61-16.75-11.17,0-11.17,0-4-2.57-7.92-2.57-5.58,2.33-5.58,2.33-5.82-1.16-8.15,2.8S200.15,175.72,211.09,170.37Z" style="fill:#fff"></path><path d="M217.84,205.55a.5.5,0,0,1-.35-.14.48.48,0,0,1-.15-.38l.2-5.08a20,20,0,0,1-5.29,1.18c-2.36,0-3.46-.44-4.21-3.16a83.44,83.44,0,0,1-1.39-8.75L204,186.55a1,1,0,0,1-.31-.77c0-.76.87-1.44,1.92-2.31a11.05,11.05,0,0,0,1.83-1.75,3.36,3.36,0,0,0,.66-2.76c0-.4-.05-.84-.05-1.37,0-1.55,1.25-4.53,2-6.21-4.23,1.7-6.57.56-7.8-.77-2.62-2.83-2.14-8.47-.67-11,2.19-3.73,7.1-3.27,8.37-3.08a7.54,7.54,0,0,1,5.79-2.29,17,17,0,0,1,7.89,2.46c1.17-.8,5.65-3.35,11.46.18,5.56,3.37,10.95,8.06,8.84,17.3-1.79,7.83-12.21,20.83-13.49,22.41v7.5a.5.5,0,0,1-.46.5l-12.1.93Zm.23-6.82a.51.51,0,0,1,.29.1.49.49,0,0,1,.21.42l-.21,5.26,11.08-.85v-7.22a.49.49,0,0,1,.12-.32c.11-.14,11.58-14.2,13.4-22.14,1.58-6.94-.85-11.64-8.39-16.22-6.14-3.72-10.55-.08-10.59,0a.5.5,0,0,1-.59,0s-3.89-2.48-7.65-2.48-5.11,2-5.18,2.12a.49.49,0,0,1-.5.2c-.06,0-5.5-1-7.62,2.56-1.33,2.26-1.69,7.37.54,9.78,1.61,1.73,4.33,1.73,7.89,0a.5.5,0,0,1,.57.1.49.49,0,0,1,.09.57c-.69,1.4-2.5,5.38-2.5,7,0,.5,0,.93.05,1.3a4.37,4.37,0,0,1-.84,3.41,11.65,11.65,0,0,1-2,1.94c-.59.48-1.58,1.3-1.56,1.59l2.81,2.81a.54.54,0,0,1,.15.3,85.84,85.84,0,0,0,1.38,8.77c.63,2.3,1.32,2.42,3.24,2.42a22.94,22.94,0,0,0,5.65-1.36A.33.33,0,0,1,218.07,198.73Z" style="fill:#263238"></path><g style="clip-path:url(#freepik--clip-path-14--inject-3)"><path d="M231.64,172.86c-7.93,1.14-7.55,6-7.55,6s-3.78,12.1-6.81,15.88c-1.73,2.16-5.55,3.2-8.37,4.13.67,1.53,1.6,1.71,3.34,1.71a22.83,22.83,0,0,0,5.82-1.4l-.23,5.82,12.1-.93v-7.68s10.16-12.4,13-20.67A13.94,13.94,0,0,0,231.64,172.86Z" style="fill:#7E57C2"></path><path d="M231.64,172.86c-7.93,1.14-7.55,6-7.55,6s-3.78,12.1-6.81,15.88c-1.73,2.16-5.55,3.2-8.37,4.13.67,1.53,1.6,1.71,3.34,1.71a22.83,22.83,0,0,0,5.82-1.4l-.23,5.82,12.1-.93v-7.68s10.16-12.4,13-20.67A13.94,13.94,0,0,0,231.64,172.86Z" style="fill:#fff;opacity:0.5"></path></g><path d="M210.27,186c-1.14,0-1.54-2.15-1.54-4s.4-4,1.54-4,1.55,2.15,1.55,4S211.42,186,210.27,186Zm.07-1h0Zm-.07-5.94a8.22,8.22,0,0,0,0,5.86,8.08,8.08,0,0,0,0-5.86Z" style="fill:#263238"></path><path d="M223.66,182.51H211.32a.5.5,0,0,1,0-1h12.34a.5.5,0,0,1,0,1Z" style="fill:#263238"></path><path d="M243.44,174.09c1.87-8.14-2.09-12.8-8.61-16.75s-11.17,0-11.17,0-4-2.57-7.92-2.57-5.58,2.33-5.58,2.33-5.82-1.16-8.15,2.8-1.86,15.82,9.08,10.47l5.35-.7s-4,3-2.33,4.66,6.75,2.79,7.22,3.49-1.4,2.56.47,4.42,2.49-.27,3.72-.93c3.49-1.86,2.79,4.42,2.79,5.59s-3,2.56-3.72,3,4.33,4.21,6.11,5.57C233.32,192.18,241.87,181,243.44,174.09Z" style="fill:#263238"></path><path d="M230.7,196a.49.49,0,0,1-.3-.1C224,191,224,190.35,224,190a.75.75,0,0,1,.27-.48c.15-.1.4-.24.7-.41.69-.39,2.8-1.57,2.8-2.2,0-.14,0-.33,0-.57,0-1.14.19-4.14-.79-4.76q-.43-.27-1.29.18a3.71,3.71,0,0,0-.82.71,2.66,2.66,0,0,1-1.77,1h0a2.54,2.54,0,0,1-1.71-.89,3.41,3.41,0,0,1-.69-3.83,2.39,2.39,0,0,0,.15-.69,12.59,12.59,0,0,0-2.17-.91c-1.76-.65-3.94-1.46-5-2.49a1.81,1.81,0,0,1-.54-1.42,5.2,5.2,0,0,1,1.68-2.88l-3.67.48c-5,2.41-7.64,1.2-9-.25-2.62-2.83-2.14-8.47-.67-11,2.19-3.73,7.1-3.27,8.37-3.08a7.54,7.54,0,0,1,5.79-2.29,17,17,0,0,1,7.89,2.46c1.17-.8,5.65-3.35,11.46.18,5.56,3.37,10.95,8.06,8.84,17.3-1.6,7-10.23,18.29-12.84,21.59A.47.47,0,0,1,230.7,196Zm-5.53-5.84a43.31,43.31,0,0,0,5.44,4.64c2.89-3.67,10.85-14.27,12.35-20.81,1.58-6.94-.85-11.64-8.39-16.22-6.14-3.72-10.55-.08-10.59,0a.5.5,0,0,1-.59,0s-3.89-2.48-7.65-2.48-5.11,2-5.18,2.12a.49.49,0,0,1-.5.2c-.06,0-5.5-1-7.62,2.56-1.33,2.26-1.69,7.37.54,9.78,1.61,1.73,4.33,1.73,7.89,0a.42.42,0,0,1,.15,0l5.36-.7a.48.48,0,0,1,.52.3.51.51,0,0,1-.15.59c-.68.52-2.45,2.11-2.53,3.25a.79.79,0,0,0,.25.65c.87.88,2.94,1.65,4.61,2.26s2.39.9,2.67,1.31a1.77,1.77,0,0,1,0,1.52,2.42,2.42,0,0,0,.44,2.83,1.63,1.63,0,0,0,1,.6h0c.35,0,.69-.36,1.06-.74a4.79,4.79,0,0,1,1.07-.88,2.22,2.22,0,0,1,2.3-.14c1.46.92,1.32,4,1.25,5.64,0,.22,0,.4,0,.53,0,1.12-1.56,2.09-3.31,3.07Zm18.27-16.06h0Z" style="fill:#263238"></path><path d="M238.93,181.08c-2.17,0-3.4-1.7-4.81-3.63-1.62-2.22-3.63-5-7.81-6.2-7.9-2.29-11.11-.71-11.14-.69a.5.5,0,1,1-.47-.88c.14-.08,3.53-1.81,11.88.61,4.52,1.31,6.64,4.22,8.35,6.57,1.46,2,2.51,3.45,4.48,3.19a.5.5,0,1,1,.13,1A4.26,4.26,0,0,1,238.93,181.08Z" style="fill:#fff"></path><path d="M237.09,185.39a3.22,3.22,0,0,1-1.57-.45.49.49,0,0,1-.2-.68.5.5,0,0,1,.68-.2,2.23,2.23,0,0,0,1.09.33.5.5,0,0,1,.5.5A.51.51,0,0,1,237.09,185.39Z" style="fill:#fff"></path><path d="M233.82,183.45a.47.47,0,0,1-.35-.15c-.56-.54-1.15-1.18-1.78-1.86a36.7,36.7,0,0,0-6.18-5.7c-5.3-3.67-9.17-1.11-9.21-1.08a.5.5,0,0,1-.56-.83c.18-.12,4.48-3,10.34,1.09a38.65,38.65,0,0,1,6.35,5.84c.62.67,1.19,1.29,1.74,1.83a.5.5,0,0,1,0,.71A.49.49,0,0,1,233.82,183.45Z" style="fill:#fff"></path><path d="M235.07,188a13.12,13.12,0,0,1-6.51-2.06.5.5,0,1,1,.55-.83,12.13,12.13,0,0,0,6.43,1.87.5.5,0,0,1,.06,1Z" style="fill:#fff"></path><path d="M226.92,201.1s-1.63-.7-7,.93-10.7,6.75-12.1,7.45-4.42,1.86-4.42,1.86l5.12,4.19s14.2-4.19,17.92-4.66,9.78-.7,9.78-.7l.46-8.61S229.24,201.33,226.92,201.1Z" style="fill:#fff"></path><path d="M208.53,216a.52.52,0,0,1-.32-.11l-5.12-4.19a.5.5,0,0,1-.18-.47.51.51,0,0,1,.32-.39s3-1.16,4.37-1.84a20.43,20.43,0,0,0,2-1.41c2.35-1.82,6.3-4.87,10.24-6.07,4.9-1.49,6.8-1.09,7.24-1,2.35.23,9.6.46,9.68.46a.52.52,0,0,1,.35.16.5.5,0,0,1,.13.37l-.46,8.61a.51.51,0,0,1-.48.47c-.06,0-6.08.24-9.74.7s-17.7,4.6-17.84,4.64Zm-4.15-4.54,4.26,3.48c2-.58,14.26-4.16,17.75-4.59,3.11-.39,7.88-.62,9.36-.69l.42-7.64c-1.74-.06-7.31-.26-9.3-.46a.32.32,0,0,1-.14,0s-1.7-.56-6.65.95c-3.77,1.14-7.62,4.12-9.92,5.9a16.4,16.4,0,0,1-2.11,1.51C207.08,210.41,205.39,211.1,204.38,211.49Z" style="fill:#263238"></path><path d="M216.54,381.44s-6.8,3.27-10.07,4.78-6.3,3.28-4.79,5.29S214.27,393,221.33,393s10.07-1,10.57-2.52a7.38,7.38,0,0,0,0-3.52Z" style="fill:#fff"></path><path d="M213.65,393.57c-6.64,0-11.26-.28-12.37-1.76a2.16,2.16,0,0,1-.44-1.88c.42-1.66,2.85-3,5.42-4.16,3.23-1.49,10-4.75,10.06-4.78a.48.48,0,0,1,.39,0l15.36,5.54a.47.47,0,0,1,.32.35,8,8,0,0,1,0,3.8c-.65,1.95-4.16,2.86-11,2.86l-3.64,0ZM216.57,382c-1.12.54-7,3.34-9.89,4.7-1.23.56-4.51,2.07-4.87,3.5a1.19,1.19,0,0,0,.27,1c1.12,1.49,9.83,1.4,15.6,1.34l3.65,0c8.16,0,9.83-1.36,10.1-2.18a6.56,6.56,0,0,0,0-3Z" style="fill:#263238"></path><path d="M225.1,391.26H216l-2.69-8.3c-1,.47-2,1-3.12,1.49l-1.75,1,2,6.54-8.82-.5c1.51,2,12.59,1.51,19.65,1.51s10.07-1,10.57-2.52a4.56,4.56,0,0,0,.22-1.32A14.34,14.34,0,0,1,225.1,391.26Z" style="fill:#263238"></path><path d="M213.65,393.57c-6.64,0-11.26-.28-12.37-1.76a.52.52,0,0,1,0-.54.48.48,0,0,1,.47-.26l8.1.46L208,385.61a.52.52,0,0,1,.23-.58l1.75-1,3.16-1.51a.49.49,0,0,1,.41,0,.47.47,0,0,1,.28.3l2.57,7.95h8.7a13.83,13.83,0,0,0,6.76-2,.47.47,0,0,1,.51,0,.48.48,0,0,1,.25.45,5.18,5.18,0,0,1-.24,1.46c-.65,1.95-4.16,2.86-11,2.86l-3.64,0Zm-8.48-1.36a107.41,107.41,0,0,0,12.51.34l3.65,0c8.16,0,9.83-1.36,10.1-2.18a1.68,1.68,0,0,0,.07-.24,14.32,14.32,0,0,1-6.4,1.66H216a.5.5,0,0,1-.48-.35l-2.51-7.75-2.6,1.24-1.37.8,1.9,6.17a.52.52,0,0,1-.09.45.46.46,0,0,1-.42.19Z" style="fill:#263238"></path><path d="M209,276.66s-6.55,29.72-8.06,38.79,0,16.12,2.77,23.17,11.58,31,12.34,33.75,1.51,6.55,1.51,6.55a3.4,3.4,0,0,0,1,2.77c1.26,1.26,8.31,3.27,9.57,2.52s1-3.53,1-7.06-4.78-30.22-4.78-39.79-5.79-18.64-3.78-23.42,10.83-36.27,11.59-38-14.86-3.27-18.39-3.27S209,276.66,209,276.66Z" style="fill:#263238"></path><path d="M227.16,384.87c-2.65,0-7.89-1.76-9-2.83a3.92,3.92,0,0,1-1.16-3.1c-.11-.56-.8-3.94-1.48-6.44-.77-2.81-9.64-26.85-12.33-33.7a41.76,41.76,0,0,1-2.8-23.43c1.5-9,8-38.52,8.07-38.81,0,0,0,0,0,0,.05-.18,1.41-4.39,5.26-4.39,2.52,0,17.45,1.19,18.77,3.18a.85.85,0,0,1,.08.8c-.28.65-1.81,5.89-3.59,11.95-3,10.29-6.75,23.1-8,26.07-1,2.35.09,6,1.33,10.17,1.17,4,2.49,8.43,2.49,13.06,0,5.92,1.88,18.67,3.25,28,.86,5.84,1.53,10.45,1.53,11.82,0,.52,0,1,0,1.51,0,3,0,5.17-1.27,6A2.47,2.47,0,0,1,227.16,384.87ZM209.47,276.8c-.22,1-6.58,29.89-8.05,38.73a40.86,40.86,0,0,0,2.74,22.91c2.7,6.86,11.59,31,12.36,33.8s1.51,6.54,1.52,6.58a.54.54,0,0,1,0,.18,2.91,2.91,0,0,0,.87,2.33c1.19,1.19,8,3,9,2.45.83-.5.8-2.63.78-5.1,0-.49,0-1,0-1.52,0-1.3-.7-6.11-1.52-11.67-1.38-9.34-3.26-22.14-3.26-28.13,0-4.48-1.3-8.89-2.45-12.77-1.3-4.39-2.41-8.17-1.29-10.84,1.23-2.92,5.12-16.24,8-26,1.79-6.11,3.21-11,3.59-12-1.11-1.2-13.5-2.68-17.89-2.68C210.76,273.13,209.56,276.52,209.47,276.8Z" style="fill:#263238"></path><path d="M240.47,274.9s0,6.55-1.51,10.58-5.8,11.59-8.06,15.61-6.55,18.64-6.05,22.42,4.54,22.41,6.3,28.46.5,24.68.75,28,1.52,5.54,1,7.3l-.5,1.76a9.51,9.51,0,0,1-6.55-1.26c-3.53-2-8.81-3.52-9.57-5.29s-1.51-3.77-.76-5,1-6.05,1-6.05S212,351.47,210,338.12s-6.8-24.94-5.79-35.26.25-28,.25-28,24.18.25,29.47-.5S240.47,274.9,240.47,274.9Z" style="fill:#7E57C2"></path><path d="M230.93,389.63a10.75,10.75,0,0,1-5.32-1.46,43.88,43.88,0,0,0-4.18-2c-2.71-1.19-5-2.21-5.6-3.52-.81-1.89-1.6-4-.72-5.49.55-.93.85-4.4.93-5.74-.3-1.3-4.61-20.39-6.54-33.22-.74-4.88-1.84-9.51-2.91-14-1.82-7.61-3.53-14.79-2.89-21.4,1-10.17.26-27.71.25-27.89a.57.57,0,0,1,.14-.37.56.56,0,0,1,.37-.15c.24,0,24.2.24,29.39-.5,5.38-.77,6.82.5,7,.65a.47.47,0,0,1,.15.35c0,.27,0,6.69-1.55,10.76-1.46,3.91-5.45,11-7.83,15.22l-.26.46c-2.36,4.2-6.45,18.56-6,22.1s4.5,22.29,6.28,28.39c1.27,4.34,1,14.93.83,21.93-.07,2.9-.13,5.19-.06,6.13a22.45,22.45,0,0,0,.66,3.64,7.81,7.81,0,0,1,.33,3.84l-.5,1.76a.53.53,0,0,1-.36.35A7.7,7.7,0,0,1,230.93,389.63ZM205,275.41c.12,3,.63,18.25-.27,27.5-.63,6.44,1.07,13.55,2.86,21.06,1.07,4.5,2.18,9.15,2.93,14.07,2,13.18,6.49,33,6.54,33.21a.66.66,0,0,1,0,.14c0,.5-.28,4.95-1.08,6.27-.6,1,0,2.8.79,4.59.4.94,2.78,2,5.08,3a47.17,47.17,0,0,1,4.28,2.06,9.37,9.37,0,0,0,5.9,1.26l.42-1.47a7,7,0,0,0-.34-3.32,22.57,22.57,0,0,1-.68-3.81c-.08-1,0-3.3.05-6.22.17-6.95.43-17.44-.79-21.63-1.84-6.3-5.82-24.85-6.31-28.53-.54-4,3.84-18.72,6.1-22.73l.26-.47c2.37-4.2,6.33-11.23,7.77-15.08,1.29-3.44,1.45-8.88,1.47-10.13-.46-.25-2.05-.84-6-.28C229.1,275.59,208.63,275.44,205,275.41Z" style="fill:#263238"></path><g style="clip-path:url(#freepik--clip-path-15--inject-3)"><path d="M233.92,274.4c-4.76.68-24.83.54-28.78.51l-.66.78c.13,3.53.6,18.14-.28,27.17-1,10.32,3.78,21.91,5.79,35.26s6.55,33.24,6.55,33.24-.25,4.79-1,6.05,0,3.27.76,5,6,3.28,9.57,5.29a9.51,9.51,0,0,0,6.55,1.26l.5-1.76c.51-1.76-.75-4-1-7.3-.06-.86,0-2.75,0-5.19-3.42-2.9-7.46-6.15-10.12-10.64-6-10.2-1.51-11.33-.38-17.76s-4.91-3.78-4.54-6.42,3.41-8.32,3.41-11.72-7.94,7.94-8.7,3.4,1.89-16.25,1.89-22.3,11.72-20.41,17.39-24.19a20.33,20.33,0,0,0,7.56-9.44l-4.09-1.33Z" style="opacity:0.15"></path></g><path d="M235.3,208.78a68.82,68.82,0,0,0-15.83,1.63,27,27,0,0,0-13.5,7.45c-1.87,1.86-3.73,9.31-4.19,15.59s-1.87,25.37-2.33,30.73-4.42,7.68,4,10.94,35.38,3.72,37.94.7,2.33-12.57,2.33-16.07,5.12-20,3.49-30.72S240.88,208.08,235.3,208.78Z" style="fill:#fff"></path><path d="M227.14,278.38c-9,0-19.48-1.07-23.91-2.8-6.34-2.46-6.07-4.51-5-7.93a17,17,0,0,0,.77-3.52c.4-4.56,1.49-19.31,2.07-27.23l.26-3.49c.45-6,2.29-13.87,4.33-15.91a27.55,27.55,0,0,1,13.74-7.58,69.29,69.29,0,0,1,15.92-1.64c6-.7,10.75,9.86,12.39,20.67,1.15,7.56-1,17.86-2.42,24.68a46.12,46.12,0,0,0-1.06,6.12v.82c0,4.09,0,12.61-2.45,15.57C240.41,277.7,234.26,278.38,227.14,278.38Zm7.3-69.11a68,68,0,0,0-14.86,1.62,26.57,26.57,0,0,0-13.26,7.32c-1.68,1.68-3.57,8.81-4,15.28L202,237c-.59,7.92-1.67,22.67-2.07,27.24a18,18,0,0,1-.81,3.71c-.89,3-1.34,4.47,4.45,6.72,8.72,3.39,35.15,3.48,37.38.84s2.22-11.25,2.21-14.92v-.82a43.88,43.88,0,0,1,1.08-6.33c1.41-6.75,3.54-16.94,2.41-24.32-1.54-10.1-6-20.48-11.31-19.83h-.92Z" style="fill:#263238"></path><g style="clip-path:url(#freepik--clip-path-16--inject-3)"><path d="M241.35,275.82c1.45-1.72,2-5.55,2.21-9.17-2.7-.68-8.09,1.21-13.81,1.46-8.69.37-4.91-.76-2.64-5.67a93.52,93.52,0,0,0,4.16-11.72,22.32,22.32,0,0,0-6.05,0c-2.16.51-8.69-3.4-8.69-3.4s7.93-1.89,8.69-4.54-11,.38-11,.38l-13.51,4.11c-.51,6.85-1,14-1.3,16.91-.47,5.35-4.42,7.68,4,10.94S238.79,278.84,241.35,275.82Z" style="fill:#7E57C2"></path><path d="M241.35,275.82c1.45-1.72,2-5.55,2.21-9.17-2.7-.68-8.09,1.21-13.81,1.46-8.69.37-4.91-.76-2.64-5.67a93.52,93.52,0,0,0,4.16-11.72,22.32,22.32,0,0,0-6.05,0c-2.16.51-8.69-3.4-8.69-3.4s7.93-1.89,8.69-4.54-11,.38-11,.38l-13.51,4.11c-.51,6.85-1,14-1.3,16.91-.47,5.35-4.42,7.68,4,10.94S238.79,278.84,241.35,275.82Z" style="fill:#fff;opacity:0.5"></path></g><path d="M241.12,212.5s-9.32,29.56-13.74,37.71-6.28,10.24-6.28,10.24l5.12.7s8.61-13,11.4-19.78,6.52-22.82,6.52-22.82Z" style="fill:#263238"></path><path d="M226.22,261.65h-.07L221,261a.51.51,0,0,1-.4-.32.5.5,0,0,1,.09-.51s1.9-2.19,6.22-10.15,13.61-37.32,13.7-37.62a.49.49,0,0,1,.92-.07l3,6.05a.56.56,0,0,1,0,.34c0,.16-3.77,16.18-6.54,22.89s-11.37,19.74-11.46,19.87A.49.49,0,0,1,226.22,261.65Zm-4.2-1.57,3.95.53c1.23-1.87,8.67-13.33,11.19-19.44s6-20.79,6.45-22.55l-2.39-4.79c-1.8,5.64-9.45,29.35-13.4,36.62A87.84,87.84,0,0,1,222,260.08Z" style="fill:#263238"></path><path d="M221.1,260.45l-23.28-15.83s-14.43,23.51-15.13,24.68S179,273,183.15,277s20.26,16.76,23.28,17.22,8.61.47,9.78-2.32,10-30.73,10-30.73Z" style="fill:#263238"></path><path d="M209.57,294.94a21.68,21.68,0,0,1-3.21-.24c-3.26-.5-19.54-13.57-23.55-17.36s-1.89-6.48-.91-7.8a5,5,0,0,0,.36-.5c.69-1.15,15-24.44,15.13-24.68a.51.51,0,0,1,.32-.22.48.48,0,0,1,.39.07L221.28,260l5,.69a.51.51,0,0,1,.35.22.48.48,0,0,1,.05.42c-.36,1.14-8.86,28-10,30.77C215.74,294.3,212.51,294.94,209.57,294.94ZM198,245.33c-2,3.26-14.22,23.17-14.85,24.23-.1.16-.25.36-.41.58-1,1.34-2.51,3.36.79,6.48,4.29,4.05,20.19,16.66,23,17.09,3.17.49,8.25.35,9.24-2s8.55-26.13,9.81-30.11L221,261a.49.49,0,0,1-.21-.08Z" style="fill:#263238"></path><path d="M216.21,291.88c1.16-2.8,10-30.73,10-30.73l-5.12-.7L206.43,294.2C209.46,294.67,215,294.67,216.21,291.88Z" style="fill:#fff"></path><path d="M209.57,294.94a21.68,21.68,0,0,1-3.21-.24.51.51,0,0,1-.37-.25.52.52,0,0,1,0-.44l14.67-33.76a.5.5,0,0,1,.52-.29l5.13.7a.51.51,0,0,1,.35.22.48.48,0,0,1,.05.42c-.36,1.14-8.86,28-10,30.77h0C215.74,294.3,212.51,294.94,209.57,294.94Zm-2.42-1.14c3.18.37,7.67.11,8.6-2.12h0c1.05-2.52,8.55-26.13,9.81-30.11L221.4,261Z" style="fill:#263238"></path><path d="M226,212.5a13.68,13.68,0,0,0-7.91-.93c-4.89.7-11.64,5.59-13.73,9.31s-6.52,10-10.24,12.34-10,8.38-10,12.1,2.32,10.94,8.38,11.41,14.89-10.24,16.29-10.71,11.17-3.72,18.16-8.84" style="fill:#fff"></path><path d="M192.85,257.24h-.42c-6.62-.51-8.84-8.39-8.84-11.91,0-4.08,6.56-10.23,10.24-12.53s8-8.52,10.07-12.15,8.85-8.81,14.1-9.56a14.08,14.08,0,0,1,8.22,1,.5.5,0,1,1-.47.88,13.44,13.44,0,0,0-7.61-.87c-4.84.69-11.4,5.56-13.37,9.06-2.09,3.72-6.59,10.13-10.41,12.51s-9.77,8.33-9.77,11.68,2,10.45,7.91,10.91c4.18.33,10.14-5.33,13.34-8.36a12.15,12.15,0,0,1,2.76-2.32c2.6-.87,11.59-4.06,18-8.78a.5.5,0,0,1,.59.81c-6.36,4.67-14.91,7.79-18.29,8.92a17.82,17.82,0,0,0-2.39,2.09C203.1,251.85,197.42,257.24,192.85,257.24Z" style="fill:#263238"></path><g style="clip-path:url(#freepik--clip-path-17--inject-3)"><path d="M224.46,230.69c-.75-5.67-6.8-7.56-12.85-.76s-21.16,11.72-20.41,14.37,15.88-4.54,14-1.52-9.83,9.45-15.88,10.21c-.93.12-1.79.23-2.58.36a7.81,7.81,0,0,0,5.74,3.38c6.05.46,14.89-10.24,16.29-10.71a85.53,85.53,0,0,0,8.86-3.52C219.12,241.2,225.13,235.65,224.46,230.69Z" style="fill:#7E57C2"></path><path d="M224.46,230.69c-.75-5.67-6.8-7.56-12.85-.76s-21.16,11.72-20.41,14.37,15.88-4.54,14-1.52-9.83,9.45-15.88,10.21c-.93.12-1.79.23-2.58.36a7.81,7.81,0,0,0,5.74,3.38c6.05.46,14.89-10.24,16.29-10.71a85.53,85.53,0,0,0,8.86-3.52C219.12,241.2,225.13,235.65,224.46,230.69Z" style="fill:#fff;opacity:0.5"></path></g><path d="M218.82,248.13a21.26,21.26,0,0,1-8.89-1.66.51.51,0,0,1-.22-.67.5.5,0,0,1,.67-.23c.06,0,6.5,3.14,16.64.43a.5.5,0,0,1,.26,1A32.63,32.63,0,0,1,218.82,248.13Z" style="fill:#263238"></path></g><g id="freepik--character-1--inject-3"><path d="M126.16,153.89s-3.49,4.14-3.27,5.89,1.31,5.45.87,6.54-3.7,3.71-3.7,4.8,3.27,1.09,3.27,1.09.43,9.82,1.74,10.69,9.38,1.53,9.38,1.53l2.18,6.54,12.22-6.11,1.31-7.63s5-11.34,1.52-17.89-11.12-10.47-17-10.47A10,10,0,0,0,126.16,153.89Z" style="fill:#fff"></path><path d="M136.63,191.47a.43.43,0,0,1-.19,0,.47.47,0,0,1-.28-.3l-2.08-6.23c-1.68-.15-8-.74-9.28-1.58s-1.81-7.84-2-10.62c-1.16,0-3.29-.31-3.29-1.58,0-.76.82-1.69,2.18-3.12a10,10,0,0,0,1.56-1.86c.24-.6-.19-2.64-.5-4.13-.17-.81-.33-1.59-.4-2.17-.24-1.86,2.85-5.63,3.35-6.23a10.37,10.37,0,0,1,8.92-5.24,21.28,21.28,0,0,1,17.45,10.74c3.48,6.51-1.05,17.28-1.48,18.26l-1.3,7.58a.52.52,0,0,1-.27.36l-12.21,6.11A.59.59,0,0,1,136.63,191.47Zm-2-42.1a9.4,9.4,0,0,0-8.06,4.75l-.06.09c-1.3,1.54-3.3,4.4-3.16,5.51.07.54.22,1.29.39,2.09.48,2.31.78,3.88.45,4.7a9.69,9.69,0,0,1-1.76,2.18c-.72.75-1.91,2-1.91,2.43,0,.23,1.27.59,2.77.59a.5.5,0,0,1,.5.48c.2,4.57.84,9.81,1.52,10.29.88.59,6.07,1.2,9.14,1.45a.51.51,0,0,1,.44.34l2,6,11.47-5.73,1.26-7.39a.36.36,0,0,1,0-.11c.05-.11,4.88-11.2,1.54-17.45A20.21,20.21,0,0,0,134.67,149.37Zm-8.51,4.52h0Z" style="fill:#263238"></path><g style="clip-path:url(#freepik--clip-path-18--inject-3)"><path d="M138.16,165.67s1.64,8.39-.62,10.66c-1.71,1.7-9.2,4.48-12.64,6.4a1.35,1.35,0,0,0,.17.17c1.31.87,9.38,1.53,9.38,1.53l2.18,6.54,12.22-6.11,1.31-7.63s4.6-10.43,1.91-17a10.31,10.31,0,0,0-4.71-1.62Z" style="fill:#7E57C2"></path><path d="M138.16,165.67s1.64,8.39-.62,10.66c-1.71,1.7-9.2,4.48-12.64,6.4a1.35,1.35,0,0,0,.17.17c1.31.87,9.38,1.53,9.38,1.53l2.18,6.54,12.22-6.11,1.31-7.63s4.6-10.43,1.91-17a10.31,10.31,0,0,0-4.71-1.62Z" style="fill:#fff;opacity:0.5"></path></g><path d="M128.51,165.45c0,.88-.36,1.61-.8,1.61s-.81-.73-.81-1.61.36-1.62.81-1.62S128.51,164.56,128.51,165.45Z"></path><path d="M129.92,162.12a.5.5,0,0,1-.35-.15c-1.53-1.53-4-.32-4-.3a.5.5,0,0,1-.67-.23.49.49,0,0,1,.22-.67c.13-.06,3.16-1.55,5.21.5a.5.5,0,0,1,0,.7A.51.51,0,0,1,129.92,162.12Z" style="fill:#263238"></path><path d="M140.06,379.81s-2.74,3.14-9.41,4.71-3.53,5.88-1.57,6.67,20.8.39,24.72-.79,3.14-3.92,3.14-7.45S140.06,379.81,140.06,379.81Z" style="fill:#fff"></path><path d="M136.36,392.1c-3.7,0-6.7-.14-7.47-.45-1.22-.49-2.92-2.22-2.78-4.07.08-1.16.92-2.72,4.42-3.55,6.41-1.51,9.13-4.52,9.16-4.55a.49.49,0,0,1,.36-.17c1.44,0,14.12-.25,16.81,2.38a1.74,1.74,0,0,1,.58,1.26c0,.52,0,1,0,1.5.1,2.85.18,5.32-3.53,6.43C151.33,391.67,142.79,392.1,136.36,392.1Zm3.92-11.8c-.68.69-3.57,3.31-9.52,4.7-2.3.55-3.57,1.46-3.66,2.65a3.68,3.68,0,0,0,2.16,3.08c1.84.73,20.62.33,24.4-.8,3-.9,2.91-2.71,2.81-5.45,0-.49,0-1,0-1.53a.74.74,0,0,0-.28-.54C154.17,380.46,144.23,380.24,140.28,380.3Z" style="fill:#263238"></path><path d="M136.36,392.1c-3.7,0-6.7-.14-7.47-.45a5,5,0,0,1-2.43-2.37.5.5,0,0,1,.05-.5.49.49,0,0,1,.46-.21c4.92.53,17.65,1.49,29.63-1a.5.5,0,0,1,.58.65,4.39,4.39,0,0,1-3.24,2.69h0C151.33,391.67,142.79,392.1,136.36,392.1Zm-8.46-2.43a3.89,3.89,0,0,0,1.36,1.06c1.84.73,20.62.33,24.4-.8h0a4.16,4.16,0,0,0,2.07-1.2C144.71,390.87,133.29,390.19,127.9,389.67Z" style="fill:#263238"></path><path d="M122.41,263.66a269.39,269.39,0,0,0,2,40.81c2.75,20,10.2,40.42,12.56,51a100.82,100.82,0,0,1,2,22s-1.57,1.56-.79,3.13.79,2.36,3.93,3.54,10.59,3.92,14.52,3.14,4.31-5.11,5.1-9.81,1.57-32.57-1.57-45.13-3.93-27.86-2-36.89,4.31-10.59,5.49-16.48.72-16,.72-16S132.22,271.11,122.41,263.66Z" style="fill:#263238"></path><path d="M155,387.91c-3.79,0-9.17-1.84-13.11-3.32-2.81-1-3.28-1.83-3.94-3.23l-.25-.54a3.33,3.33,0,0,1,.73-3.56,100.24,100.24,0,0,0-1.95-21.67c-.77-3.46-2.09-8-3.61-13.19-3.16-10.86-7.11-24.38-9-37.86a272.24,272.24,0,0,1-2-40.9.47.47,0,0,1,.28-.43.51.51,0,0,1,.52.05c9.51,7.23,41.18-.72,41.5-.8a.49.49,0,0,1,.42.09.46.46,0,0,1,.2.37c0,.42.45,10.26-.73,16.14a29.39,29.39,0,0,1-2.23,6.58,46.45,46.45,0,0,0-3.27,9.91c-1.94,8.93-1.11,24.35,2,36.66,3.15,12.59,2.4,40.43,1.58,45.33l-.17,1c-.7,4.31-1.35,8.38-5.33,9.18A8.75,8.75,0,0,1,155,387.91ZM122.88,264.59a271.32,271.32,0,0,0,2,39.81c1.85,13.42,5.77,26.89,8.93,37.72,1.53,5.24,2.85,9.76,3.62,13.25a102.53,102.53,0,0,1,2,22.1.53.53,0,0,1-.15.34s-1.3,1.34-.69,2.56l.27.56c.55,1.18.82,1.77,3.38,2.73s10.38,3.89,14.25,3.12c3.29-.66,3.84-4.06,4.53-8.36l.17-1.05c.81-4.85,1.56-32.44-1.56-44.92-3.16-12.64-4-27.9-2-37.11a47.2,47.2,0,0,1,3.32-10.1,28.35,28.35,0,0,0,2.17-6.38c1-4.93.81-13,.74-15.28C159.38,264.67,132.83,270.76,122.88,264.59Zm16,112.87h0Z" style="fill:#263238"></path><path d="M147.61,384.55a.52.52,0,0,1-.48-.37c-.53-1.87.7-3.88,1.09-4.45-.07-1.5-.51-12.47,0-20.7.62-9.87-.28-23.07-4.65-30.53-4.73-8.07-5.32-44.5-5.34-46.05a.5.5,0,0,1,.49-.51.53.53,0,0,1,.51.49c0,.38.61,37.72,5.21,45.56,5.64,9.63,5.09,26.24,4.78,31.1-.54,8.76,0,20.65,0,20.77a.46.46,0,0,1-.1.32s-1.51,2.05-1,3.73a.5.5,0,0,1-.34.62Z" style="fill:#fff"></path><path d="M138.45,279.61a.5.5,0,0,1-.5-.5V275a.5.5,0,0,1,.5-.5.5.5,0,0,1,.5.5v4.16A.5.5,0,0,1,138.45,279.61Z" style="fill:#fff"></path><path d="M127.91,140.59s1.53,4.14-.44,4.79-6.32-1.52-7,2.62,3.93,6.76,6.76,6.76,5.89-1.74,6.77.88-3.28,5.45-1.31,7,4.8,2.18,5.45,3-.44,4.58.44,4.8,3.92,1.09,3.92-.44-1.74-4.14.87-4.14,4.8,1.31,4.37,5.23-4.37,4.8-3.93,5.89,4.15,3.27,5.45,3.27,4.15-8.07,7.42-15.27,3.71-15-.65-19.63-10.69-4.36-12-4.36,3.27-3.92-2.18-6.11S126.82,132.08,127.91,140.59Z" style="fill:#263238"></path><path d="M149.28,180.78c-1.42,0-5.38-2.25-5.91-3.58-.31-.77.37-1.31,1.15-1.94a6.07,6.07,0,0,0,2.74-4.19,4.44,4.44,0,0,0-.79-3.57,4.07,4.07,0,0,0-3.07-1.11,1.18,1.18,0,0,0-.85.23c-.23.31,0,1.14.17,1.8A6.48,6.48,0,0,1,143,170a1.23,1.23,0,0,1-.47,1c-.81.62-2.36.34-3.91-.06l-.16,0c-.87-.22-.78-1.43-.67-2.84a5.58,5.58,0,0,0-.05-2.14,6.63,6.63,0,0,0-1.95-1.09A16.73,16.73,0,0,1,132.4,163c-1.37-1.06-.53-2.57.21-3.89.63-1.13,1.28-2.29.93-3.33-.45-1.35-1.56-1.22-3.64-.84a15.47,15.47,0,0,1-2.65.31,8.4,8.4,0,0,1-5.92-2.83,5.45,5.45,0,0,1-1.33-4.51c.53-3.33,3.24-3.12,5.22-3a5.89,5.89,0,0,0,2.09,0,.79.79,0,0,0,.49-.44c.46-1-.1-3-.36-3.71l0-.11c-.35-2.75.33-4.82,2-6.13,3-2.32,8.64-1.66,12.61-.07a4.78,4.78,0,0,1,2.84,2.36,4.37,4.37,0,0,1-.37,3.44c0,.08-.08.18-.12.27,5.12,0,9.16,1.53,12,4.52,4.14,4.35,4.43,12.08.74,20.18-1,2.16-1.9,4.35-2.79,6.47C151.52,178.43,150.43,180.78,149.28,180.78Zm-5.88-15.39a5,5,0,0,1,3.82,1.44,5.41,5.41,0,0,1,1,4.35,7.06,7.06,0,0,1-3.1,4.86c-.35.27-.82.65-.85.81.35.86,3.85,2.93,5,2.93.7-.27,2.62-4.82,4.16-8.48.89-2.13,1.82-4.32,2.8-6.49,3.51-7.72,3.3-15-.56-19.08-2.68-2.82-6.58-4.26-11.46-4.21h-.17a.68.68,0,0,1-.63-.31c-.25-.36-.07-.78.18-1.36a3.4,3.4,0,0,0,.36-2.65,3.8,3.8,0,0,0-2.28-1.82c-3.84-1.54-9.07-2-11.63-.07-1.39,1.07-1.94,2.81-1.65,5.16.17.48,1,3,.3,4.43a1.83,1.83,0,0,1-1.07,1,6.75,6.75,0,0,1-2.49.09c-2.35-.18-3.8-.13-4.15,2.13a4.5,4.5,0,0,0,1.1,3.7,7.46,7.46,0,0,0,5.16,2.48,14,14,0,0,0,2.47-.3c1.88-.34,4-.73,4.77,1.52.49,1.45-.31,2.87-1,4.12-.81,1.45-1.1,2.14-.48,2.62a15.73,15.73,0,0,0,3.21,1.75,6.38,6.38,0,0,1,2.34,1.4c.42.56.34,1.66.25,2.82a6.82,6.82,0,0,0,0,1.81l.09,0c1.66.43,2.69.51,3,.24,0,0,.09-.08.09-.23a5.89,5.89,0,0,0-.26-1.35c-.26-1-.53-2,0-2.67A1.92,1.92,0,0,1,143.4,165.39ZM138.72,170Z" style="fill:#263238"></path><path d="M156.51,160a.51.51,0,0,1-.44-.26,6.13,6.13,0,0,0-1.84-1.87.49.49,0,0,1-.12-.69.5.5,0,0,1,.7-.12,7,7,0,0,1,2.14,2.21.49.49,0,0,1-.2.67A.53.53,0,0,1,156.51,160Z" style="fill:#fff"></path><path d="M151.81,156.34a.59.59,0,0,1-.22-.05c-3.68-1.77-8.84-3-12.06-1.8-5.44,2-9.68-1.89-9.86-2.06a.5.5,0,0,1,.69-.73s4,3.67,8.82,1.85c3.5-1.31,9,0,12.85,1.84a.51.51,0,0,1,.23.67A.49.49,0,0,1,151.81,156.34Z" style="fill:#fff"></path><path d="M154.13,168.2h-.06a.5.5,0,0,1-.44-.55c.17-1.78-.11-3.06-.86-3.82a4.08,4.08,0,0,0-3.38-.84,59,59,0,0,1-6.79.11.5.5,0,0,1-.49-.52.5.5,0,0,1,.52-.48,56.8,56.8,0,0,0,6.67-.11,5,5,0,0,1,4.18,1.14c1,1,1.35,2.53,1.14,4.62A.49.49,0,0,1,154.13,168.2Z" style="fill:#fff"></path><path d="M140,163h0c-2-.1-3.31-.22-3.31-.22a.5.5,0,0,1-.46-.54.49.49,0,0,1,.54-.45s1.36.11,3.28.21a.5.5,0,0,1,0,1Z" style="fill:#fff"></path><path d="M134.67,195.33s-13.52,10.47-15,18.54-.22,44.93-.22,49.3,5.24,7.41,12,8.5,26.17-.22,29-1.74,3.92-3.49,3.92-7,.22-10.69,0-11.56,0-32.07-3.7-44.72-5-16.57-10.69-17.66S134.67,195.33,134.67,195.33Z" style="fill:#fff"></path><path d="M138.58,272.56a51.46,51.46,0,0,1-7.26-.39c-7.66-1.24-12.42-4.69-12.42-9,0-.86-.05-3-.12-5.92-.29-12-.89-36.95.35-43.47,1.54-8.16,14.68-18.41,15.23-18.84h0c.4-.31,9.85-7.54,15.67-6.42,6.14,1.18,7.48,5.76,11.08,18,3,10.26,3.45,32.79,3.61,41.27,0,1.83.07,3.28.1,3.48a67.5,67.5,0,0,1,.06,7.48c0,1.56,0,3.06,0,4.19,0,3.67-1.21,5.81-4.18,7.42C158.39,271.58,147,272.56,138.58,272.56ZM135,195.73c-.14.1-13.39,10.44-14.87,18.23-1.21,6.43-.62,31.31-.33,43.26.07,2.95.12,5.08.12,5.95,0,3.79,4.44,6.86,11.58,8,6.76,1.09,26.07-.28,28.69-1.69s3.66-3.21,3.66-6.54c0-1.13,0-2.64,0-4.21,0-2.83.1-6.7,0-7.23,0-.21-.07-.84-.13-3.69-.16-8.44-.6-30.87-3.57-41-3.78-12.88-5-16.29-10.31-17.31s-14.74,6.14-14.86,6.23Z" style="fill:#263238"></path><g style="clip-path:url(#freepik--clip-path-19--inject-3)"><path d="M162,268.83c-2.83.22-7.53.47-13.91.47-11,0-16.63-3.4-17-5.67S147,265.52,150,264s-7.94-14.74-10.58-19.65,5.29-1.89,9.82-3.4-7.93-6.43-9.45-9.45,8.32-.38,12.1-1.51,2.64-3.78-4.16-2.65S133,226.22,133,226.22a160.36,160.36,0,0,0-14.11,7.94c.06,12.59.51,26.44.51,29,0,4.36,5.24,7.41,12,8.5s26.17-.22,29-1.74A10.18,10.18,0,0,0,162,268.83Z" style="fill:#7E57C2"></path><path d="M162,268.83c-2.83.22-7.53.47-13.91.47-11,0-16.63-3.4-17-5.67S147,265.52,150,264s-7.94-14.74-10.58-19.65,5.29-1.89,9.82-3.4-7.93-6.43-9.45-9.45,8.32-.38,12.1-1.51,2.64-3.78-4.16-2.65S133,226.22,133,226.22a160.36,160.36,0,0,0-14.11,7.94c.06,12.59.51,26.44.51,29,0,4.36,5.24,7.41,12,8.5s26.17-.22,29-1.74A10.18,10.18,0,0,0,162,268.83Z" style="fill:#fff;opacity:0.5"></path></g><path d="M137.32,228s9,0,14.12-2.75" style="fill:#fff"></path><path d="M137.32,228.45a.5.5,0,0,1,0-1c.09,0,9,0,13.89-2.69a.5.5,0,1,1,.47.88C146.53,228.42,137.69,228.45,137.32,228.45Z" style="fill:#263238"></path><path d="M153.72,238.52h-.08c-13.09-2.23-18.68-9.06-18.91-9.35a.5.5,0,0,1,.78-.62c.06.07,5.61,6.82,18.29,9a.5.5,0,0,1-.08,1Z" style="fill:#263238"></path><path d="M158.16,258.79a.79.79,0,0,1-.2,0,43.89,43.89,0,0,1-5-2.64.5.5,0,0,1-.17-.69.51.51,0,0,1,.69-.17,40.39,40.39,0,0,0,4.9,2.58.5.5,0,0,1-.2,1Z" style="fill:#263238"></path><path d="M148.9,253.2a.49.49,0,0,1-.3-.1,56.15,56.15,0,0,1-12.52-13.71.51.51,0,0,1,.17-.69.51.51,0,0,1,.69.18,54.9,54.9,0,0,0,12.27,13.43.5.5,0,0,1-.31.89Z" style="fill:#263238"></path><path d="M132.49,190.1l-.44,7.63s10-3.92,12.65-5.89,8.07-2.61,8.07-2.61l-.65-7.42s-5-.44-7.85,1.09S132.49,190.1,132.49,190.1Z" style="fill:#fff"></path><path d="M132.05,198.23a.52.52,0,0,1-.29-.09.51.51,0,0,1-.21-.44l.44-7.63a.5.5,0,0,1,.23-.39c.37-.24,9-5.7,11.81-7.22s7.92-1.17,8.13-1.15a.5.5,0,0,1,.46.46l.65,7.41a.49.49,0,0,1-.44.54c-.05,0-5.35.66-7.83,2.52-2.64,2-12.35,5.8-12.76,6A.63.63,0,0,1,132.05,198.23Zm.92-7.85-.37,6.6c2.34-.94,9.67-3.94,11.8-5.54s6.42-2.43,7.83-2.65l-.57-6.51c-1.24-.06-4.95-.13-7.16,1.06C142,184.71,134.36,189.51,133,190.38Z" style="fill:#263238"></path><path d="M149.88,206s-5.5-7.06-12.95-6.67-17.27,16.88-21.19,22-12.56,11.38-13.35,18.83,4.71,11.38,9.81,10.21,22.37-20.41,25.12-22.37,9-3.93,11.77-9" style="fill:#fff"></path><path d="M110.42,251a8.38,8.38,0,0,1-5.54-2.08c-2.31-2.05-3.37-5.2-3-8.88.58-5.51,5.2-10.28,9.28-14.5a57.83,57.83,0,0,0,4.16-4.59c.72-.94,1.66-2.28,2.74-3.84,5-7.17,12.51-18,18.82-18.33,7.63-.41,13.14,6.57,13.37,6.87a.5.5,0,1,1-.79.61c0-.07-5.44-6.87-12.53-6.48-5.82.31-13.47,11.32-18,17.9-1.09,1.57-2,2.92-2.77,3.88a58.25,58.25,0,0,1-4.23,4.68c-4,4.1-8.46,8.74-9,13.91-.35,3.34.59,6.19,2.66,8a7.37,7.37,0,0,0,6.54,1.64c3.37-.78,12.71-10.21,18.89-16.45,2.88-2.91,5.16-5.2,6.05-5.84a27.36,27.36,0,0,1,2.94-1.7c3-1.59,6.75-3.57,8.68-7.15a.5.5,0,0,1,.68-.21.51.51,0,0,1,.2.68c-2.07,3.85-6,5.91-9.1,7.57a25.83,25.83,0,0,0-2.82,1.63c-.82.58-3.18,3-5.92,5.72-6.63,6.7-15.72,15.88-19.37,16.72A8.21,8.21,0,0,1,110.42,251Z" style="fill:#263238"></path><g style="clip-path:url(#freepik--clip-path-20--inject-3)"><path d="M131.87,221.68c-4.92,6.43-4.92,8.69-8.7,11.34s-8.31,1.89-12.09,7.18c-3,4.24-2.66,7.5-4.34,9.41a7.85,7.85,0,0,0,5.46.71c5.11-1.18,22.37-20.41,25.12-22.37,1.19-.86,3.06-1.71,5-2.82l.5-1.18s2.64-6.43,1.51-8.69S136.78,215.26,131.87,221.68Z" style="fill:#7E57C2"></path><path d="M131.87,221.68c-4.92,6.43-4.92,8.69-8.7,11.34s-8.31,1.89-12.09,7.18c-3,4.24-2.66,7.5-4.34,9.41a7.85,7.85,0,0,0,5.46.71c5.11-1.18,22.37-20.41,25.12-22.37,1.19-.86,3.06-1.71,5-2.82l.5-1.18s2.64-6.43,1.51-8.69S136.78,215.26,131.87,221.68Z" style="fill:#fff;opacity:0.5"></path></g><path d="M111.23,225.56s-3.86-.66-4.72.42-2.36,5.35-.64,5.35S111.23,225.56,111.23,225.56Z" style="fill:#fff"></path><path d="M105.87,231.83a1.18,1.18,0,0,1-1.11-.68c-.65-1.37.61-4.56,1.36-5.49,1-1.24,4.5-.71,5.2-.59a.52.52,0,0,1,.37.29.49.49,0,0,1,0,.47C111,226.83,107.76,231.83,105.87,231.83Zm3-6a3,3,0,0,0-2,.43c-.7.87-1.62,3.61-1.23,4.43,0,.08.07.11.2.11.81,0,2.88-2.42,4.52-4.88C109.9,225.9,109.37,225.86,108.87,225.86Z" style="fill:#263238"></path><path d="M113.59,223.42s-3.87-.66-4.72.41-2.36,5.36-.65,5.36S113.59,223.42,113.59,223.42Z" style="fill:#fff"></path><path d="M108.22,229.69a1.17,1.17,0,0,1-1.1-.68c-.66-1.37.61-4.56,1.36-5.49,1-1.24,4.5-.71,5.2-.59a.5.5,0,0,1,.33.76C113.38,224.69,110.12,229.69,108.22,229.69Zm3-6c-.92,0-1.73.11-2,.43-.7.86-1.63,3.61-1.24,4.42,0,.09.08.12.2.12.82,0,2.89-2.42,4.52-4.88A12.75,12.75,0,0,0,111.23,223.72Z" style="fill:#263238"></path><path d="M115.74,221.28s-3.87-.66-4.73.41-2.36,5.36-.64,5.36S115.74,221.28,115.74,221.28Z" style="fill:#fff"></path><path d="M110.37,227.55a1.17,1.17,0,0,1-1.1-.69c-.66-1.37.61-4.55,1.35-5.48,1-1.24,4.51-.71,5.2-.59a.48.48,0,0,1,.37.28.51.51,0,0,1,0,.48C115.52,222.55,112.26,227.55,110.37,227.55Zm3-6a3,3,0,0,0-2,.42c-.69.87-1.62,3.62-1.23,4.43a.18.18,0,0,0,.2.12c.81,0,2.88-2.43,4.52-4.88A12.79,12.79,0,0,0,113.37,221.58Z" style="fill:#263238"></path><path d="M161.77,273.28a45.8,45.8,0,0,1-10,1.11" style="fill:#fff"></path><path d="M151.78,274.89a.5.5,0,1,1,0-1,45.58,45.58,0,0,0,9.87-1.1.51.51,0,0,1,.61.37.5.5,0,0,1-.37.6A45.3,45.3,0,0,1,151.78,274.89Z" style="fill:#263238"></path></g><g id="freepik--Barrier--inject-3"><path d="M74.27,257.11h5.17a2.3,2.3,0,0,1,2.3,2.3V395.34a0,0,0,0,1,0,0H72a0,0,0,0,1,0,0V259.4A2.3,2.3,0,0,1,74.27,257.11Z" style="fill:#263238"></path><path d="M81.73,395.84H72a.5.5,0,0,1-.5-.5V259.4a2.8,2.8,0,0,1,2.8-2.79h5.16a2.8,2.8,0,0,1,2.8,2.79V395.34A.5.5,0,0,1,81.73,395.84Zm-9.26-1h8.76V259.4a1.8,1.8,0,0,0-1.8-1.79H74.27a1.8,1.8,0,0,0-1.8,1.79Z" style="fill:#263238"></path><path d="M99.52,396.78c0,2.06-10.15,3.73-22.67,3.73s-22.67-1.67-22.67-3.73S64.33,392,76.85,392,99.52,394.72,99.52,396.78Z" style="fill:#263238"></path><path d="M76.85,401c-9.31,0-23.17-1.13-23.17-4.23,0-2.74,11-5.24,23.17-5.24S100,394,100,396.78C100,399.88,86.16,401,76.85,401Zm0-8.47c-13.57,0-22.17,3-22.17,4.24S62.29,400,76.85,400,99,397.9,99,396.78,90.42,392.54,76.85,392.54Z" style="fill:#263238"></path><path d="M249.9,257.11h5.17a2.3,2.3,0,0,1,2.3,2.3V395.34a0,0,0,0,1,0,0H247.6a0,0,0,0,1,0,0V259.4A2.3,2.3,0,0,1,249.9,257.11Z" style="fill:#263238"></path><path d="M257.36,395.84H247.6a.5.5,0,0,1-.5-.5V259.4a2.8,2.8,0,0,1,2.8-2.79h5.16a2.8,2.8,0,0,1,2.8,2.79V395.34A.5.5,0,0,1,257.36,395.84Zm-9.26-1h8.76V259.4a1.8,1.8,0,0,0-1.8-1.79H249.9a1.8,1.8,0,0,0-1.8,1.79Z" style="fill:#263238"></path><path d="M275.15,396.78c0,2.06-10.15,3.73-22.67,3.73s-22.67-1.67-22.67-3.73S240,392,252.48,392,275.15,394.72,275.15,396.78Z" style="fill:#263238"></path><path d="M252.48,401c-9.31,0-23.17-1.13-23.17-4.23,0-2.74,11-5.24,23.17-5.24s23.17,2.5,23.17,5.24C275.65,399.88,261.79,401,252.48,401Zm0-8.47c-13.57,0-22.17,3-22.17,4.24s7.61,3.23,22.17,3.23,22.17-2.11,22.17-3.23S266.05,392.54,252.48,392.54Z" style="fill:#263238"></path><path d="M425.53,257.11h5.17a2.3,2.3,0,0,1,2.3,2.3V395.34a0,0,0,0,1,0,0h-9.76a0,0,0,0,1,0,0V259.4A2.3,2.3,0,0,1,425.53,257.11Z" style="fill:#263238"></path><path d="M433,395.84h-9.76a.5.5,0,0,1-.5-.5V259.4a2.8,2.8,0,0,1,2.8-2.79h5.16a2.8,2.8,0,0,1,2.8,2.79V395.34A.5.5,0,0,1,433,395.84Zm-9.26-1h8.76V259.4a1.8,1.8,0,0,0-1.8-1.79h-5.16a1.8,1.8,0,0,0-1.8,1.79Z" style="fill:#263238"></path><path d="M450.78,396.78c0,2.06-10.15,3.73-22.67,3.73s-22.67-1.67-22.67-3.73S415.59,392,428.11,392,450.78,394.72,450.78,396.78Z" style="fill:#263238"></path><path d="M428.11,401c-9.32,0-23.17-1.13-23.17-4.23,0-2.74,11-5.24,23.17-5.24s23.17,2.5,23.17,5.24C451.28,399.88,437.42,401,428.11,401Zm0-8.47c-13.57,0-22.17,3-22.17,4.24s7.61,3.23,22.17,3.23,22.17-2.11,22.17-3.23S441.68,392.54,428.11,392.54Z" style="fill:#263238"></path><rect x="78.86" y="263.91" width="347.82" height="8.61" style="fill:#263238"></rect><path d="M426.67,273H78.86a.5.5,0,0,1-.5-.5v-8.6a.5.5,0,0,1,.5-.5H426.67a.5.5,0,0,1,.5.5v8.6A.5.5,0,0,1,426.67,273ZM79.36,272H426.17v-7.6H79.36Z" style="fill:#263238"></path></g></svg>