<svg xmlns="http://www.w3.org/2000/svg" viewBox="0 0 500 500"><g id="freepik--background-simple--inject-155"><path d="M118.8,457.75c-57.59-31.4-93.18-84.67-96.87-142.37a278.79,278.79,0,0,1,3.55-64.31c14.76-87.51,95.14-112.88,133.34-107.72s51.73-30.55,113.35-33.92,196,9.16,205,160.18-58.6,197.25-102.73,202.9-76.7,4.74-170.69,7.35C172,480.73,143.12,471,118.8,457.75Z" style="fill:#FF8700"></path><path d="M118.8,457.75c-57.59-31.4-93.18-84.67-96.87-142.37a278.79,278.79,0,0,1,3.55-64.31c14.76-87.51,95.14-112.88,133.34-107.72s51.73-30.55,113.35-33.92,196,9.16,205,160.18-58.6,197.25-102.73,202.9-76.7,4.74-170.69,7.35C172,480.73,143.12,471,118.8,457.75Z" style="fill:#fff;opacity:0.7000000000000001"></path></g><g id="freepik--shadow-2--inject-155"><path d="M371.51,431.15c0,4-44.66,7.24-99.76,7.24S172,435.15,172,431.15s44.67-7.23,99.76-7.23S371.51,427.16,371.51,431.15Z" style="opacity:0.30000000000000004"></path></g><g id="freepik--shadow-1--inject-155"><ellipse cx="104.43" cy="430.99" rx="24.55" ry="4.16" style="opacity:0.30000000000000004"></ellipse></g><g id="freepik--Clouds--inject-155"><path d="M371.07,46.16c-.23-.7-.47-1.41-.72-2.12-9.41-26.17-53.2-28-53.2,4.19,0,6.2-14.87,0-20.44,8.06s.62,13-6.82,15.48-8.05-3.71-17.34-3.09S264.49,78,261.4,80.45s-3.1,1.23-9.91,1.85-8.06,5.58-8.06,5.58H406.36s6.19-18.59-5-25.4S390.25,65,381.58,61.24C374.41,58.17,373.07,52.34,371.07,46.16Z" style="fill:none;stroke:#b2b2b2;stroke-linecap:round;stroke-linejoin:round"></path><path d="M376.7,81.1s3.38-10.43-4.91-18.1-16.87-3.38-19.33,0S350,72.82,346,73.43s-3.07-6.75-11.66-4.91-5.21,10.43-9.2,12.27-4-4.9-9.51-2.76-5.22,6.14-5.22,6.14" style="fill:none;stroke:#b2b2b2;stroke-linecap:round;stroke-linejoin:round"></path><path d="M332.63,60.26a15.53,15.53,0,0,0-15.71-1.37C308,63,312.14,71.53,308,73.58s-6.15-.34-11.27,2S292,81.44,292,81.44" style="fill:none;stroke:#b2b2b2;stroke-linecap:round;stroke-linejoin:round"></path><path d="M187,83.27c-.13-.4-.26-.79-.41-1.19-5.27-14.66-29.79-15.67-29.79,2.35,0,3.46-8.33,0-11.45,4.51s.35,7.28-3.81,8.67-4.51-2.08-9.72-1.74-4.51,5.21-6.24,6.6-1.74.69-5.55,1-4.51,3.12-4.51,3.12h91.24S210.26,96.22,204,92.4s-6.24,1.39-11.1-.69C188.9,90,188.15,86.73,187,83.27Z" style="fill:none;stroke:#b2b2b2;stroke-linecap:round;stroke-linejoin:round"></path><path d="M190.18,102.83a10.18,10.18,0,0,0-2.75-10.13c-4.64-4.3-9.45-1.89-10.82,0s-1.38,5.49-3.61,5.84-1.72-3.78-6.53-2.75-2.92,5.84-5.16,6.87-2.23-2.75-5.32-1.54-2.92,3.43-2.92,3.43" style="fill:none;stroke:#b2b2b2;stroke-linecap:round;stroke-linejoin:round"></path><path d="M165.5,91.16a8.71,8.71,0,0,0-8.8-.77c-5,2.3-2.68,7.08-5,8.23s-3.45-.19-6.32,1.15-2.67,3.25-2.67,3.25" style="fill:none;stroke:#b2b2b2;stroke-linecap:round;stroke-linejoin:round"></path><path d="M180.2,258.88q-.16-.53-.36-1.05c-4.65-13-26.33-13.85-26.33,2.08,0,3.06-7.36,0-10.12,4s.3,6.44-3.38,7.67-4-1.84-8.59-1.53-4,4.6-5.52,5.82-1.53.62-4.9.93-4,2.76-4,2.76h80.66s3.07-9.21-2.45-12.58-5.52,1.23-9.82-.61C181.86,264.83,181.19,261.94,180.2,258.88Z" style="fill:none;stroke:#b2b2b2;stroke-linecap:round;stroke-linejoin:round"></path><path d="M183,276.18a9,9,0,0,0-2.43-9c-4.1-3.8-8.35-1.67-9.57,0s-1.22,4.86-3.19,5.16S166.28,269,162,270s-2.58,5.17-4.56,6.08-2-2.43-4.71-1.37-2.58,3-2.58,3" style="fill:none;stroke:#b2b2b2;stroke-linecap:round;stroke-linejoin:round"></path><path d="M161.17,265.86a7.69,7.69,0,0,0-7.78-.68c-4.4,2-2.37,6.26-4.4,7.28s-3-.17-5.58,1-2.36,2.88-2.36,2.88" style="fill:none;stroke:#b2b2b2;stroke-linecap:round;stroke-linejoin:round"></path></g><g id="freepik--Trees--inject-155"><path d="M410.56,339.89c0,22.05-15.15,30.55-33.85,30.55s-33.85-8.5-33.85-30.55,15.16-71.52,33.85-71.52S410.56,317.84,410.56,339.89Z" style="fill:#FF8700"></path><path d="M410.56,339.89c0,22.05-15.15,30.55-33.85,30.55s-33.85-8.5-33.85-30.55,15.16-71.52,33.85-71.52S410.56,317.84,410.56,339.89Z" style="fill:#fff;opacity:0.23"></path><polygon points="376 299.96 374.85 323.7 361.93 306.93 374.12 326.02 374.01 335.31 365.16 330.67 365.81 323.18 363.59 329.63 354.74 324.73 373.8 338.41 373.43 346.67 350.07 338.67 361.26 344.34 348.95 348.99 363.08 345.12 373.22 349.76 371.04 420.73 378.78 420.73 377.24 358.54 390.53 351.31 397.3 354.67 392.58 350.54 399.47 345.63 382.06 353.63 384.55 348.47 379.48 354.15 377.42 354.41 377.08 349.25 396.31 326.02 386.9 334.8 388 322.93 393.19 309.51 387.45 320.86 387.23 307.7 385.11 335.31 381.07 340.73 380.44 333.76 378.25 342.28 376.51 345.89 377.59 317.76 383.6 306.67 377.25 313.12 376 299.96" style="fill:#b2b2b2"></polygon><path d="M468.33,160.57c0,44.23-30.4,61.29-67.9,61.29s-67.91-17.06-67.91-61.29S362.92,17.1,400.43,17.1,468.33,116.34,468.33,160.57Z" style="fill:#FF8700"></path><path d="M468.33,160.57c0,44.23-30.4,61.29-67.9,61.29s-67.91-17.06-67.91-61.29S362.92,17.1,400.43,17.1,468.33,116.34,468.33,160.57Z" style="fill:#fff;opacity:0.5"></path><polygon points="399.01 80.47 396.69 128.09 370.77 94.44 395.21 132.75 395.01 151.39 377.25 142.07 378.56 127.06 374.11 140 356.35 130.16 394.59 157.6 393.83 174.16 358.37 162.87 369.42 169.5 361.89 174.01 373.07 171.06 393.42 180.37 389.05 420.73 404.58 420.73 401.47 197.97 428.15 183.48 441.72 190.21 432.27 181.93 446.08 172.09 411.15 188.14 416.15 177.79 405.99 189.18 401.85 189.69 401.16 179.34 439.73 132.75 420.87 150.35 423.14 134.24 417.26 151.39 409.16 162.26 407.15 155.56 405.38 166.51 400.02 172.61 402.19 116.19 414.24 93.93 401.51 106.87 399.01 80.47" style="fill:#b2b2b2"></polygon><path d="M129.76,202.41c0,37.12-25.51,51.43-57,51.43s-57-14.31-57-51.43S41.31,82,72.78,82,129.76,165.29,129.76,202.41Z" style="fill:#FF8700"></path><path d="M129.76,202.41c0,37.12-25.51,51.43-57,51.43s-57-14.31-57-51.43S41.31,82,72.78,82,129.76,165.29,129.76,202.41Z" style="fill:#fff;opacity:0.5"></path><polygon points="71.59 135.19 69.64 175.16 47.89 146.92 68.41 179.06 68.23 194.7 53.33 186.88 54.43 174.29 50.7 185.15 35.79 176.89 67.88 199.91 67.25 213.82 27.93 200.35 46.76 209.91 26.04 217.73 49.83 211.21 66.9 219.03 63.23 420.73 76.27 420.73 73.66 233.8 96.05 221.63 107.43 227.28 99.5 220.33 111.09 212.08 81.78 225.54 85.97 216.86 77.45 226.41 73.98 226.85 73.4 218.16 105.76 179.06 72.44 212.51 74.26 165.16 84.37 146.48 73.69 157.34 71.59 135.19" style="fill:#b2b2b2"></polygon><path d="M331.36,319.73c0,27.55-18.93,38.18-42.29,38.18s-42.29-10.63-42.29-38.18,18.94-89.35,42.29-89.35S331.36,292.19,331.36,319.73Z" style="fill:#FF8700"></path><path d="M331.36,319.73c0,27.55-18.93,38.18-42.29,38.18s-42.29-10.63-42.29-38.18,18.94-89.35,42.29-89.35S331.36,292.19,331.36,319.73Z" style="fill:#fff;opacity:0.23"></path><polygon points="288.19 269.85 286.75 299.51 270.6 278.55 285.83 302.41 285.7 314.01 274.64 308.21 275.45 298.86 272.69 306.92 261.62 300.8 285.44 317.88 284.97 328.2 255.78 318.21 269.77 325.3 254.39 331.1 272.04 326.27 284.71 332.07 281.99 420.73 291.66 420.73 289.73 343.03 306.34 334 314.79 338.19 308.9 333.04 317.51 326.91 295.75 336.9 298.87 330.46 292.54 337.55 289.96 337.87 289.53 331.43 313.55 302.41 301.81 313.37 303.17 298.54 309.67 281.78 302.49 295.96 302.21 279.52 299.56 314.01 294.51 320.79 293.73 312.08 291 322.72 288.82 327.23 290.17 292.09 297.68 278.23 289.75 286.29 288.19 269.85" style="fill:#b2b2b2"></polygon></g><g id="freepik--Plants--inject-155"><path d="M393.58,413.15c-.36-3.26-12.69,4.35-12.69,4.35s4.71-4.71,2.54-7.25-7.62,3.62-7.62,3.62a13.59,13.59,0,0,0,2.18-5.8c.36-3.26-11.6,5.08-11.6,5.08s0-2.18-2.54-7.25-8.7,9.42-8.7,9.42,3.63-8.33,1.81-12.68-4.35,7.25-4.35,7.25-.36-14.14-4.71-15.59-.73,14.86-.73,14.86-2.17-7.25-4.35-8-2.53,8-2.53,8-4-9.06-10.52-9.42-8,7.25-8,7.25a21.12,21.12,0,0,0-.73-7.25c-1.09-3.63-9,6.57-9,6.57a32.06,32.06,0,0,0-.43-11.65c-1.45-5.44-15.59,11.6-15.59,11.6s.36-15.59-4.72-18.13-7.25,14.14-7.25,14.14-.72-3.62-5.8-4-2.9,10.52-2.9,10.52-9.06-9.43-14.5-6.16c-3.38,2-.45,6.72,2.24,10a32.33,32.33,0,0,0-5.57,2.42l-.66-.08a7.79,7.79,0,0,0-1.67,0c.94-1.52,1.65-3.4.53-4.7-2.18-2.54-7.61,3.62-7.61,3.62a13.65,13.65,0,0,0,2.17-5.8c.36-3.26-11.6,5.08-11.6,5.08s0-2.18-2.54-7.25-8.7,9.42-8.7,9.42,3.63-8.33,1.81-12.68-4.35,7.25-4.35,7.25-.36-14.14-4.71-15.59-.72,14.86-.72,14.86-2.18-7.25-4.35-8-2.54,8-2.54,8-4-9.06-10.52-9.42-8,7.25-8,7.25a21.12,21.12,0,0,0-.73-7.25c-1.08-3.63-9,6.57-9,6.57a32.18,32.18,0,0,0-.44-11.65c-1.45-5.44-15.59,11.6-15.59,11.6s.36-15.59-4.71-18.13-7.25,14.14-7.25,14.14-.73-3.62-5.81-4-2.9,10.52-2.9,10.52-9.06-9.43-14.5-6.16,5.44,13.41,5.44,13.41-3.26-.36-9.42-1.09-7.62,5.44-7.62,5.44h268.7S393.94,416.41,393.58,413.15ZM265.44,416c.07-.19.14-.38.2-.58l.69.68Z" style="fill:#b2b2b2"></path></g><g id="freepik--Streetlight--inject-155"><polygon points="454.01 414.28 444.17 414.28 445.65 164.48 452.53 164.48 454.01 414.28" style="fill:#263238"></polygon><polygon points="456.77 163.27 440.78 163.27 438.79 139.79 458.76 139.79 456.77 163.27" style="fill:#263238"></polygon><polygon points="454.98 163.27 442.57 163.27 441.02 139.79 456.53 139.79 454.98 163.27" style="fill:#fff"></polygon><rect x="437.22" y="137.63" width="23.23" height="3.91" style="fill:#263238"></rect><rect x="439.05" y="160.72" width="19.57" height="4.83" style="fill:#263238"></rect><rect x="440.35" y="135.02" width="16.7" height="2.61" style="fill:#263238"></rect><rect x="446.9" y="131.13" width="2.87" height="3.91" style="fill:#263238"></rect><rect x="440.63" y="399.35" width="17.32" height="21.02" style="fill:#263238"></rect></g><g id="freepik--Bench--inject-155"><path d="M367.6,357.59a3.23,3.23,0,0,1-3.15-2.49c-.76-3.18-.41-5.83,1-7.9a7.76,7.76,0,0,1,5.12-3.16,2.69,2.69,0,0,1,.4,0h53.37a3.24,3.24,0,0,1,0,6.48h-53a1.11,1.11,0,0,0-.58.43c-.15.23-.44.94,0,2.68s.57,3.48-1.17,3.9C369.33,357.56,367.85,357.59,367.6,357.59Z" style="fill:#fff;stroke:#263238;stroke-linecap:round;stroke-linejoin:round"></path><path d="M369.76,357.59a3.23,3.23,0,0,1-3.15-2.49c-.76-3.18-.41-5.83,1-7.9a7.76,7.76,0,0,1,5.12-3.16,2.69,2.69,0,0,1,.4,0h53.37a3.24,3.24,0,0,1,0,6.48h-53a1.11,1.11,0,0,0-.58.43c-.15.23-.44.94,0,2.68a3.24,3.24,0,0,1-2.4,3.9A3.2,3.2,0,0,1,369.76,357.59Z" style="fill:#263238"></path><line x1="393.54" y1="373.55" x2="397.41" y2="348.49" style="fill:none;stroke:#263238;stroke-linecap:round;stroke-linejoin:round;stroke-width:4px"></line><path d="M465.92,420.73H470l-8-45.16,16.06-57.73-3.83-1.07L458.07,375a2.07,2.07,0,0,0,0,1Z" style="fill:#263238;stroke:#263238;stroke-linecap:round;stroke-linejoin:round"></path><path d="M410.18,420.73l6.74-43.2H460v-4H415.32a2,2,0,0,0-1.94,1.56l-7.28,45.62Z" style="fill:#263238;stroke:#263238;stroke-linecap:round;stroke-linejoin:round"></path><path d="M368.77,420.73l6.73-43.2h43.08v-4H373.91a2,2,0,0,0-1.94,1.56l-7.28,45.62Z" style="fill:#263238;stroke:#263238;stroke-linecap:round;stroke-linejoin:round"></path><path d="M424.51,420.73h4.1l-8-45.16,16.06-57.73-3.84-1.07L416.66,375a2,2,0,0,0,0,1Z" style="fill:#263238;stroke:#263238;stroke-linecap:round;stroke-linejoin:round"></path><polygon points="427.93 321.87 482.6 321.87 484.78 314.25 430.12 314.25 427.93 321.87" style="fill:#263238;stroke:#263238;stroke-linecap:round;stroke-linejoin:round"></polygon><polygon points="424.55 333.7 479.21 333.7 481.39 326.07 426.73 326.07 424.55 333.7" style="fill:#263238;stroke:#263238;stroke-linecap:round;stroke-linejoin:round"></polygon><polygon points="421.16 345.52 475.82 345.52 478.01 337.89 423.35 337.89 421.16 345.52" style="fill:#263238;stroke:#263238;stroke-linecap:round;stroke-linejoin:round"></polygon><polygon points="417.78 357.34 472.44 357.34 474.62 349.71 419.96 349.71 417.78 357.34" style="fill:#263238;stroke:#263238;stroke-linecap:round;stroke-linejoin:round"></polygon><polygon points="414.39 369.17 469.05 369.17 471.24 361.54 416.57 361.54 414.39 369.17" style="fill:#263238;stroke:#263238;stroke-linecap:round;stroke-linejoin:round"></polygon><polygon points="425.37 321.87 480.04 321.87 482.22 314.25 427.56 314.25 425.37 321.87" style="fill:#fff;stroke:#263238;stroke-linecap:round;stroke-linejoin:round"></polygon><polygon points="421.99 333.7 476.65 333.7 478.83 326.07 424.17 326.07 421.99 333.7" style="fill:#fff;stroke:#263238;stroke-linecap:round;stroke-linejoin:round"></polygon><polygon points="418.6 345.52 473.26 345.52 475.45 337.89 420.79 337.89 418.6 345.52" style="fill:#fff;stroke:#263238;stroke-linecap:round;stroke-linejoin:round"></polygon><polygon points="415.22 357.34 469.88 357.34 472.06 349.71 417.4 349.71 415.22 357.34" style="fill:#fff;stroke:#263238;stroke-linecap:round;stroke-linejoin:round"></polygon><polygon points="411.83 369.17 466.49 369.17 468.68 361.54 414.01 361.54 411.83 369.17" style="fill:#fff;stroke:#263238;stroke-linecap:round;stroke-linejoin:round"></polygon><rect x="370.41" y="372.92" width="96.19" height="4.38" style="fill:#fff;stroke:#263238;stroke-linecap:round;stroke-linejoin:round"></rect><rect x="414.98" y="372.92" width="51.62" height="4.38" style="fill:#263238;stroke:#263238;stroke-linecap:round;stroke-linejoin:round"></rect><line x1="434.4" y1="373.55" x2="438.27" y2="348.49" style="fill:none;stroke:#263238;stroke-linecap:round;stroke-linejoin:round;stroke-width:4px"></line><path d="M415.41,357.59a3.25,3.25,0,0,1-3.15-2.49c-.75-3.18-.41-5.83,1-7.9a7.76,7.76,0,0,1,5.12-3.16,2.6,2.6,0,0,1,.4,0h53.37a3.24,3.24,0,0,1,0,6.48h-53a1.15,1.15,0,0,0-.58.43c-.14.23-.44.94,0,2.68s.95,3.48-.79,3.9C417.52,357.56,415.66,357.59,415.41,357.59Z" style="fill:#fff;stroke:#263238;stroke-linecap:round;stroke-linejoin:round"></path><path d="M417.88,357.59a3.23,3.23,0,0,1-3.15-2.49c-.75-3.18-.41-5.83,1-7.9a7.78,7.78,0,0,1,5.12-3.16,2.83,2.83,0,0,1,.41,0h53.36a3.24,3.24,0,0,1,0,6.48h-53a1.11,1.11,0,0,0-.58.43c-.15.23-.44.94,0,2.68a3.24,3.24,0,0,1-2.4,3.9A3.2,3.2,0,0,1,417.88,357.59Z" style="fill:#263238;stroke:#263238;stroke-linecap:round;stroke-linejoin:round"></path></g><g id="freepik--Floor--inject-155"><line x1="23.48" y1="420.54" x2="483.09" y2="420.54" style="fill:none;stroke:#263238;stroke-miterlimit:10"></line></g><g id="freepik--Banana--inject-155"><path d="M91.56,377s3.77,8.83.07,18S80.71,405.7,77.41,406.2s4.52,6.11,13.32,1.72,12.41-17.14,11.14-25.82-6.4-14.14-9.66-12S91.56,377,91.56,377Z" style="fill:#b5b5b5;stroke:#263238;stroke-miterlimit:10"></path><path d="M69,355.38s-2,3.79-.91,4.59,6.25,1.08,6.25,1.08.24,1.24,3,4.49,7.84,6.22,9.62,10.74,1.66,7.84.26,9.53a4.75,4.75,0,0,0-1.38,2.74s5.74-2.44,6.93-4.54,2.49-8,2.49-8,4,9,12.8,13.36,4,11.1.75,12.64a14.08,14.08,0,0,1-4.93,1.58s4.2,2,6.87.85,6.39-1.62,6.59-9.72-4.46-11.29-4.46-11.29,4.79.49,8-2.29,5.2-7.4,4.63-13.2-1.28-9.09-2.83-4.9.67,9.53-4.88,11.33-9.37-1.2-17-8.05-12.92-9.61-18.52-9.67-7.42,2.06-7.42,2.06Z" style="fill:#FF8700;stroke:#263238;stroke-miterlimit:10"></path><path d="M91.42,368a26.75,26.75,0,0,0-2.64-2.11" style="fill:none;stroke:#263238;stroke-miterlimit:10"></path><path d="M95.28,376.05s1-2.65-2.35-6.56" style="fill:none;stroke:#263238;stroke-miterlimit:10"></path><path d="M112.9,383.47s-3.74-.32-7.2-5.41-4.15-7.78-8.59-11" style="fill:none;stroke:#263238;stroke-miterlimit:10"></path><path d="M85.86,388.55s-7.08-.85-12.14-3.62-14-2.53-16.17.43,5.43,1.1,9.63,3.07,9.71,6.17,16.33,5.37S92.79,384,92.79,384Z" style="fill:#b5b5b5;stroke:#263238;stroke-miterlimit:10"></path><path d="M84.65,350.46s13.46,1.05,18.55,6.57" style="fill:none;stroke:#263238;stroke-miterlimit:10"></path><path d="M104.39,348.52s5,4.1,5.93,10.44" style="fill:none;stroke:#263238;stroke-miterlimit:10"></path></g><g id="freepik--Character--inject-155"><path d="M294.25,196.31l-35-36.32s-1.76-14-2.4-15.56-9.47-8.39-10.9-9.13-3-1.08-2.83.15,1,1.83,2.17,2.7a25.36,25.36,0,0,1,3.33,3.78s-6.34-2.87-7.63-3.37-6-1-6.32.54.36,1.88,2.49,2.18a15.55,15.55,0,0,1,4.29,1.39l3.3,2.16s-6.64-.73-8.43-.75-5.12,2.22-2.88,2.94,4.44-.18,5.15.19,6,2,6,2-4.85,1.07-6.12,1.38-1.1,2.15.7,2.16,4.86-.27,4.86-.27l2.76,1a38.62,38.62,0,0,0,1.35,6.31c.84,2.4,5.28,4.83,5.28,4.83l30.4,47.65Z" style="fill:#b5b5b5;stroke:#263238;stroke-miterlimit:10"></path><path d="M256.23,150.49s-3.28-3.16-4.43-4.22-7.88-4-8.82-4.25-1.31,1.3,0,2.8,5.22,3.4,5.22,3.4.49,9.12,4.39,10.42" style="fill:#b5b5b5;stroke:#263238;stroke-miterlimit:10"></path><path d="M146.58,183.39l-2.35-5.87s0-15.05.74-20.2,1.9-10.21-2.7-7.34-12.69,18.83-14,23.61-.85,10.68-1.75,12.56-4.16,6-4,7.4,2,3.25,4.67,3.86l14.72,3.41Z" style="fill:#fff;stroke:#263238;stroke-miterlimit:10"></path><path d="M145,157.32c.73-5.16,1.9-10.21-2.7-7.34s-12.69,18.83-14,23.61-.85,10.68-1.75,12.56-4.16,6-4,7.4,2,3.25,4.67,3.86l7.08,1.64,3.9-15.07,8.47-.59-2.35-5.87S144.24,162.47,145,157.32Z" style="fill:#263238;stroke:#263238;stroke-miterlimit:10"></path><path d="M167.89,395.53l-8,3.48s-19.74,4.23-22.19,4.82-2.25,2.73.13,4.43,32.33,8.41,32.33,8.41,7.94,3.69,10.7,1.78,4-16.43,4-16.43Z" style="fill:#263238;stroke:#263238;stroke-miterlimit:10"></path><path d="M168.07,402.75s10.08,2.6,16.35,3.56c.33-2.45.49-4.29.49-4.29l-17-6.49Z" style="fill:#fff;stroke:#263238;stroke-miterlimit:10"></path><path d="M263.3,258.31l-10.62-6.16S233.9,217.25,227.94,211s-8.22-9.54-10.41-10-61.66-14.73-61.66-14.73-3.05-2.79-3.71-2.94a44.47,44.47,0,0,1-4.65-2.93s-4.28,2.49-6,10S139,202.24,139,202.24s7.55,3.36,11,4.4,34.85,12.46,34.85,12.46l14.24,3.52,25.11,46.56s4.28,9.56,2.25,12.33-26,19.44-26,19.44-21.67,15.6-22.28,18.24-7.42,66.11-7.42,66.11l-4.05,3.47-.56,8.44a25.41,25.41,0,0,0,10.11,5.34,39.78,39.78,0,0,0,9.21,1.21,80.39,80.39,0,0,1,1.6-8.89c.67-1.93-2.8,6.06,1.69-6.33s18.55-59.14,18.55-59.14L269.41,310l4.87-2.21-8-47.37Z" style="fill:#263238;stroke:#263238;stroke-miterlimit:10"></path><path d="M268.69,257l-7.27.41a173.12,173.12,0,0,0-.46,20c.36,11.43,6.47,29.05,6.47,29.05l2,3.47,7.17-3s-5.94-26.38-6.17-33.38S268.69,257,268.69,257Z" style="fill:#b5b5b5;stroke:#263238;stroke-miterlimit:10"></path><path d="M266.38,278c.23,2.42-.7,4.49-2.08,4.62s-2.68-1.73-2.9-4.15.7-4.49,2.08-4.62S266.15,275.58,266.38,278Z" style="fill:#fff;stroke:#263238;stroke-miterlimit:10"></path><polyline points="259.42 261.58 268.35 261.18 267.94 265.61 260.36 265.5" style="fill:#263238;stroke:#263238;stroke-miterlimit:10"></polyline><polyline points="261.46 289.18 269.01 287.64 269.21 291.18 262.7 293.58 264.2 303.99 272.65 301.22 273.32 303.63 263.43 307.31" style="fill:#263238;stroke:#263238;stroke-miterlimit:10"></polyline><path d="M355.18,238.44s-11.56-21.1-12.19-21.85-45-21-45-21L289,214.9l27.66,15.4L284.3,254l-16,.71s-1.24-.69-1.54,1.45-.57,29.28,2,36.47,3.71,14.27,5.52,15.09,4.22.77,5,0,34.52-8.23,34.52-8.23,36.48-7.17,40.53-8.23,10.17-5.05,11.77-11.09-3.6-24.24-3.6-24.24Z" style="fill:#FF8700;stroke:#263238;stroke-miterlimit:10"></path><line x1="326.05" y1="223.25" x2="328.85" y2="221.15" style="fill:none;stroke:#263238;stroke-miterlimit:10"></line><line x1="316.61" y1="230.3" x2="323.07" y2="225.47" style="fill:none;stroke:#263238;stroke-miterlimit:10"></line><path d="M288.44,278.56a38.58,38.58,0,0,1-4.34-4.09" style="fill:none;stroke:#263238;stroke-miterlimit:10"></path><path d="M325.19,296s-21-5.69-34.78-15.91" style="fill:none;stroke:#263238;stroke-miterlimit:10"></path><path d="M298.75,291.13c1.44.92,2.89,1.78,4.3,2.54" style="fill:none;stroke:#263238;stroke-miterlimit:10"></path><path d="M279.32,276.14a183.21,183.21,0,0,0,15.25,12.18" style="fill:none;stroke:#263238;stroke-miterlimit:10"></path><path d="M355.79,236.56s-4-2.53-5.54-2.88-12.44.12-12.44.12,6.33,7.27,6.49,8.31a55.71,55.71,0,0,1-.46,6.29l1,6,3.9,3.9-4.57,6.75s14.38-2.47,15.64-3.58a27,27,0,0,0,4.71-6.52C366,252.32,355.79,236.56,355.79,236.56Z" style="fill:#fff;stroke:#263238;stroke-miterlimit:10"></path><path d="M355.18,238.44s-8.77,6.11-13.77,11.28,8.81,6.2,11.75,6a32.05,32.05,0,0,0,6.13-1.19S354.61,244.66,355.18,238.44Z" style="fill:#b5b5b5;stroke:#263238;stroke-miterlimit:10"></path><path d="M373.6,216.66s2.37-5-2.53-3.78-7.65,6.23-7.85,8a3.47,3.47,0,0,0,1.33,2.91Z" style="fill:#b5b5b5;stroke:#263238;stroke-miterlimit:10"></path><path d="M393,249.77s3.08.25.53,4-6.07,3.67-9,3l-4-.92Z" style="fill:#b5b5b5;stroke:#263238;stroke-miterlimit:10"></path><path d="M376.7,212.78s-13.38,11.11-17.65,15.73a31.25,31.25,0,0,0-7.15,12.75c-.62,2.66-2.67,9.79.59,12.15s13.67,5.76,18.48,4.87,16.69-5.54,20.3-7.31,15.26-6.26,21.29-15.89c3.17-5.07-1.47-18.75-9.71-24.65S385.2,204.54,376.7,212.78Z" style="fill:#b5b5b5;stroke:#263238;stroke-miterlimit:10"></path><path d="M402.85,210.43c-8.23-5.91-17.65-5.89-26.15,2.35,0,0-2.76,2.29-6.16,5.22,1,.39,5.2,1.86,7.48.29,2.62-1.8,5.72-5.68,7.75-5.81s5,4.54,5.89,9.16,7.18,10.47,9,12.28.19,5.25-2.76,6.77-5.18,4.2-5.15,5.81-.12,4-1.44,4.47c3.61-1.76,15.26-6.26,21.29-15.89C415.73,230,411.09,216.33,402.85,210.43Z" style="fill:#263238;stroke:#263238;stroke-miterlimit:10"></path><path d="M390.32,251.42c.36-.16.69-.32.95-.45l-1.31.5Z" style="fill:none;stroke:#263238;stroke-miterlimit:10"></path><path d="M374.15,231.26c-.89.69-1.94.84-2.33.33s0-1.49.9-2.18,1.94-.84,2.33-.33S375,230.57,374.15,231.26Z" style="fill:#263238"></path><path d="M381.93,243.81c-.9.69-1.94.84-2.34.32s0-1.48.9-2.17,1.94-.84,2.34-.33S382.82,243.11,381.93,243.81Z" style="fill:#263238"></path><path d="M374.4,224.45s4.32,1.2,6.5,3.91" style="fill:none;stroke:#263238;stroke-miterlimit:10"></path><path d="M387.28,238.84a11.11,11.11,0,0,1-.3,7.34" style="fill:none;stroke:#263238;stroke-miterlimit:10"></path><path d="M367.91,240.37s-.89,3,3.41,5.18" style="fill:none;stroke:#263238;stroke-miterlimit:10"></path><path d="M365.26,251s1.86-4.57-1.41-7.73-6.71-2.15-6.81,0,3.91,2.11,3.49,4.81S362.85,253.6,365.26,251Z" style="fill:#263238"></path><polygon points="303.04 198.14 293 219.03 283.75 212.29 293.91 192.63 303.04 198.14" style="fill:#fff;stroke:#263238;stroke-miterlimit:10"></polygon><path d="M321,243.32l-24.21-58.83s7.94-16.17,7-19.8-4.91-9.94-6.16-11.43-2.83-2.46-3.48-1.4a2.3,2.3,0,0,0,.48,3.11,6.73,6.73,0,0,1,2.37,2.75c.35,1.08,1.09,5.65,1.09,5.65s-4.66-6.68-5.77-7.93-4.89-3.94-6.69-3.95-1.91,1.35-.38,2.51,3.36,2.78,3.93,2.91,3.26,7.56,3.26,7.56-5.39-5.25-6.49-5.71-5.23-1.61-6.4-.88-.15,2.37,1.37,2.72,4.52,1.25,4.52,1.25l3.92,5.51s-4.09-1.35-5.56-1.89-5.76-1.93-5.88-.56,1.17,1.87,2.5,2.18a17.77,17.77,0,0,1,3,1.08l3.54,2s-1.29,7.31-.58,10.28,1.93,7.25,1.93,7.25l16.23,64.79Z" style="fill:#b5b5b5;stroke:#263238;stroke-miterlimit:10"></path><polyline points="360.79 273.74 323.35 245.27 306.86 256.86 331.73 288.63" style="fill:#FF8700;stroke:#263238;stroke-miterlimit:10"></polyline><path d="M329.11,249.8s-19.31,12.54-20.88,12.38-7-7.63-6.35-8.87,19.26-13.16,20.54-12.66S329.4,247.67,329.11,249.8Z" style="fill:#fff;stroke:#263238;stroke-miterlimit:10"></path><line x1="334.75" y1="288.73" x2="332.9" y2="264.69" style="fill:none;stroke:#263238;stroke-miterlimit:10"></line><line x1="329.78" y1="277.17" x2="329.63" y2="255.83" style="fill:none;stroke:#263238;stroke-miterlimit:10"></line><line x1="363.56" y1="191.19" x2="366.18" y2="201.66" style="fill:none;stroke:#263238;stroke-miterlimit:10"></line><line x1="350.47" y1="206.25" x2="357.02" y2="208.21" style="fill:none;stroke:#263238;stroke-miterlimit:10"></line><line x1="376.66" y1="194.46" x2="375.35" y2="202.32" style="fill:none;stroke:#263238;stroke-miterlimit:10"></line><path d="M103.75,289.66c.17,2,.38,4,.63,6" style="fill:none;stroke:#263238;stroke-miterlimit:10"></path><path d="M126.29,203.06a134,134,0,0,0-23,75.31q0,3.12.14,6.21" style="fill:none;stroke:#263238;stroke-miterlimit:10"></path><path d="M119.38,243.52c-.48,1.66-.94,3.34-1.36,5" style="fill:none;stroke:#263238;stroke-miterlimit:10"></path><path d="M137.86,205.92A123.21,123.21,0,0,0,121,238.47" style="fill:none;stroke:#263238;stroke-miterlimit:10"></path></g><g id="freepik--Books--inject-155"><path d="M217.7,185l19.69,15.31,23.47-14.07,5.87,33.47-24.85,12.52-19.55-5a.75.75,0,0,1-.41-.52Z" style="fill:#263238;stroke:#263238;stroke-linecap:round;stroke-linejoin:round"></path><path d="M220.41,185.18l4.26,40.33a.74.74,0,0,0,.31.46l16.9,6.29,22.43-12.77L258,184.79l-19.89,13.07Z" style="fill:#fff;stroke:#263238;stroke-linecap:round;stroke-linejoin:round"></path><path d="M222,182.78l4.56,40.32a.71.71,0,0,0,.34.47c1.57.91,12.87,3.17,14.94,8.69l-3.81-34.4S228.46,184,222,182.78Z" style="fill:#fff;stroke:#263238;stroke-linecap:round;stroke-linejoin:round"></path><path d="M238.07,197.86s.13-3.38,4.61-7.82A85.85,85.85,0,0,1,254.42,181l7.44,38.13s-8.08,2.15-12.85,6.27a71.28,71.28,0,0,0-7.13,6.9Z" style="fill:#fff;stroke:#263238;stroke-linecap:round;stroke-linejoin:round"></path><path d="M241.88,232.26a94.54,94.54,0,0,1,4.44-8.37c2.08-3.29,11.45-6.83,11.45-6.83l-5.89-35.89s-6.51,3.3-10.22,7.41a14.65,14.65,0,0,0-3.59,9.28Z" style="fill:#fff;stroke:#263238;stroke-linecap:round;stroke-linejoin:round"></path><path d="M238.07,197.86s-.46-5.36-3.7-8.85a33.57,33.57,0,0,0-10.7-7.69l4.46,40.44s5,.55,8,3.33a36.86,36.86,0,0,1,5.71,7.17Z" style="fill:#fff;stroke:#263238;stroke-linecap:round;stroke-linejoin:round"></path><path d="M247.33,190.26a19.58,19.58,0,0,1,3-1.34" style="fill:#fff;stroke:#263238;stroke-linecap:round;stroke-linejoin:round"></path><path d="M240.38,198.64a12.9,12.9,0,0,1,4.54-6.74" style="fill:#fff;stroke:#263238;stroke-linecap:round;stroke-linejoin:round"></path><path d="M240.58,202.73s1.32-6.69,10-9.72" style="fill:#fff;stroke:#263238;stroke-linecap:round;stroke-linejoin:round"></path><path d="M248.28,199.14a19.36,19.36,0,0,1,3-1.32" style="fill:#fff;stroke:#263238;stroke-linecap:round;stroke-linejoin:round"></path><path d="M241.28,207.55a13.06,13.06,0,0,1,5-7.1" style="fill:#fff;stroke:#263238;stroke-linecap:round;stroke-linejoin:round"></path><path d="M243.54,208.92a16,16,0,0,1,8.4-6.28" style="fill:#fff;stroke:#263238;stroke-linecap:round;stroke-linejoin:round"></path><path d="M242,212.37a9.39,9.39,0,0,1,.79-2.11" style="fill:#fff;stroke:#263238;stroke-linecap:round;stroke-linejoin:round"></path><path d="M242.68,217.18s1.32-6.69,10-9.72" style="fill:#fff;stroke:#263238;stroke-linecap:round;stroke-linejoin:round"></path><path d="M249.93,213.85a19.34,19.34,0,0,1,3.41-1.58" style="fill:#fff;stroke:#263238;stroke-linecap:round;stroke-linejoin:round"></path><path d="M243.38,222a12.79,12.79,0,0,1,4.34-6.58" style="fill:#fff;stroke:#263238;stroke-linecap:round;stroke-linejoin:round"></path><path d="M234.73,195.27a15.7,15.7,0,0,1,1.08,2.49" style="fill:#fff;stroke:#263238;stroke-linecap:round;stroke-linejoin:round"></path><path d="M229,189.12a18.18,18.18,0,0,1,4.58,4.29" style="fill:#fff;stroke:#263238;stroke-linecap:round;stroke-linejoin:round"></path><path d="M226.61,187.82a12.81,12.81,0,0,1,1.55.8" style="fill:#fff;stroke:#263238;stroke-linecap:round;stroke-linejoin:round"></path><path d="M232,197.26a15,15,0,0,1,4.69,5.67" style="fill:#fff;stroke:#263238;stroke-linecap:round;stroke-linejoin:round"></path><path d="M227.23,194.76a15,15,0,0,1,3,1.34" style="fill:#fff;stroke:#263238;stroke-linecap:round;stroke-linejoin:round"></path><path d="M231.81,203.12a12.36,12.36,0,0,1,5.72,5.17" style="fill:#fff;stroke:#263238;stroke-linecap:round;stroke-linejoin:round"></path><path d="M228.19,201.9a13.3,13.3,0,0,1,2,.56" style="fill:#fff;stroke:#263238;stroke-linecap:round;stroke-linejoin:round"></path><path d="M233.78,209.66a11.27,11.27,0,0,1,4.4,4.69" style="fill:#fff;stroke:#263238;stroke-linecap:round;stroke-linejoin:round"></path><path d="M228.15,207.57a16.47,16.47,0,0,1,4.32,1.38" style="fill:#fff;stroke:#263238;stroke-linecap:round;stroke-linejoin:round"></path><path d="M237.19,217.39a13,13,0,0,1,1.5,1.94" style="fill:#fff;stroke:#263238;stroke-linecap:round;stroke-linejoin:round"></path><path d="M229.49,214.19a8.93,8.93,0,0,1,6.34,1.95" style="fill:#fff;stroke:#263238;stroke-linecap:round;stroke-linejoin:round"></path><polygon points="218.29 170.02 232.45 136.3 185.02 139.3 181.13 168.16 218.29 170.02" style="fill:#263238;stroke:#263238;stroke-linecap:round;stroke-linejoin:round"></polygon><polygon points="216.6 168.37 228.71 133.1 223.29 128.16 216.6 168.37" style="fill:#fff;stroke:#263238;stroke-linecap:round;stroke-linejoin:round"></polygon><polygon points="223.29 128.16 210.03 131.08 216.6 168.37 223.29 128.16" style="fill:#fff;stroke:#263238;stroke-linecap:round;stroke-linejoin:round"></polygon><polygon points="174.22 127.73 172.74 169.07 175.92 170.67 218.29 170.02 216.6 168.37 216.94 124.39 174.22 127.73" style="fill:#263238;stroke:#263238;stroke-linecap:round;stroke-linejoin:round"></polygon><line x1="181.46" y1="133.24" x2="180.49" y2="160" style="fill:none;stroke:#fff;stroke-linecap:round;stroke-linejoin:round"></line><line x1="187.9" y1="140.55" x2="187.46" y2="153.03" style="fill:none;stroke:#fff;stroke-linecap:round;stroke-linejoin:round"></line><line x1="225.92" y1="130.8" x2="224.25" y2="137.1" style="fill:#fff;stroke:#263238;stroke-linecap:round;stroke-linejoin:round"></line></g></svg>