<svg xmlns="http://www.w3.org/2000/svg" viewBox="0 0 500 500"><g id="freepik--background-simple--inject-214"><path d="M331.22,32.36S252.28,4.29,174.79,49,58.2,182.38,24.62,253.45,10.37,396.8,69.52,429.76s99.38-15.63,182.37-18,105.3,9.5,174.16-37.38,81.31-157.59,27-239.51S331.22,32.36,331.22,32.36Z" style="fill:#7E57C2"></path><path d="M331.22,32.36S252.28,4.29,174.79,49,58.2,182.38,24.62,253.45,10.37,396.8,69.52,429.76s99.38-15.63,182.37-18,105.3,9.5,174.16-37.38,81.31-157.59,27-239.51S331.22,32.36,331.22,32.36Z" style="fill:#fff;opacity:0.7000000000000001"></path></g><g id="freepik--Kitchen--inject-214"><rect x="47.6" y="186.52" width="32" height="32" rx="4.13" style="fill:none;stroke:#263238;stroke-linecap:round;stroke-linejoin:round"></rect><rect x="82.31" y="186.52" width="32" height="32" rx="4.13" style="fill:none;stroke:#263238;stroke-linecap:round;stroke-linejoin:round"></rect><rect x="117.02" y="186.52" width="32" height="32" rx="4.13" style="fill:none;stroke:#263238;stroke-linecap:round;stroke-linejoin:round"></rect><rect x="151.72" y="186.52" width="32" height="32" rx="4.13" style="fill:none;stroke:#263238;stroke-linecap:round;stroke-linejoin:round"></rect><rect x="186.43" y="186.52" width="32" height="32" rx="4.13" style="fill:none;stroke:#263238;stroke-linecap:round;stroke-linejoin:round"></rect><rect x="221.14" y="186.52" width="32" height="32" rx="4.13" style="fill:none;stroke:#263238;stroke-linecap:round;stroke-linejoin:round"></rect><rect x="255.84" y="186.52" width="32" height="32" rx="4.13" style="fill:none;stroke:#263238;stroke-linecap:round;stroke-linejoin:round"></rect><rect x="290.55" y="186.52" width="32" height="32" rx="4.13" style="fill:none;stroke:#263238;stroke-linecap:round;stroke-linejoin:round"></rect><rect x="325.26" y="186.52" width="32" height="32" rx="4.13" style="fill:none;stroke:#263238;stroke-linecap:round;stroke-linejoin:round"></rect><rect x="359.96" y="186.52" width="32" height="32" rx="4.13" style="fill:none;stroke:#263238;stroke-linecap:round;stroke-linejoin:round"></rect><rect x="394.67" y="186.52" width="32" height="32" rx="4.13" style="fill:none;stroke:#263238;stroke-linecap:round;stroke-linejoin:round"></rect><rect x="429.38" y="186.52" width="32" height="32" rx="4.13" style="fill:none;stroke:#263238;stroke-linecap:round;stroke-linejoin:round"></rect><rect x="47.6" y="220.72" width="32" height="32" rx="4.13" style="fill:none;stroke:#263238;stroke-linecap:round;stroke-linejoin:round"></rect><rect x="82.31" y="220.72" width="32" height="32" rx="4.13" style="fill:none;stroke:#263238;stroke-linecap:round;stroke-linejoin:round"></rect><rect x="117.02" y="220.72" width="32" height="32" rx="4.13" style="fill:none;stroke:#263238;stroke-linecap:round;stroke-linejoin:round"></rect><rect x="151.72" y="220.72" width="32" height="32" rx="4.13" style="fill:none;stroke:#263238;stroke-linecap:round;stroke-linejoin:round"></rect><rect x="186.43" y="220.72" width="32" height="32" rx="4.13" style="fill:none;stroke:#263238;stroke-linecap:round;stroke-linejoin:round"></rect><rect x="221.14" y="220.72" width="32" height="32" rx="4.13" style="fill:none;stroke:#263238;stroke-linecap:round;stroke-linejoin:round"></rect><rect x="255.84" y="220.72" width="32" height="32" rx="4.13" style="fill:none;stroke:#263238;stroke-linecap:round;stroke-linejoin:round"></rect><rect x="290.55" y="220.72" width="32" height="32" rx="4.13" style="fill:none;stroke:#263238;stroke-linecap:round;stroke-linejoin:round"></rect><rect x="325.26" y="220.72" width="32" height="32" rx="4.13" style="fill:none;stroke:#263238;stroke-linecap:round;stroke-linejoin:round"></rect><rect x="359.96" y="220.72" width="32" height="32" rx="4.13" style="fill:none;stroke:#263238;stroke-linecap:round;stroke-linejoin:round"></rect><rect x="394.67" y="220.72" width="32" height="32" rx="4.13" style="fill:none;stroke:#263238;stroke-linecap:round;stroke-linejoin:round"></rect><rect x="429.38" y="220.72" width="32" height="32" rx="4.13" style="fill:none;stroke:#263238;stroke-linecap:round;stroke-linejoin:round"></rect><rect x="47.6" y="254.92" width="32" height="32" rx="4.13" style="fill:none;stroke:#263238;stroke-linecap:round;stroke-linejoin:round"></rect><rect x="82.31" y="254.92" width="32" height="32" rx="4.13" style="fill:none;stroke:#263238;stroke-linecap:round;stroke-linejoin:round"></rect><rect x="117.02" y="254.92" width="32" height="32" rx="4.13" style="fill:none;stroke:#263238;stroke-linecap:round;stroke-linejoin:round"></rect><rect x="151.72" y="254.92" width="32" height="32" rx="4.13" style="fill:none;stroke:#263238;stroke-linecap:round;stroke-linejoin:round"></rect><rect x="186.43" y="254.92" width="32" height="32" rx="4.13" style="fill:none;stroke:#263238;stroke-linecap:round;stroke-linejoin:round"></rect><rect x="221.14" y="254.92" width="32" height="32" rx="4.13" style="fill:none;stroke:#263238;stroke-linecap:round;stroke-linejoin:round"></rect><rect x="255.84" y="254.92" width="32" height="32" rx="4.13" style="fill:none;stroke:#263238;stroke-linecap:round;stroke-linejoin:round"></rect><rect x="290.55" y="254.92" width="32" height="32" rx="4.13" style="fill:none;stroke:#263238;stroke-linecap:round;stroke-linejoin:round"></rect><rect x="325.26" y="254.92" width="32" height="32" rx="4.13" style="fill:none;stroke:#263238;stroke-linecap:round;stroke-linejoin:round"></rect><rect x="359.96" y="254.92" width="32" height="32" rx="4.13" style="fill:none;stroke:#263238;stroke-linecap:round;stroke-linejoin:round"></rect><rect x="394.67" y="254.92" width="32" height="32" rx="4.13" style="fill:none;stroke:#263238;stroke-linecap:round;stroke-linejoin:round"></rect><rect x="429.38" y="254.92" width="32" height="32" rx="4.13" style="fill:none;stroke:#263238;stroke-linecap:round;stroke-linejoin:round"></rect><rect x="47.6" y="289.12" width="32" height="32" rx="4.13" style="fill:none;stroke:#263238;stroke-linecap:round;stroke-linejoin:round"></rect><rect x="82.31" y="289.12" width="32" height="32" rx="4.13" style="fill:none;stroke:#263238;stroke-linecap:round;stroke-linejoin:round"></rect><rect x="117.02" y="289.12" width="32" height="32" rx="4.13" style="fill:none;stroke:#263238;stroke-linecap:round;stroke-linejoin:round"></rect><rect x="151.72" y="289.12" width="32" height="32" rx="4.13" style="fill:none;stroke:#263238;stroke-linecap:round;stroke-linejoin:round"></rect><rect x="186.43" y="289.12" width="32" height="32" rx="4.13" style="fill:none;stroke:#263238;stroke-linecap:round;stroke-linejoin:round"></rect><rect x="221.14" y="289.12" width="32" height="32" rx="4.13" style="fill:none;stroke:#263238;stroke-linecap:round;stroke-linejoin:round"></rect><rect x="255.84" y="289.12" width="32" height="32" rx="4.13" style="fill:none;stroke:#263238;stroke-linecap:round;stroke-linejoin:round"></rect><rect x="290.55" y="289.12" width="32" height="32" rx="4.13" style="fill:none;stroke:#263238;stroke-linecap:round;stroke-linejoin:round"></rect><rect x="325.26" y="289.12" width="32" height="32" rx="4.13" style="fill:none;stroke:#263238;stroke-linecap:round;stroke-linejoin:round"></rect><rect x="359.96" y="289.12" width="32" height="32" rx="4.13" style="fill:none;stroke:#263238;stroke-linecap:round;stroke-linejoin:round"></rect><rect x="394.67" y="289.12" width="32" height="32" rx="4.13" style="fill:none;stroke:#263238;stroke-linecap:round;stroke-linejoin:round"></rect><rect x="429.38" y="289.12" width="32" height="32" rx="4.13" style="fill:none;stroke:#263238;stroke-linecap:round;stroke-linejoin:round"></rect><line x1="119.35" y1="171.83" x2="119.35" y2="17.52" style="fill:none;stroke:#263238;stroke-linecap:round;stroke-linejoin:round"></line><rect x="124.1" y="129.38" width="5.49" height="31.96" style="fill:#263238;stroke:#263238;stroke-linecap:round;stroke-linejoin:round"></rect><rect x="109.12" y="129.38" width="5.49" height="31.96" style="fill:#263238;stroke:#263238;stroke-linecap:round;stroke-linejoin:round"></rect><line x1="45.95" y1="171.83" x2="459.92" y2="171.83" style="fill:none;stroke:#263238;stroke-linecap:round;stroke-linejoin:round;stroke-width:2px"></line><line x1="366.04" y1="171.83" x2="366.04" y2="17.52" style="fill:none;stroke:#263238;stroke-linecap:round;stroke-linejoin:round"></line><rect x="357.05" y="129.38" width="5.49" height="31.96" style="fill:#263238;stroke:#263238;stroke-linecap:round;stroke-linejoin:round"></rect><rect x="370.29" y="129.38" width="5.49" height="31.96" style="fill:#263238;stroke:#263238;stroke-linecap:round;stroke-linejoin:round"></rect></g><g id="freepik--Dishes--inject-214"><path d="M46.43,367.66h6a0,0,0,0,1,0,0v5.29a2.83,2.83,0,0,1-2.83,2.83h-.34a2.83,2.83,0,0,1-2.83-2.83v-5.29A0,0,0,0,1,46.43,367.66Z" style="fill:#fff;stroke:#263238;stroke-linecap:round;stroke-linejoin:round"></path><path d="M101.18,367.66h6a0,0,0,0,1,0,0v5.29a2.83,2.83,0,0,1-2.83,2.83H104a2.83,2.83,0,0,1-2.83-2.83v-5.29A0,0,0,0,1,101.18,367.66Z" style="fill:#fff;stroke:#263238;stroke-linecap:round;stroke-linejoin:round"></path><polygon points="110.55 365.37 43.17 365.37 67.49 337.21 126.08 337.21 110.55 365.37" style="fill:#fff;stroke:#263238;stroke-linecap:round;stroke-linejoin:round"></polygon><rect x="43.17" y="365.37" width="67.06" height="5.49" style="fill:#fff;stroke:#263238;stroke-linecap:round;stroke-linejoin:round"></rect><polygon points="110.23 365.37 126.08 337.21 126.08 343.13 110.23 370.86 110.23 365.37" style="fill:#fff;stroke:#263238;stroke-linecap:round;stroke-linejoin:round"></polygon><path d="M66.41,339.5v7.44c0,2.64,5.14,4.77,11.48,4.77s11.48-2.13,11.48-4.77V339.5Z" style="fill:#263238;stroke:#263238;stroke-linecap:round;stroke-linejoin:round"></path><ellipse cx="77.89" cy="339.5" rx="11.48" ry="4.77" style="fill:#fff;stroke:#263238;stroke-linecap:round;stroke-linejoin:round"></ellipse><ellipse cx="77.89" cy="339.5" rx="5.45" ry="2.26" style="fill:#7E57C2;stroke:#263238;stroke-linecap:round;stroke-linejoin:round"></ellipse><path d="M95.12,340.74v7.44c0,2.64,5.13,4.77,11.47,4.77s11.48-2.13,11.48-4.77v-7.44Z" style="fill:#263238;stroke:#263238;stroke-linecap:round;stroke-linejoin:round"></path><ellipse cx="106.59" cy="340.74" rx="11.48" ry="4.77" style="fill:#fff;stroke:#263238;stroke-linecap:round;stroke-linejoin:round"></ellipse><ellipse cx="106.59" cy="340.74" rx="5.45" ry="2.26" style="fill:#7E57C2;stroke:#263238;stroke-linecap:round;stroke-linejoin:round"></ellipse><path d="M75.57,349.74v7.44c0,2.64,5.14,4.77,11.48,4.77s11.47-2.13,11.47-4.77v-7.44Z" style="fill:#263238;stroke:#263238;stroke-linecap:round;stroke-linejoin:round"></path><ellipse cx="87.05" cy="349.74" rx="11.48" ry="4.77" style="fill:#fff;stroke:#263238;stroke-linecap:round;stroke-linejoin:round"></ellipse><path d="M92.5,349.74c0,1.25-2.44,2.26-5.45,2.26s-5.45-1-5.45-2.26,2.44-2.27,5.45-2.27S92.5,348.49,92.5,349.74Z" style="fill:#7E57C2;stroke:#263238;stroke-linecap:round;stroke-linejoin:round"></path><polygon points="344.58 368.43 148.38 368.43 158.19 340.27 334.77 340.27 344.58 368.43" style="fill:#fff;stroke:#263238;stroke-linecap:round;stroke-linejoin:round"></polygon><rect x="148.38" y="368.43" width="195.88" height="5.49" style="fill:#fff;stroke:#263238;stroke-linecap:round;stroke-linejoin:round"></rect><path d="M238.68,337.81a10.17,10.17,0,0,0-4.1-.88h-54a11.19,11.19,0,0,0-11.2,11.2v6.11a2.12,2.12,0,0,0,2.12,2.12h67.22Z" style="fill:#263238;stroke:#263238;stroke-linecap:round;stroke-linejoin:round"></path><path d="M238.68,346.85c0,5.25-.49,9.51-1.1,9.51s-1.11-4.26-1.11-9.51.5-9.51,1.11-9.51S238.68,341.6,238.68,346.85Z" style="fill:#fff;stroke:#263238;stroke-linecap:round;stroke-linejoin:round"></path><path d="M207.64,336.93h-2.15a148,148,0,0,0-.81,19.43h2.13A145.58,145.58,0,0,1,207.64,336.93Z" style="fill:#4a4a4a"></path><path d="M188.77,356.36V345.05a25.2,25.2,0,0,1,1.88-8.12h-2.27a25.78,25.78,0,0,0-1.73,8.12v11.31Z" style="fill:#4a4a4a"></path><rect x="223.73" y="336.93" width="2.12" height="19.43" style="fill:#4a4a4a"></rect><path d="M374.6,381.66V388l40.91,2a5.8,5.8,0,0,0,6.09-5.8v-1.1a5.81,5.81,0,0,0-6.42-5.78Z" style="fill:#fff;stroke:#263238;stroke-linecap:round;stroke-linejoin:round"></path><path d="M376.6,380l1,16.67s-58.34-.67-100-12Z" style="fill:#263238;stroke:#263238;stroke-linecap:round;stroke-linejoin:round"></path><path d="M292.39,384l-14.79.7c41.66,11.33,100,12,100,12l-.55-9.21C342.52,390.3,307.73,386.21,292.39,384Z" style="fill:#fff;stroke:#263238;stroke-linecap:round;stroke-linejoin:round"></path><path d="M410.64,365c0,2.31-6.25,4.18-14,4.18s-14-1.87-14-4.18,6.25-4.18,14-4.18S410.64,362.71,410.64,365Z" style="fill:#263238;stroke:#fff;stroke-linecap:round;stroke-linejoin:round"></path><path d="M372.57,347.56s-.22,5.57,7,13.54c3.92,3.74,10,5.64,16.62,5.64,7.15,0,13.48-1.54,16.24-4.76,0,0,3.42-2.65,8.36-14.42Z" style="fill:#263238;stroke:#fff;stroke-linecap:round;stroke-linejoin:round"></path><ellipse cx="396.68" cy="347.56" rx="24.11" ry="7.21" style="fill:#263238;stroke:#fff;stroke-linecap:round;stroke-linejoin:round"></ellipse><path d="M92.69,402.43c0,2.3-6.25,4.17-14,4.17s-14-1.87-14-4.17,6.25-4.18,14-4.18S92.69,400.12,92.69,402.43Z" style="fill:#263238;stroke:#fff;stroke-linecap:round;stroke-linejoin:round"></path><path d="M54.63,385s-.22,5.58,7,13.55c3.92,3.74,10,5.64,16.62,5.64,7.16,0,13.49-1.54,16.25-4.76,0,0,3.41-2.66,8.35-14.43Z" style="fill:#263238;stroke:#fff;stroke-linecap:round;stroke-linejoin:round"></path><ellipse cx="78.73" cy="384.96" rx="24.11" ry="7.21" style="fill:#263238;stroke:#fff;stroke-linecap:round;stroke-linejoin:round"></ellipse><ellipse cx="243.66" cy="439.72" rx="87.51" ry="45.75" style="fill:#fff;stroke:#263238;stroke-linecap:round;stroke-linejoin:round"></ellipse><ellipse cx="243.66" cy="437.16" rx="98.95" ry="45.75" style="fill:#fff;stroke:#263238;stroke-linecap:round;stroke-linejoin:round"></ellipse><ellipse cx="243.66" cy="434.6" rx="98.95" ry="45.75" style="fill:#fff;stroke:#263238;stroke-linecap:round;stroke-linejoin:round"></ellipse><ellipse cx="243.66" cy="434.6" rx="74.79" ry="34.58" style="fill:#fff;stroke:#263238;stroke-linecap:round;stroke-linejoin:round;stroke-width:0.5px"></ellipse><path d="M272.27,428.61s16.65-15.37,41.61-16,26.88,14.09,25,17.93-11.52,1.92-22.4,4.48-38.56,6.12-43.28,2.42S270.35,431.17,272.27,428.61Z" style="fill:#fff;stroke:#263238;stroke-linecap:round;stroke-linejoin:round"></path><path d="M299.68,422.58s7.21,2.41,10.21,9" style="fill:none;stroke:#263238;stroke-linecap:round;stroke-linejoin:round"></path><path d="M309.59,421.38a19.38,19.38,0,0,1,9,8.11" style="fill:none;stroke:#263238;stroke-linecap:round;stroke-linejoin:round"></path><path d="M320.1,419s5.71,1.8,10.52,10.21" style="fill:none;stroke:#263238;stroke-linecap:round;stroke-linejoin:round"></path><path d="M278.65,428.59S299.08,416,318,416.88" style="fill:none;stroke:#263238;stroke-linecap:round;stroke-linejoin:round"></path><path d="M272.57,414.66a8.81,8.81,0,0,0,9.05-.34c3.57-2.23,10.42-5.6,20.74-6.84,16-1.92,14.08-9.6,5.76-12.8s-25-2.56-31.36,4.48C271.6,404.83,266.86,411.34,272.57,414.66Z" style="fill:#fff;stroke:#263238;stroke-linecap:round;stroke-linejoin:round"></path><path d="M276.55,409.37s6.61-12.92,21.63-12.92" style="fill:none;stroke:#263238;stroke-linecap:round;stroke-linejoin:round"></path><path d="M284.06,401.26a26.66,26.66,0,0,1,11.41,4.2" style="fill:none;stroke:#263238;stroke-linecap:round;stroke-linejoin:round"></path><path d="M297.88,398.25a22.1,22.1,0,0,1,8.71,4.51" style="fill:none;stroke:#263238;stroke-linecap:round;stroke-linejoin:round"></path><path d="M280.16,405.76s5.4,1.5,6.6,3" style="fill:none;stroke:#263238;stroke-linecap:round;stroke-linejoin:round"></path><path d="M259.47,406.2s1.92-9-4.48-15.36-23.68-5.76-26.88-.64,12.16,7.68,12.16,14.72,7,13.45,13.44,10.89S259.47,406.2,259.47,406.2Z" style="fill:#fff;stroke:#263238;stroke-linecap:round;stroke-linejoin:round"></path><path d="M245.62,389.84a21.53,21.53,0,0,0-11.72,2.71" style="fill:none;stroke:#263238;stroke-linecap:round;stroke-linejoin:round"></path><path d="M248.32,395.25s-6.61-.6-10.51,1.2" style="fill:none;stroke:#263238;stroke-linecap:round;stroke-linejoin:round"></path><path d="M249.52,400.66s-5.11.6-6.91,1.8" style="fill:none;stroke:#263238;stroke-linecap:round;stroke-linejoin:round"></path><path d="M228.6,414.66a8.79,8.79,0,0,1-9-.34c-3.57-2.23-10.43-5.6-20.74-6.84-16-1.92-14.09-9.6-5.76-12.8s25-2.56,31.36,4.48C229.58,404.83,234.32,411.34,228.6,414.66Z" style="fill:#fff;stroke:#263238;stroke-linecap:round;stroke-linejoin:round"></path><path d="M201.16,398.25s9-3,14.42-2.1" style="fill:none;stroke:#263238;stroke-linecap:round;stroke-linejoin:round"></path><path d="M211.68,400.06a15.06,15.06,0,0,1,9.61,0" style="fill:none;stroke:#263238;stroke-linecap:round;stroke-linejoin:round"></path><path d="M216.18,405.16c.9,0,5.11-1.2,9,0" style="fill:none;stroke:#263238;stroke-linecap:round;stroke-linejoin:round"></path><path d="M150,425.41s16.64-15.37,41.6-16,26.89,14.09,25,17.93-11.52,1.92-22.41,4.48-38.55,6.12-43.28,2.42S148.1,428,150,425.41Z" style="fill:#fff;stroke:#263238;stroke-linecap:round;stroke-linejoin:round"></path><path d="M155.81,428.29s.3-4.81,9.31-10.21" style="fill:none;stroke:#263238;stroke-linecap:round;stroke-linejoin:round"></path><path d="M166.32,424.68s1.2-4.5,9-10.21" style="fill:none;stroke:#263238;stroke-linecap:round;stroke-linejoin:round"></path><path d="M177.43,421.68s2-6.94,8.11-9.61" style="fill:none;stroke:#263238;stroke-linecap:round;stroke-linejoin:round"></path><path d="M193.35,411.77s-3.6,3-4.5,5.71" style="fill:none;stroke:#263238;stroke-linecap:round;stroke-linejoin:round"></path><ellipse cx="249.7" cy="421.25" rx="24.35" ry="13.12" style="fill:#fff;stroke:#263238;stroke-linecap:round;stroke-linejoin:round"></ellipse><ellipse cx="249.7" cy="417.83" rx="26.25" ry="13.12" style="fill:#fff;stroke:#263238;stroke-linecap:round;stroke-linejoin:round"></ellipse><ellipse cx="249.7" cy="420.68" rx="20.92" ry="10.27" style="fill:#263238;stroke:#263238;stroke-linecap:round;stroke-linejoin:round"></ellipse><path d="M188.17,423.86v11.28c0,4,6.57,7.23,14.68,7.23s14.68-3.24,14.68-7.23V423.86Z" style="fill:#263238;stroke:#263238;stroke-linecap:round;stroke-linejoin:round"></path><ellipse cx="202.85" cy="423.86" rx="14.68" ry="7.22" style="fill:#fff;stroke:#263238;stroke-linecap:round;stroke-linejoin:round"></ellipse><ellipse cx="202.85" cy="423.86" rx="6.97" ry="3.43" style="fill:#7E57C2;stroke:#263238;stroke-linecap:round;stroke-linejoin:round"></ellipse><path d="M165.48,435.26v11.28c0,4,6.57,7.23,14.67,7.23s14.68-3.24,14.68-7.23V435.26Z" style="fill:#263238;stroke:#263238;stroke-linecap:round;stroke-linejoin:round"></path><ellipse cx="180.15" cy="435.26" rx="14.68" ry="7.22" style="fill:#fff;stroke:#263238;stroke-linecap:round;stroke-linejoin:round"></ellipse><path d="M187.12,435.26c0,1.9-3.12,3.43-7,3.43s-7-1.53-7-3.43,3.12-3.43,7-3.43S187.12,433.37,187.12,435.26Z" style="fill:#7E57C2;stroke:#263238;stroke-linecap:round;stroke-linejoin:round"></path><path d="M213.4,436.75V448c0,4,6.57,7.22,14.67,7.22S242.75,452,242.75,448V436.75Z" style="fill:#263238;stroke:#263238;stroke-linecap:round;stroke-linejoin:round"></path><ellipse cx="228.07" cy="436.75" rx="14.68" ry="7.22" style="fill:#fff;stroke:#263238;stroke-linecap:round;stroke-linejoin:round"></ellipse><path d="M235,436.75c0,1.89-3.12,3.43-7,3.43s-7-1.54-7-3.43,3.13-3.43,7-3.43S235,434.85,235,436.75Z" style="fill:#7E57C2;stroke:#263238;stroke-linecap:round;stroke-linejoin:round"></path><path d="M273.16,437.43v11.28c0,4,6.57,7.23,14.68,7.23s14.67-3.24,14.67-7.23V437.43Z" style="fill:#263238;stroke:#263238;stroke-linecap:round;stroke-linejoin:round"></path><path d="M302.51,437.43c0,4-6.57,7.22-14.67,7.22s-14.68-3.23-14.68-7.22,6.57-7.22,14.68-7.22S302.51,433.44,302.51,437.43Z" style="fill:#fff;stroke:#263238;stroke-linecap:round;stroke-linejoin:round"></path><path d="M294.8,437.43c0,1.89-3.12,3.43-7,3.43s-7-1.54-7-3.43,3.12-3.43,7-3.43S294.8,435.54,294.8,437.43Z" style="fill:#7E57C2;stroke:#263238;stroke-linecap:round;stroke-linejoin:round"></path><path d="M190.86,447.36v11.28c0,4,6.57,7.22,14.68,7.22s14.67-3.23,14.67-7.22V447.36Z" style="fill:#263238;stroke:#263238;stroke-linecap:round;stroke-linejoin:round"></path><ellipse cx="205.54" cy="447.36" rx="14.68" ry="7.22" style="fill:#fff;stroke:#263238;stroke-linecap:round;stroke-linejoin:round"></ellipse><ellipse cx="205.54" cy="447.36" rx="6.97" ry="3.43" style="fill:#7E57C2;stroke:#263238;stroke-linecap:round;stroke-linejoin:round"></ellipse><path d="M244.32,443.55v11.28c0,4,6.57,7.23,14.68,7.23s14.68-3.24,14.68-7.23V443.55Z" style="fill:#263238;stroke:#263238;stroke-linecap:round;stroke-linejoin:round"></path><ellipse cx="259" cy="443.55" rx="14.68" ry="7.22" style="fill:#fff;stroke:#263238;stroke-linecap:round;stroke-linejoin:round"></ellipse><ellipse cx="259" cy="443.55" rx="6.97" ry="3.43" style="fill:#7E57C2;stroke:#263238;stroke-linecap:round;stroke-linejoin:round"></ellipse><path d="M223.72,454.51V465.8c0,4,6.57,7.22,14.68,7.22s14.68-3.23,14.68-7.22V454.51Z" style="fill:#263238;stroke:#263238;stroke-linecap:round;stroke-linejoin:round"></path><ellipse cx="238.4" cy="454.51" rx="14.68" ry="7.22" style="fill:#fff;stroke:#263238;stroke-linecap:round;stroke-linejoin:round"></ellipse><ellipse cx="238.4" cy="454.51" rx="6.97" ry="3.43" style="fill:#7E57C2;stroke:#263238;stroke-linecap:round;stroke-linejoin:round"></ellipse></g><g id="freepik--Table--inject-214"><line x1="492" y1="333.75" x2="8.61" y2="333.75" style="fill:none;stroke:#263238;stroke-linecap:round;stroke-linejoin:round"></line></g><g id="freepik--Character--inject-214"><path d="M250.66,157.33s-28.6,8.83-48,14.13-27.55,15.9-30,19.78S144,243.87,144,243.87l45.56,27.55-11.31,61.41H324.9l6.29-70.6,3.67,15.61,55.67-1.13s-8.81-51.9-15.17-68.85-17.66-22.25-33.55-29.32S286.69,158,280,156.63,250.66,157.33,250.66,157.33Z" style="fill:#263238;stroke:#263238;stroke-linecap:round;stroke-linejoin:round"></path><line x1="185.32" y1="268.24" x2="201.22" y2="231.86" style="fill:none;stroke:#737373;stroke-linecap:round;stroke-linejoin:round"></line><line x1="331.19" y1="262.23" x2="325.98" y2="245.52" style="fill:none;stroke:#737373;stroke-linecap:round;stroke-linejoin:round"></line><polygon points="254.11 195.48 275.3 240.51 289.34 199.72 254.11 195.48" style="fill:#fff;stroke:#263238;stroke-linecap:round;stroke-linejoin:round"></polygon><path d="M263.74,200.46l14.4,38.23L259.55,271.8s-2.83-26.4-9-49-5.44-54.53-4.14-66.32Z" style="fill:#7E57C2;stroke:#263238;stroke-linecap:round;stroke-linejoin:round"></path><path d="M283.51,199.36s-36.29,99.48-73.73,134.09H238s40.18-59.91,56.08-94.53a208.06,208.06,0,0,0,17.66-67.81Z" style="fill:#7E57C2;stroke:#263238;stroke-linecap:round;stroke-linejoin:round"></path><path d="M247.24,141s-2.36-5.5-6.55-2.62-2.09,14.67,0,19.9,7.34,5.77,7.34,2.62S247.24,141,247.24,141Z" style="fill:#fff;stroke:#263238;stroke-linecap:round;stroke-linejoin:round"></path><path d="M317.54,147.37s3-5.15,6.83-1.75.18,14.81-2.58,19.73-8,4.76-7.61,1.65S317.54,147.37,317.54,147.37Z" style="fill:#fff;stroke:#263238;stroke-linecap:round;stroke-linejoin:round"></path><path d="M251.43,123.44s-1.27,45-1.27,54.73,3,24.62,15.86,32.21,24.34.27,30.26-7.59,15.66-46.62,15.66-57.09-1.27-29.86-13.54-39c-9.65-7.21-30.26-7.86-38.93,2.62C252.89,117.24,251.43,123.44,251.43,123.44Z" style="fill:#263238;stroke:#263238;stroke-linecap:round;stroke-linejoin:round"></path><path d="M246.45,116.65s-1.57,45-1.57,54.74,3.67,24.62,19.64,32.21,30.12.26,37.45-7.59,19.38-46.62,19.38-57.1-1.57-29.85-16.76-39c-11.94-7.2-37.45-7.85-48.18,2.62C248.27,110.45,246.45,116.65,246.45,116.65Z" style="fill:#fff;stroke:#263238;stroke-linecap:round;stroke-linejoin:round"></path><path d="M289.93,167.2s8.38-5,16.23-1.31" style="fill:none;stroke:#263238;stroke-linecap:round;stroke-linejoin:round"></path><path d="M255.88,158.29a14.47,14.47,0,0,1,13.62,6.81" style="fill:none;stroke:#263238;stroke-linecap:round;stroke-linejoin:round"></path><path d="M274.48,155.41s-8.65-5.76-18.07-2.88" style="fill:none;stroke:#263238;stroke-linecap:round;stroke-linejoin:round;stroke-width:3px"></path><path d="M287.57,157.25s8.64-6,21.21.78" style="fill:none;stroke:#263238;stroke-linecap:round;stroke-linejoin:round;stroke-width:3px"></path><path d="M292.28,168.51a14,14,0,0,0,8.12,0" style="fill:none;stroke:#263238;stroke-linecap:round;stroke-linejoin:round"></path><path d="M268.19,166.67a15.14,15.14,0,0,1-9.16-3.92" style="fill:none;stroke:#263238;stroke-linecap:round;stroke-linejoin:round"></path><path d="M290.71,165.1s2.1-4.19,9.43-3.66" style="fill:none;stroke:#263238;stroke-linecap:round;stroke-linejoin:round"></path><path d="M270.55,163.27s-1.31-5.5-5.5-6.29" style="fill:none;stroke:#263238;stroke-linecap:round;stroke-linejoin:round"></path><path d="M271.6,178.2a3.41,3.41,0,0,0,1,3.66c1.84,1.84,6.29,5.5,8.12,4.19s2.88-.78,5-3.4a6.35,6.35,0,0,0,1.57-5" style="fill:none;stroke:#263238;stroke-linecap:round;stroke-linejoin:round"></path><path d="M258,182.13s9.95,7.33,18.33,8.64,20.69-5.5,20.69-5.5" style="fill:none;stroke:#263238;stroke-linecap:round;stroke-linejoin:round"></path><path d="M261.38,181.08s-5.24.52-5.24,1.83" style="fill:none;stroke:#263238;stroke-linecap:round;stroke-linejoin:round"></path><path d="M294.64,184.22s3.41.79,3.41,3.4" style="fill:none;stroke:#263238;stroke-linecap:round;stroke-linejoin:round"></path><path d="M247,115.87s9.43,11.52,36.66,12.83,35.88-6.28,35.88-6.28l-.79-3.41s.53-1.57,2.1.53,2.62,14.92,3.4,18.33-2.88,6.54-5,7.33-21.21,8.38-44,3.93c-16.35-3.2-30.9-11-32.21-12.57s-.52-13.62-.52-17.29,4.71-7.59,6.54-7.85Z" style="fill:#7E57C2;stroke:#263238;stroke-linecap:round;stroke-linejoin:round"></path><path d="M322.48,130.45s-12.31-2.88-16.24,0,0,17,2.62,16.23S317,145.64,322.48,130.45Z" style="fill:#7E57C2;stroke:#263238;stroke-linecap:round;stroke-linejoin:round"></path><path d="M322.48,130.45A140,140,0,0,1,325.36,115c1.57-5.49,5.23,3.93,5.23,13.1S322.48,130.45,322.48,130.45Z" style="fill:#7E57C2;stroke:#263238;stroke-linecap:round;stroke-linejoin:round"></path><polygon points="319.44 129.69 320.64 135.98 324.83 131.49 323.34 126.69 319.44 129.69" style="fill:#7E57C2;stroke:#263238;stroke-linecap:round;stroke-linejoin:round"></polygon><path d="M332.48,279.66s1.88-10,6.9-15.9,27-5.86,36.82-4.18,17.37,13.18,15.69,22.59-7.11,19.67-9.62,23.85-8.16,5.23-16.95.63S332.48,279.66,332.48,279.66Z" style="fill:#7E57C2;stroke:#263238;stroke-linecap:round;stroke-linejoin:round"></path><path d="M286.69,316.27s47.68-.7,64.28-.7,29.32-8.13,29.32-16.6-20.14-23.32-31.79-24.73-32.14,12.36-49.09,17.31-21.55,2.12-25.08,2.12-9.54-.71-15.19,1.41-11.3,11.3-13.77,15.19-9.54,8.83-8.48,12.36,15.54,8.83,22.25,8.83a26.11,26.11,0,0,0,12.36-3.53s-4.94,9.89,1.06,7.41,8.13-9.53,10.6-12.71A42.42,42.42,0,0,0,286.69,316.27Z" style="fill:#fff;stroke:#263238;stroke-linecap:round;stroke-linejoin:round"></path><path d="M241.85,305.52V313c0,2.63,5.13,4.77,11.47,4.77S264.8,315.6,264.8,313v-7.45Z" style="fill:#263238;stroke:#263238;stroke-linecap:round;stroke-linejoin:round"></path><ellipse cx="253.32" cy="305.52" rx="11.48" ry="4.77" style="fill:#fff;stroke:#263238;stroke-linecap:round;stroke-linejoin:round"></ellipse><path d="M258.77,305.52c0,1.25-2.44,2.27-5.45,2.27s-5.45-1-5.45-2.27,2.44-2.26,5.45-2.26S258.77,304.27,258.77,305.52Z" style="fill:#7E57C2;stroke:#263238;stroke-linecap:round;stroke-linejoin:round"></path><path d="M286.69,316.27a41.34,41.34,0,0,0,0-9.89,15.59,15.59,0,0,0-3.18-7.06" style="fill:none;stroke:#263238;stroke-linecap:round;stroke-linejoin:round"></path><path d="M270.55,302.26s-4,4.81-2.3,8.78,5.65,10.47,5.44,11.93-2.19,5-2.19,5" style="fill:none;stroke:#263238;stroke-linecap:round;stroke-linejoin:round"></path><path d="M241.68,328.83s-8.58-6.07-8.58-9.21,5.23-14.43,7.11-11.3.21,7.12-.2,9,1.88,4.81,1.88,4.81" style="fill:#fff;stroke:#263238;stroke-linecap:round;stroke-linejoin:round"></path><path d="M252.56,331.55s-6.91,1-9.83,0-4.61-15.69-3.14-18.2,3.55.21,4.18,2.92,3.14,9.84,5,11.3" style="fill:#fff;stroke:#263238;stroke-linecap:round;stroke-linejoin:round"></path><path d="M252.77,324.23s-8-9.21-9.84-5.24,6.7,11.72,10.26,13.6,7.53-1,7.53-1" style="fill:#fff;stroke:#263238;stroke-linecap:round;stroke-linejoin:round"></path><path d="M265.11,328s-10.25-13.6-13.18-9.62,5.44,13.18,9,14.64,9.2-5,9.2-5" style="fill:#fff;stroke:#263238;stroke-linecap:round;stroke-linejoin:round"></path><path d="M250.93,274.42s10.6,7.68,11.65,9.27,1.06,15.36,1.06,17.75-3.7,4-5.56,2.91-3.18-11.65-3.44-14.83-5-11.39-5-11.39S248.55,273.62,250.93,274.42Z" style="fill:#fff;stroke:#263238;stroke-linecap:round;stroke-linejoin:round"></path><path d="M124.31,278.66s-4.24,0-4.77-5.3,8.74-28.08,12.19-32.32,24.9-3.71,33.9-.26,13.51,8.21,16.43,13.51a24.3,24.3,0,0,1,3.18,11.65c.08,2.3-9,9.54-24.37,9S124.31,278.66,124.31,278.66Z" style="fill:#7E57C2;stroke:#263238;stroke-linecap:round;stroke-linejoin:round"></path><path d="M168,255.88s43.71,10.33,55.63,10.33,22.78.79,24.63,2.65,6.89,13,8,15.89-.27,20.93-1.33,23-5.56.53-5.56.53l-.79-3.44s-1.06,3.71-6.1,1.86c0,0-3.44,2.91-5,2.91H235s-.53,2.12-4.24,2.12-10.33-2.92-12.72-6.89-13.51-17.75-14.3-17.48-27,5.56-41.86,5.56S128,289.78,123,281.31s5.29-21.73,14.3-26.76S168,255.88,168,255.88Z" style="fill:#fff;stroke:#263238;stroke-linecap:round;stroke-linejoin:round"></path><path d="M240.07,278.66s6.36,8.74,7.42,12.18,1.06,14,1.06,14" style="fill:none;stroke:#263238;stroke-linecap:round;stroke-linejoin:round"></path><path d="M229.21,286.6s3.71,6.36,6.62,11.13a74.94,74.94,0,0,0,6.62,9" style="fill:none;stroke:#263238;stroke-linecap:round;stroke-linejoin:round"></path><path d="M218.88,293.49a122.94,122.94,0,0,0,8.47,9.27c3.45,3.18,7.69,6.89,7.69,6.89" style="fill:none;stroke:#263238;stroke-linecap:round;stroke-linejoin:round"></path></g><g id="freepik--Plant--inject-214"><path d="M469.25,316.66c-20.76,11.94-35.27,0-35.27,0l-1.76,15.63a119.23,119.23,0,0,0,.17,28.13h0a14.58,14.58,0,0,0,14.48,12.8H456a15,15,0,0,0,14.87-13.16h0A119.51,119.51,0,0,0,471,332Z" style="fill:#fff;stroke:#263238;stroke-linecap:round;stroke-linejoin:round"></path><ellipse cx="451.49" cy="316.86" rx="17.51" ry="6.38" style="fill:#263238;stroke:#263238;stroke-linecap:round;stroke-linejoin:round"></ellipse><path d="M444.52,319.59a19.19,19.19,0,0,1-7.68-4.58,22.43,22.43,0,0,0-5.31-4c-4.24-2.12-13.06-3.88-13.06-3.88s7.77-1.77,13.76-.35,10.24,7.41,10.24,7.41-1.77-2.47-4.24-9.88S435.76,281,435.76,281a50.06,50.06,0,0,1,8.82,14.82A73.41,73.41,0,0,1,448.11,311s-.7-12.35,1.41-19.41,8.12-15.88,8.12-15.88.35,15.53-2.12,24S452,312.07,452,312.07a30.43,30.43,0,0,1,7.41-11.65c5.3-4.94,18-9.17,18-9.17s-6,10.94-9.88,14.47-7.76,7.41-7.76,7.41S464,310,471.4,310s16.23,4.94,16.23,4.94-18.86-.11-25.81,3.13a17.46,17.46,0,0,1-4.39,1.47l-3.83.68a19.14,19.14,0,0,1-9.08-.58Z" style="fill:#7E57C2;stroke:#263238;stroke-linecap:round;stroke-linejoin:round"></path><line x1="444.44" y1="316.18" x2="440.09" y2="313.17" style="fill:none;stroke:#263238;stroke-linecap:round;stroke-linejoin:round"></line><line x1="449.12" y1="318.52" x2="443.1" y2="302.47" style="fill:none;stroke:#263238;stroke-linecap:round;stroke-linejoin:round"></line><line x1="449.12" y1="318.52" x2="452.46" y2="297.12" style="fill:none;stroke:#263238;stroke-linecap:round;stroke-linejoin:round"></line><line x1="449.12" y1="318.52" x2="460.49" y2="304.48" style="fill:none;stroke:#263238;stroke-linecap:round;stroke-linejoin:round"></line><line x1="451.49" y1="318.24" x2="463.5" y2="312.84" style="fill:none;stroke:#263238;stroke-linecap:round;stroke-linejoin:round"></line><path d="M439.79,344c0,9.38-1.46,17-3.26,17s-3.25-7.6-3.25-17,1.46-17,3.25-17S439.79,334.58,439.79,344Z" style="fill:none;stroke:#7E57C2;stroke-linecap:round;stroke-linejoin:round"></path><ellipse cx="451.35" cy="348.66" rx="7.23" ry="20.24" style="fill:none;stroke:#7E57C2;stroke-linecap:round;stroke-linejoin:round"></ellipse><ellipse cx="465.45" cy="343.6" rx="2.53" ry="17.35" style="fill:none;stroke:#7E57C2;stroke-linecap:round;stroke-linejoin:round"></ellipse></g></svg>